999
DXF from OpenSCAD
  0
SECTION
  2
HEADER
  9
$ACADVER
  1
AC1006
  9
$INSBASE
 10
0.0
 20
0.0
 30
0.0
  9
$EXTMIN
 10
6.85775
 20
5.55355
  9
$EXTMAX
 10
34.8577
 20
38.0746
  9
$LINMIN
 10
6.85775
 20
5.55355
  9
$LINMAX
 10
34.8577
 20
38.0746
  0
ENDSEC
  0
SECTION
  2
TABLES
  0
TABLE
  2
LTYPE
 70
1
  0
LTYPE
  2
CONTINUOUS
 70
64
  3
Solid line
 72
65
 73
0
 40
0.000000
  0
ENDTAB
  0
TABLE
  2
LAYER
 70
6
  0
LAYER
  2
0
 70
64
 62
7
  6
CONTINUOUS
  0
ENDTAB
  0
TABLE
  2
STYLE
 70
0
  0
ENDTAB
  0
ENDSEC
  0
SECTION
  2
BLOCKS
  0
ENDSEC
  0
SECTION
  2
ENTITIES
  0
LWPOLYLINE
100
AcDbEntity
  8
0
100
AcDbPolyline
 90
240
 70
1
 10
20.9291
 20
5.55574
 10
20.9679
 20
5.56111
 10
21.0068
 20
5.56966
 10
21.0456
 20
5.5814
 10
21.0842
 20
5.59633
 10
21.1228
 20
5.61444
 10
21.1611
 20
5.63574
 10
21.1991
 20
5.66022
 10
21.2368
 20
5.68789
 10
21.2742
 20
5.71874
 10
21.3932
 20
5.80245
 10
21.6823
 20
5.99585
 10
22.1225
 20
6.28667
 10
22.6949
 20
6.66266
 10
23.3808
 20
7.11156
 10
24.161
 20
7.6211
 10
25.0169
 20
8.17904
 10
25.9296
 20
8.7731
 10
26.88
 20
9.39104
 10
27.8494
 20
10.0206
 10
28.8188
 20
10.6495
 10
29.7694
 20
11.2655
 10
30.6823
 20
11.8563
 10
31.5387
 20
12.4097
 10
32.3195
 20
12.9134
 10
33.0059
 20
13.3551
 10
33.5792
 20
13.7227
 10
34.0202
 20
14.0038
 10
34.3103
 20
14.1862
 10
34.4305
 20
14.2575
 10
34.4635
 20
14.2722
 10
34.4952
 20
14.288
 10
34.5257
 20
14.3048
 10
34.555
 20
14.3227
 10
34.583
 20
14.3417
 10
34.6097
 20
14.3617
 10
34.6352
 20
14.3828
 10
34.6593
 20
14.405
 10
34.6822
 20
14.4283
 10
34.7038
 20
14.4527
 10
34.7241
 20
14.4782
 10
34.7431
 20
14.5047
 10
34.7608
 20
14.5324
 10
34.7771
 20
14.5612
 10
34.7922
 20
14.591
 10
34.8059
 20
14.622
 10
34.8183
 20
14.6541
 10
34.8293
 20
14.6873
 10
34.839
 20
14.7216
 10
34.8474
 20
14.757
 10
34.8546
 20
14.8965
 10
34.8577
 20
15.2178
 10
34.8571
 20
15.7006
 10
34.853
 20
16.3246
 10
34.8458
 20
17.0696
 10
34.8359
 20
17.9153
 10
34.8237
 20
18.8415
 10
34.8094
 20
19.828
 10
34.7934
 20
20.8544
 10
34.7761
 20
21.9005
 10
34.7578
 20
22.9462
 10
34.7389
 20
23.971
 10
34.7197
 20
24.9548
 10
34.7007
 20
25.8773
 10
34.682
 20
26.7182
 10
34.6641
 20
27.4574
 10
34.6474
 20
28.0745
 10
34.6321
 20
28.5493
 10
34.6187
 20
28.8615
 10
34.6074
 20
28.991
 10
34.5982
 20
29.0171
 10
34.5891
 20
29.0413
 10
34.5802
 20
29.0637
 10
34.5712
 20
29.0845
 10
34.562
 20
29.1038
 10
34.5526
 20
29.1217
 10
34.5428
 20
29.1384
 10
34.5324
 20
29.1541
 10
34.5214
 20
29.1688
 10
34.5096
 20
29.1827
 10
34.4969
 20
29.196
 10
34.4831
 20
29.2087
 10
34.4682
 20
29.2211
 10
34.452
 20
29.2333
 10
34.4343
 20
29.2454
 10
34.4151
 20
29.2575
 10
34.3943
 20
29.2699
 10
34.3716
 20
29.2826
 10
34.347
 20
29.2957
 10
34.3203
 20
29.3095
 10
34.1965
 20
29.3854
 10
33.9027
 20
29.5727
 10
33.4577
 20
29.8591
 10
32.8807
 20
30.2323
 10
32.1905
 20
30.6799
 10
31.4061
 20
31.1894
 10
30.5465
 20
31.7485
 10
29.6307
 20
32.3448
 10
28.6777
 20
32.966
 10
27.7063
 20
33.5996
 10
26.7356
 20
34.2332
 10
25.7846
 20
34.8546
 10
24.8722
 20
35.4512
 10
24.0174
 20
36.0107
 10
23.2391
 20
36.5208
 10
22.5564
 20
36.969
 10
21.9881
 20
37.3429
 10
21.5534
 20
37.6303
 10
21.271
 20
37.8186
 10
21.1601
 20
37.8955
 10
21.1259
 20
37.9254
 10
21.0916
 20
37.9526
 10
21.0573
 20
37.9771
 10
21.023
 20
37.9989
 10
20.9887
 20
38.0179
 10
20.9544
 20
38.0342
 10
20.9202
 20
38.0478
 10
20.886
 20
38.0586
 10
20.8519
 20
38.0667
 10
20.818
 20
38.072
 10
20.7841
 20
38.0746
 10
20.7504
 20
38.0745
 10
20.7168
 20
38.0716
 10
20.6834
 20
38.066
 10
20.6502
 20
38.0576
 10
20.6172
 20
38.0464
 10
20.5844
 20
38.0325
 10
20.5519
 20
38.0158
 10
20.5196
 20
37.9964
 10
20.4876
 20
37.9742
 10
20.3078
 20
37.8497
 10
19.9682
 20
37.6199
 10
19.487
 20
37.2968
 10
18.8823
 20
36.8925
 10
18.1724
 20
36.4191
 10
17.3754
 20
35.8885
 10
16.5094
 20
35.3129
 10
15.5927
 20
34.7042
 10
14.6435
 20
34.0745
 10
13.6799
 20
33.4359
 10
12.72
 20
32.8003
 10
11.7822
 20
32.18
 10
10.8846
 20
31.5868
 10
10.0452
 20
31.0328
 10
9.28245
 20
30.5301
 10
8.61436
 20
30.0907
 10
8.05916
 20
29.7267
 10
7.63502
 20
29.4501
 10
7.36013
 20
29.2729
 10
7.25266
 20
29.2073
 10
7.23497
 20
29.2012
 10
7.21733
 20
29.1936
 10
7.1998
 20
29.1845
 10
7.18243
 20
29.174
 10
7.16527
 20
29.1622
 10
7.14838
 20
29.1491
 10
7.1318
 20
29.1348
 10
7.1156
 20
29.1194
 10
7.09982
 20
29.1029
 10
7.08452
 20
29.0854
 10
7.06975
 20
29.0669
 10
7.05556
 20
29.0476
 10
7.04201
 20
29.0274
 10
7.02915
 20
29.0065
 10
7.01704
 20
28.9849
 10
7.00572
 20
28.9627
 10
6.99525
 20
28.94
 10
6.98569
 20
28.9167
 10
6.97708
 20
28.8931
 10
6.96947
 20
28.869
 10
6.95985
 20
28.7393
 10
6.94995
 20
28.426
 10
6.93991
 20
27.9497
 10
6.92986
 20
27.3306
 10
6.91994
 20
26.5892
 10
6.91029
 20
25.7459
 10
6.90104
 20
24.821
 10
6.89232
 20
23.8348
 10
6.88428
 20
22.8079
 10
6.87705
 20
21.7604
 10
6.87076
 20
20.7129
 10
6.86555
 20
19.6857
 10
6.86155
 20
18.6991
 10
6.85891
 20
17.7735
 10
6.85775
 20
16.9294
 10
6.85821
 20
16.1871
 10
6.86044
 20
15.5669
 10
6.86455
 20
15.0892
 10
6.8707
 20
14.7744
 10
6.87901
 20
14.643
 10
6.88859
 20
14.6108
 10
6.89961
 20
14.5792
 10
6.91201
 20
14.5482
 10
6.92577
 20
14.5179
 10
6.94084
 20
14.4883
 10
6.95717
 20
14.4594
 10
6.97473
 20
14.4314
 10
6.99348
 20
14.4042
 10
7.01337
 20
14.3778
 10
7.03437
 20
14.3524
 10
7.05643
 20
14.328
 10
7.07951
 20
14.3046
 10
7.10356
 20
14.2822
 10
7.12856
 20
14.261
 10
7.15445
 20
14.2409
 10
7.1812
 20
14.222
 10
7.20876
 20
14.2043
 10
7.2371
 20
14.1879
 10
7.26617
 20
14.1729
 10
7.29592
 20
14.1592
 10
7.41765
 20
14.0873
 10
7.71002
 20
13.9057
 10
8.15405
 20
13.6264
 10
8.73075
 20
13.2617
 10
9.42115
 20
12.8236
 10
10.2063
 20
12.3243
 10
11.0671
 20
11.776
 10
11.9848
 20
11.1908
 10
12.9402
 20
10.5808
 10
13.9144
 20
9.95815
 10
14.8884
 20
9.335
 10
15.8433
 20
8.72348
 10
16.76
 20
8.13575
 10
17.6196
 20
7.58392
 10
18.4032
 20
7.08015
 10
19.0916
 20
6.63658
 10
19.666
 20
6.26533
 10
20.1074
 20
5.97855
 10
20.3967
 20
5.78837
 10
20.5151
 20
5.70695
 10
20.5508
 20
5.67727
 10
20.587
 20
5.65078
 10
20.6237
 20
5.62748
 10
20.6609
 20
5.60736
 10
20.6984
 20
5.59043
 10
20.7363
 20
5.57668
 10
20.7745
 20
5.56612
 10
20.8129
 20
5.55875
 10
20.8515
 20
5.55456
 10
20.8902
 20
5.55355
  0
LWPOLYLINE
100
AcDbEntity
  8
0
100
AcDbPolyline
 90
102
 70
1
 10
21.8951
 20
29.5929
 10
21.7434
 20
29.5932
 10
21.6063
 20
29.5938
 10
21.4845
 20
29.5946
 10
21.3787
 20
29.5957
 10
21.29
 20
29.597
 10
21.219
 20
29.5985
 10
21.1666
 20
29.6003
 10
21.1336
 20
29.6023
 10
21.1208
 20
29.6045
 10
21.1188
 20
29.6163
 10
21.1174
 20
29.6465
 10
21.1166
 20
29.6942
 10
21.1164
 20
29.7588
 10
21.1168
 20
29.8395
 10
21.1178
 20
29.9356
 10
21.1193
 20
30.0462
 10
21.1214
 20
30.1706
 10
21.1241
 20
30.3082
 10
21.1272
 20
30.458
 10
21.1308
 20
30.6194
 10
21.135
 20
30.7916
 10
21.1396
 20
30.9739
 10
21.1446
 20
31.1655
 10
21.1501
 20
31.3656
 10
21.1561
 20
31.5735
 10
21.1624
 20
31.7884
 10
21.1691
 20
32.0096
 10
21.1762
 20
32.2363
 10
21.1837
 20
32.4678
 10
21.1913
 20
32.7006
 10
21.1987
 20
32.9311
 10
21.2059
 20
33.1585
 10
21.2128
 20
33.382
 10
21.2194
 20
33.6006
 10
21.2258
 20
33.8135
 10
21.2319
 20
34.02
 10
21.2377
 20
34.219
 10
21.2431
 20
34.4099
 10
21.2481
 20
34.5917
 10
21.2528
 20
34.7636
 10
21.2571
 20
34.9247
 10
21.2609
 20
35.0743
 10
21.2643
 20
35.2113
 10
21.2673
 20
35.3351
 10
21.2697
 20
35.4447
 10
21.2716
 20
35.5393
 10
21.273
 20
35.618
 10
21.2739
 20
35.68
 10
21.2742
 20
35.7245
 10
21.2749
 20
35.7589
 10
21.2757
 20
35.7926
 10
21.2767
 20
35.8255
 10
21.2779
 20
35.8573
 10
21.2792
 20
35.8881
 10
21.2807
 20
35.9177
 10
21.2823
 20
35.946
 10
21.2841
 20
35.9728
 10
21.286
 20
35.9982
 10
21.288
 20
36.0219
 10
21.2901
 20
36.0439
 10
21.2923
 20
36.064
 10
21.2947
 20
36.0822
 10
21.2971
 20
36.0983
 10
21.2996
 20
36.1122
 10
21.3023
 20
36.1238
 10
21.305
 20
36.133
 10
21.3078
 20
36.1398
 10
21.3106
 20
36.1439
 10
21.3135
 20
36.1453
 10
21.3266
 20
36.1345
 10
21.3592
 20
36.1025
 10
21.4106
 20
36.0504
 10
21.4801
 20
35.9788
 10
21.5667
 20
35.8887
 10
21.6698
 20
35.7809
 10
21.7884
 20
35.6563
 10
21.9219
 20
35.5157
 10
22.0693
 20
35.36
 10
22.2299
 20
35.19
 10
22.403
 20
35.0066
 10
22.5876
 20
34.8106
 10
22.783
 20
34.603
 10
22.9883
 20
34.3844
 10
23.2029
 20
34.1558
 10
23.4258
 20
33.9181
 10
23.6563
 20
33.672
 10
23.8936
 20
33.4186
 10
24.1369
 20
33.1585
 10
24.3853
 20
32.8926
 10
27.4177
 20
29.636
 10
24.283
 20
29.6045
 10
24.0265
 20
29.6023
 10
23.7753
 20
29.6003
 10
23.5305
 20
29.5985
 10
23.2926
 20
29.597
 10
23.0627
 20
29.5957
 10
22.8415
 20
29.5946
 10
22.6299
 20
29.5938
 10
22.4286
 20
29.5932
 10
22.2384
 20
29.5929
 10
22.0603
 20
29.5927
  0
LWPOLYLINE
100
AcDbEntity
  8
0
100
AcDbPolyline
 90
102
 70
1
 10
17.8081
 20
29.584
 10
17.5615
 20
29.5844
 10
17.3096
 20
29.5849
 10
14.2339
 20
29.5967
 10
17.2152
 20
32.869
 10
17.459
 20
33.1366
 10
17.6976
 20
33.3984
 10
17.9304
 20
33.6535
 10
18.1565
 20
33.9011
 10
18.3751
 20
34.1403
 10
18.5856
 20
34.3702
 10
18.787
 20
34.5901
 10
18.9786
 20
34.7991
 10
19.1596
 20
34.9962
 10
19.3293
 20
35.1807
 10
19.4868
 20
35.3517
 10
19.6314
 20
35.5083
 10
19.7622
 20
35.6497
 10
19.8785
 20
35.775
 10
19.9796
 20
35.8834
 10
20.0646
 20
35.974
 10
20.1327
 20
36.0459
 10
20.1831
 20
36.0984
 10
20.2152
 20
36.1305
 10
20.228
 20
36.1414
 10
20.2303
 20
36.1408
 10
20.2326
 20
36.1382
 10
20.2348
 20
36.1334
 10
20.2369
 20
36.1267
 10
20.2389
 20
36.1181
 10
20.2409
 20
36.1077
 10
20.2427
 20
36.0956
 10
20.2445
 20
36.0819
 10
20.2461
 20
36.0666
 10
20.2477
 20
36.0499
 10
20.2491
 20
36.0319
 10
20.2504
 20
36.0125
 10
20.2515
 20
35.992
 10
20.2526
 20
35.9704
 10
20.2534
 20
35.9478
 10
20.2542
 20
35.9243
 10
20.2548
 20
35.8999
 10
20.2552
 20
35.8748
 10
20.2554
 20
35.8491
 10
20.2555
 20
35.8228
 10
20.2564
 20
35.7862
 10
20.2577
 20
35.7312
 10
20.2596
 20
35.6586
 10
20.2619
 20
35.5694
 10
20.2647
 20
35.4644
 10
20.268
 20
35.3443
 10
20.2717
 20
35.2102
 10
20.2757
 20
35.0627
 10
20.2802
 20
34.9028
 10
20.285
 20
34.7313
 10
20.2902
 20
34.5491
 10
20.2957
 20
34.357
 10
20.3016
 20
34.1559
 10
20.3077
 20
33.9465
 10
20.3142
 20
33.7299
 10
20.3208
 20
33.5067
 10
20.3278
 20
33.2779
 10
20.335
 20
33.0443
 10
20.3423
 20
32.8068
 10
20.3499
 20
32.5662
 10
20.3574
 20
32.3265
 10
20.3646
 20
32.0919
 10
20.3715
 20
31.8631
 10
20.378
 20
31.6408
 10
20.3842
 20
31.4259
 10
20.3899
 20
31.219
 10
20.3952
 20
31.021
 10
20.4001
 20
30.8327
 10
20.4045
 20
30.6548
 10
20.4084
 20
30.488
 10
20.4119
 20
30.3332
 10
20.4148
 20
30.1911
 10
20.4171
 20
30.0625
 10
20.4189
 20
29.9481
 10
20.4202
 20
29.8488
 10
20.4208
 20
29.7653
 10
20.4208
 20
29.6983
 10
20.4201
 20
29.6487
 10
20.4188
 20
29.6172
 10
20.4168
 20
29.6045
 10
20.4042
 20
29.6022
 10
20.3717
 20
29.6001
 10
20.3202
 20
29.598
 10
20.2503
 20
29.5961
 10
20.163
 20
29.5943
 10
20.0591
 20
29.5926
 10
19.9393
 20
29.5911
 10
19.8045
 20
29.5897
 10
19.6554
 20
29.5884
 10
19.493
 20
29.5873
 10
19.318
 20
29.5864
 10
19.1311
 20
29.5856
 10
18.9333
 20
29.5849
 10
18.7254
 20
29.5844
 10
18.5081
 20
29.5841
 10
18.2822
 20
29.5839
 10
18.0486
 20
29.5839
  0
LWPOLYLINE
100
AcDbEntity
  8
0
100
AcDbPolyline
 90
102
 70
1
 10
9.32267
 20
29.4267
 10
9.30968
 20
29.4275
 10
9.30287
 20
29.4324
 10
9.30924
 20
29.4451
 10
9.33007
 20
29.4665
 10
9.36663
 20
29.4975
 10
9.42017
 20
29.5389
 10
9.49198
 20
29.5916
 10
9.58331
 20
29.6564
 10
9.69543
 20
29.7341
 10
9.82963
 20
29.8257
 10
9.98715
 20
29.932
 10
10.1693
 20
30.0537
 10
10.3773
 20
30.1919
 10
10.6124
 20
30.3472
 10
10.876
 20
30.5206
 10
11.1692
 20
30.7129
 10
11.4933
 20
30.925
 10
11.8497
 20
31.1577
 10
12.2396
 20
31.4119
 10
12.6642
 20
31.6884
 10
13.1248
 20
31.988
 10
13.4451
 20
32.196
 10
13.7586
 20
32.3995
 10
14.0643
 20
32.5978
 10
14.3612
 20
32.7903
 10
14.6482
 20
32.9763
 10
14.9243
 20
33.1551
 10
15.1885
 20
33.3261
 10
15.4397
 20
33.4886
 10
15.6769
 20
33.6419
 10
15.8991
 20
33.7854
 10
16.1052
 20
33.9184
 10
16.2942
 20
34.0402
 10
16.465
 20
34.1502
 10
16.6167
 20
34.2477
 10
16.7481
 20
34.332
 10
16.8583
 20
34.4025
 10
16.9462
 20
34.4585
 10
17.0108
 20
34.4993
 10
17.051
 20
34.5242
 10
17.0658
 20
34.5327
 10
17.0665
 20
34.5316
 10
17.0651
 20
34.5285
 10
17.0616
 20
34.5233
 10
17.0562
 20
34.5162
 10
17.049
 20
34.5072
 10
17.04
 20
34.4965
 10
17.0292
 20
34.4841
 10
17.0169
 20
34.4702
 10
17.003
 20
34.4547
 10
16.9876
 20
34.4378
 10
16.9708
 20
34.4196
 10
16.9528
 20
34.4002
 10
16.9335
 20
34.3796
 10
16.9131
 20
34.3579
 10
16.8915
 20
34.3353
 10
16.8691
 20
34.3117
 10
16.8457
 20
34.2873
 10
16.8214
 20
34.2622
 10
16.7964
 20
34.2365
 10
16.7708
 20
34.2102
 10
16.6842
 20
34.1207
 10
16.5529
 20
33.9856
 10
16.3821
 20
33.8102
 10
16.1769
 20
33.5996
 10
15.9425
 20
33.3592
 10
15.6841
 20
33.0944
 10
15.4068
 20
32.8102
 10
15.1157
 20
32.5121
 10
14.8162
 20
32.2053
 10
14.5132
 20
31.8951
 10
14.212
 20
31.5867
 10
13.9177
 20
31.2855
 10
13.6355
 20
30.9967
 10
13.3706
 20
30.7255
 10
13.1281
 20
30.4774
 10
12.9132
 20
30.2575
 10
12.731
 20
30.0711
 10
12.5867
 20
29.9235
 10
12.4855
 20
29.82
 10
12.4326
 20
29.7658
 10
12.291
 20
29.6242
 10
10.8515
 20
29.518
 10
10.7336
 20
29.5093
 10
10.6177
 20
29.5009
 10
10.5039
 20
29.4929
 10
10.3928
 20
29.4852
 10
10.2848
 20
29.4779
 10
10.1802
 20
29.471
 10
10.0795
 20
29.4645
 10
9.98309
 20
29.4584
 10
9.89137
 20
29.4528
 10
9.80476
 20
29.4477
 10
9.72366
 20
29.4431
 10
9.64849
 20
29.439
 10
9.57966
 20
29.4354
 10
9.51757
 20
29.4325
 10
9.46264
 20
29.4301
 10
9.41527
 20
29.4283
 10
9.37588
 20
29.4271
 10
9.34488
 20
29.4266
  0
LWPOLYLINE
100
AcDbEntity
  8
0
100
AcDbPolyline
 90
82
 70
1
 10
32.2332
 20
29.5062
 10
32.2015
 20
29.507
 10
32.1617
 20
29.5084
 10
32.1143
 20
29.5103
 10
32.0597
 20
29.5128
 10
31.9983
 20
29.5157
 10
31.9304
 20
29.5191
 10
31.8566
 20
29.523
 10
31.7771
 20
29.5273
 10
31.6924
 20
29.5321
 10
31.6029
 20
29.5374
 10
31.5089
 20
29.543
 10
31.411
 20
29.549
 10
31.3094
 20
29.5554
 10
31.2045
 20
29.5622
 10
31.0969
 20
29.5693
 10
30.9868
 20
29.5768
 10
30.8746
 20
29.5846
 10
30.7609
 20
29.5927
 10
29.3646
 20
29.6911
 10
26.9654
 20
32.0981
 10
26.7693
 20
32.2944
 10
26.5778
 20
32.4862
 10
26.3915
 20
32.673
 10
26.2111
 20
32.8542
 10
26.0372
 20
33.029
 10
25.8703
 20
33.197
 10
25.7112
 20
33.3575
 10
25.5603
 20
33.5098
 10
25.4184
 20
33.6533
 10
25.286
 20
33.7874
 10
25.1637
 20
33.9115
 10
25.0522
 20
34.0249
 10
24.9521
 20
34.1271
 10
24.864
 20
34.2173
 10
24.7884
 20
34.295
 10
24.7261
 20
34.3596
 10
24.6776
 20
34.4103
 10
24.6436
 20
34.4467
 10
24.6246
 20
34.468
 10
24.6213
 20
34.4737
 10
24.6388
 20
34.4632
 10
24.6813
 20
34.4366
 10
24.7476
 20
34.3948
 10
24.8368
 20
34.3382
 10
24.9479
 20
34.2677
 10
25.0798
 20
34.1839
 10
25.2314
 20
34.0874
 10
25.4019
 20
33.9788
 10
25.59
 20
33.859
 10
25.7948
 20
33.7284
 10
26.0153
 20
33.5878
 10
26.2504
 20
33.4378
 10
26.4992
 20
33.2792
 10
26.7605
 20
33.1124
 10
27.0333
 20
32.9383
 10
27.3167
 20
32.7575
 10
27.6095
 20
32.5706
 10
27.9109
 20
32.3783
 10
28.2196
 20
32.1813
 10
28.5347
 20
31.9801
 10
29.0012
 20
31.6817
 10
29.4295
 20
31.4075
 10
29.821
 20
31.1566
 10
30.1773
 20
30.928
 10
30.4996
 20
30.7208
 10
30.7896
 20
30.5339
 10
31.0487
 20
30.3664
 10
31.2783
 20
30.2173
 10
31.48
 20
30.0856
 10
31.6552
 20
29.9703
 10
31.8053
 20
29.8705
 10
31.9318
 20
29.7852
 10
32.0362
 20
29.7133
 10
32.12
 20
29.654
 10
32.1846
 20
29.6063
 10
32.2315
 20
29.569
 10
32.2621
 20
29.5414
 10
32.278
 20
29.5224
 10
32.2805
 20
29.511
 10
32.2712
 20
29.5062
 10
32.2566
 20
29.5059
  0
LWPOLYLINE
100
AcDbEntity
  8
0
100
AcDbPolyline
 90
100
 70
1
 10
31.802
 20
23.6128
 10
31.7985
 20
23.6146
 10
31.7949
 20
23.6173
 10
31.7912
 20
23.621
 10
31.7875
 20
23.6257
 10
31.7836
 20
23.6314
 10
31.7795
 20
23.638
 10
31.7612
 20
23.6828
 10
31.7228
 20
23.7847
 10
31.6668
 20
23.9372
 10
31.5954
 20
24.1341
 10
31.5108
 20
24.369
 10
31.4153
 20
24.6355
 10
31.311
 20
24.9272
 10
31.2004
 20
25.2378
 10
31.0856
 20
25.5609
 10
30.9688
 20
25.8902
 10
30.8524
 20
26.2193
 10
30.7386
 20
26.5418
 10
30.6295
 20
26.8513
 10
30.5276
 20
27.1416
 10
30.435
 20
27.4062
 10
30.3539
 20
27.6388
 10
30.2867
 20
27.833
 10
30.2356
 20
27.9825
 10
30.2028
 20
28.0809
 10
30.1906
 20
28.1217
 10
30.1918
 20
28.1292
 10
30.197
 20
28.1362
 10
30.207
 20
28.1429
 10
30.2221
 20
28.1493
 10
30.2432
 20
28.1555
 10
30.2707
 20
28.1615
 10
30.3053
 20
28.1674
 10
30.3477
 20
28.1733
 10
30.3984
 20
28.1792
 10
30.458
 20
28.1852
 10
30.5272
 20
28.1913
 10
30.6066
 20
28.1976
 10
30.6967
 20
28.2043
 10
30.7982
 20
28.2112
 10
30.9118
 20
28.2185
 10
31.038
 20
28.2263
 10
31.1774
 20
28.2347
 10
31.3307
 20
28.2436
 10
31.4984
 20
28.2531
 10
31.6812
 20
28.2633
 10
31.946
 20
28.2779
 10
32.1834
 20
28.291
 10
32.3948
 20
28.3027
 10
32.5817
 20
28.3129
 10
32.7457
 20
28.3218
 10
32.8882
 20
28.3294
 10
33.0107
 20
28.3357
 10
33.1148
 20
28.3407
 10
33.202
 20
28.3446
 10
33.2736
 20
28.3474
 10
33.3314
 20
28.3491
 10
33.3766
 20
28.3497
 10
33.411
 20
28.3493
 10
33.4358
 20
28.348
 10
33.4528
 20
28.3458
 10
33.4633
 20
28.3426
 10
33.4688
 20
28.3387
 10
33.4709
 20
28.334
 10
33.4711
 20
28.3285
 10
33.4708
 20
28.3223
 10
33.46
 20
28.2868
 10
33.4289
 20
28.1937
 10
33.3798
 20
28.0492
 10
33.3148
 20
27.8594
 10
33.236
 20
27.6306
 10
33.1455
 20
27.3689
 10
33.0456
 20
27.0804
 10
32.9383
 20
26.7712
 10
32.8258
 20
26.4477
 10
32.7102
 20
26.1159
 10
32.5937
 20
25.7819
 10
32.4785
 20
25.452
 10
32.3666
 20
25.1323
 10
32.2603
 20
24.8289
 10
32.1616
 20
24.548
 10
32.0727
 20
24.2958
 10
31.9958
 20
24.0785
 10
31.933
 20
23.9021
 10
31.8864
 20
23.7729
 10
31.8582
 20
23.697
 10
31.853
 20
23.684
 10
31.8481
 20
23.6721
 10
31.8435
 20
23.6613
 10
31.8391
 20
23.6516
 10
31.8349
 20
23.643
 10
31.8308
 20
23.6354
 10
31.8269
 20
23.629
 10
31.8232
 20
23.6236
 10
31.8195
 20
23.6192
 10
31.8159
 20
23.6159
 10
31.8124
 20
23.6136
 10
31.8089
 20
23.6123
 10
31.8055
 20
23.6121
  0
LWPOLYLINE
100
AcDbEntity
  8
0
100
AcDbPolyline
 90
120
 70
1
 10
9.80607
 20
23.4745
 10
9.76534
 20
23.5788
 10
9.70522
 20
23.7392
 10
9.62819
 20
23.9488
 10
9.53675
 20
24.2006
 10
9.43338
 20
24.4873
 10
9.32055
 20
24.8022
 10
9.20078
 20
25.138
 10
9.07652
 20
25.4878
 10
8.95029
 20
25.8445
 10
8.82455
 20
26.2011
 10
8.70181
 20
26.5505
 10
8.58453
 20
26.8857
 10
8.47522
 20
27.1997
 10
8.37636
 20
27.4854
 10
8.29043
 20
27.7359
 10
8.21993
 20
27.9439
 10
8.16733
 20
28.1026
 10
8.13513
 20
28.2049
 10
8.12581
 20
28.2437
 10
8.12742
 20
28.246
 10
8.12988
 20
28.2482
 10
8.13314
 20
28.2502
 10
8.13717
 20
28.2521
 10
8.14191
 20
28.2539
 10
8.14733
 20
28.2555
 10
8.15339
 20
28.257
 10
8.16004
 20
28.2583
 10
8.16725
 20
28.2594
 10
8.17497
 20
28.2604
 10
8.18317
 20
28.2612
 10
8.19179
 20
28.2618
 10
8.2008
 20
28.2622
 10
8.21017
 20
28.2625
 10
8.21983
 20
28.2625
 10
8.22977
 20
28.2623
 10
8.23993
 20
28.2619
 10
8.25027
 20
28.2613
 10
8.26075
 20
28.2605
 10
8.27133
 20
28.2594
 10
8.28642
 20
28.2575
 10
8.31133
 20
28.2552
 10
8.34561
 20
28.2526
 10
8.38882
 20
28.2497
 10
8.44052
 20
28.2465
 10
8.50025
 20
28.2431
 10
8.56758
 20
28.2394
 10
8.64205
 20
28.2354
 10
8.72323
 20
28.2313
 10
8.81066
 20
28.227
 10
8.90391
 20
28.2224
 10
9.00252
 20
28.2178
 10
9.10604
 20
28.213
 10
9.21405
 20
28.208
 10
9.32608
 20
28.203
 10
9.4417
 20
28.1979
 10
9.56046
 20
28.1927
 10
9.68191
 20
28.1874
 10
9.80561
 20
28.1821
 10
9.93111
 20
28.1768
 10
10.0567
 20
28.1715
 10
10.1797
 20
28.1662
 10
10.2995
 20
28.161
 10
10.4158
 20
28.1558
 10
10.5283
 20
28.1508
 10
10.6364
 20
28.1458
 10
10.7399
 20
28.141
 10
10.8382
 20
28.1363
 10
10.9311
 20
28.1319
 10
11.0181
 20
28.1276
 10
11.0988
 20
28.1236
 10
11.1729
 20
28.1199
 10
11.2398
 20
28.1164
 10
11.2993
 20
28.1133
 10
11.3509
 20
28.1104
 10
11.3942
 20
28.108
 10
11.4289
 20
28.1059
 10
11.4545
 20
28.1042
 10
11.4706
 20
28.1029
 10
11.4768
 20
28.1021
 10
11.4753
 20
28.0931
 10
11.4684
 20
28.069
 10
11.4563
 20
28.0304
 10
11.4394
 20
27.9779
 10
11.4178
 20
27.9121
 10
11.3916
 20
27.8336
 10
11.3612
 20
27.743
 10
11.3267
 20
27.6409
 10
11.2883
 20
27.5281
 10
11.2462
 20
27.4049
 10
11.2007
 20
27.2722
 10
11.152
 20
27.1305
 10
11.1002
 20
26.9804
 10
11.0456
 20
26.8225
 10
10.9884
 20
26.6574
 10
10.9288
 20
26.4858
 10
10.867
 20
26.3083
 10
10.8032
 20
26.1254
 10
10.7377
 20
25.9378
 10
10.6705
 20
25.7461
 10
10.6038
 20
25.5552
 10
10.5383
 20
25.3684
 10
10.4743
 20
25.1866
 10
10.4119
 20
25.0102
 10
10.3515
 20
24.84
 10
10.2931
 20
24.6765
 10
10.2371
 20
24.5202
 10
10.1837
 20
24.372
 10
10.1331
 20
24.2322
 10
10.0855
 20
24.1016
 10
10.0411
 20
23.9808
 10
10.0002
 20
23.8703
 10
9.96304
 20
23.7709
 10
9.92976
 20
23.683
 10
9.90063
 20
23.6073
 10
9.87585
 20
23.5445
 10
9.85567
 20
23.4951
 10
9.84031
 20
23.4597
 10
9.82998
 20
23.439
 10
9.82491
 20
23.4335
  0
LWPOLYLINE
100
AcDbEntity
  8
0
100
AcDbPolyline
 90
100
 70
1
 10
24.6634
 20
22.9434
 10
24.6455
 20
22.9604
 10
24.6219
 20
22.9878
 10
24.5921
 20
23.0266
 10
24.5558
 20
23.0774
 10
24.5123
 20
23.1411
 10
24.4612
 20
23.2184
 10
24.402
 20
23.3102
 10
24.3342
 20
23.4173
 10
24.2573
 20
23.5403
 10
24.1708
 20
23.6801
 10
24.0743
 20
23.8376
 10
23.9672
 20
24.0134
 10
23.849
 20
24.2084
 10
23.7194
 20
24.4233
 10
23.5777
 20
24.659
 10
23.4235
 20
24.9162
 10
23.2563
 20
25.1957
 10
23.0756
 20
25.4984
 10
22.9476
 20
25.7118
 10
22.8225
 20
25.9209
 10
22.7007
 20
26.125
 10
22.5824
 20
26.3235
 10
22.4682
 20
26.5155
 10
22.3584
 20
26.7004
 10
22.2535
 20
26.8776
 10
22.1538
 20
27.0462
 10
22.0598
 20
27.2057
 10
21.9718
 20
27.3553
 10
21.8903
 20
27.4943
 10
21.8157
 20
27.622
 10
21.7483
 20
27.7377
 10
21.6886
 20
27.8407
 10
21.637
 20
27.9303
 10
21.5938
 20
28.0059
 10
21.5596
 20
28.0666
 10
21.5346
 20
28.1119
 10
21.5193
 20
28.141
 10
21.5141
 20
28.1532
 10
21.5201
 20
28.1583
 10
21.5384
 20
28.1631
 10
21.5696
 20
28.1676
 10
21.6143
 20
28.1717
 10
21.673
 20
28.1755
 10
21.7465
 20
28.179
 10
21.8351
 20
28.1822
 10
21.9397
 20
28.1851
 10
22.0606
 20
28.1877
 10
22.1985
 20
28.1901
 10
22.354
 20
28.1922
 10
22.5276
 20
28.194
 10
22.72
 20
28.1956
 10
22.9318
 20
28.1969
 10
23.1634
 20
28.198
 10
23.4156
 20
28.1989
 10
23.6889
 20
28.1996
 10
23.9838
 20
28.2
 10
24.3009
 20
28.2003
 10
24.6409
 20
28.2004
 10
24.8963
 20
28.2004
 10
25.1462
 20
28.2002
 10
25.3897
 20
28.1999
 10
25.6261
 20
28.1995
 10
25.8546
 20
28.1991
 10
26.0743
 20
28.1985
 10
26.2844
 20
28.1979
 10
26.4841
 20
28.1971
 10
26.6725
 20
28.1963
 10
26.8489
 20
28.1955
 10
27.0124
 20
28.1946
 10
27.1621
 20
28.1936
 10
27.2974
 20
28.1926
 10
27.4172
 20
28.1915
 10
27.5209
 20
28.1905
 10
27.6076
 20
28.1893
 10
27.6764
 20
28.1882
 10
27.7266
 20
28.187
 10
27.7573
 20
28.1859
 10
27.7678
 20
28.1847
 10
27.7457
 20
28.1427
 10
27.6827
 20
28.0315
 10
27.5832
 20
27.8586
 10
27.4516
 20
27.6318
 10
27.2926
 20
27.3588
 10
27.1106
 20
27.0472
 10
26.9102
 20
26.7047
 10
26.6959
 20
26.3389
 10
26.4723
 20
25.9577
 10
26.2437
 20
25.5687
 10
26.0148
 20
25.1795
 10
25.79
 20
24.7978
 10
25.5739
 20
24.4314
 10
25.3711
 20
24.0878
 10
25.1859
 20
23.7749
 10
25.023
 20
23.5002
 10
24.8869
 20
23.2715
 10
24.782
 20
23.0964
 10
24.713
 20
22.9826
 10
24.6842
 20
22.9379
 10
24.6761
 20
22.9362
  0
LWPOLYLINE
100
AcDbEntity
  8
0
100
AcDbPolyline
 90
100
 70
1
 10
16.9735
 20
23.0126
 10
16.9074
 20
23.1161
 10
16.8052
 20
23.2802
 10
16.6712
 20
23.4976
 10
16.5101
 20
23.7607
 10
16.3263
 20
24.062
 10
16.1243
 20
24.3943
 10
15.9086
 20
24.7498
 10
15.6837
 20
25.1213
 10
15.4542
 20
25.5013
 10
15.2245
 20
25.8823
 10
14.9991
 20
26.2568
 10
14.7825
 20
26.6174
 10
14.5793
 20
26.9566
 10
14.3938
 20
27.267
 10
14.2308
 20
27.5412
 10
14.0945
 20
27.7715
 10
13.9896
 20
27.9507
 10
13.9205
 20
28.0713
 10
13.8918
 20
28.1257
 10
13.899
 20
28.1286
 10
13.9227
 20
28.1316
 10
13.9623
 20
28.1345
 10
14.017
 20
28.1374
 10
14.0863
 20
28.1402
 10
14.1694
 20
28.143
 10
14.2657
 20
28.1457
 10
14.3747
 20
28.1483
 10
14.4956
 20
28.1508
 10
14.6277
 20
28.1532
 10
14.7706
 20
28.1555
 10
14.9234
 20
28.1577
 10
15.0856
 20
28.1597
 10
15.2565
 20
28.1616
 10
15.4354
 20
28.1633
 10
15.6218
 20
28.1648
 10
15.815
 20
28.1662
 10
16.0143
 20
28.1673
 10
16.219
 20
28.1682
 10
16.4286
 20
28.1689
 10
16.6384
 20
28.1701
 10
16.847
 20
28.1713
 10
17.0537
 20
28.1725
 10
17.2578
 20
28.1737
 10
17.4583
 20
28.1748
 10
17.6545
 20
28.176
 10
17.8455
 20
28.1772
 10
18.0307
 20
28.1784
 10
18.2091
 20
28.1796
 10
18.3799
 20
28.1807
 10
18.5424
 20
28.1819
 10
18.6958
 20
28.1831
 10
18.8392
 20
28.1843
 10
18.9718
 20
28.1855
 10
19.0929
 20
28.1866
 10
19.2015
 20
28.1878
 10
19.2971
 20
28.189
 10
19.3786
 20
28.1902
 10
19.4453
 20
28.1914
 10
19.4964
 20
28.1925
 10
19.5386
 20
28.193
 10
19.58
 20
28.1934
 10
19.6205
 20
28.1935
 10
19.6601
 20
28.1935
 10
19.6984
 20
28.1933
 10
19.7354
 20
28.193
 10
19.7709
 20
28.1925
 10
19.8048
 20
28.1919
 10
19.8369
 20
28.191
 10
19.8671
 20
28.1901
 10
19.8953
 20
28.189
 10
19.9212
 20
28.1877
 10
19.9448
 20
28.1863
 10
19.9659
 20
28.1848
 10
19.9843
 20
28.1831
 10
19.9999
 20
28.1813
 10
20.0125
 20
28.1794
 10
20.0221
 20
28.1774
 10
20.0284
 20
28.1752
 10
20.0313
 20
28.1729
 10
20.0124
 20
28.1306
 10
19.9526
 20
28.0193
 10
19.8564
 20
27.8469
 10
19.7284
 20
27.6208
 10
19.573
 20
27.3489
 10
19.3947
 20
27.0387
 10
19.1979
 20
26.698
 10
18.9871
 20
26.3344
 10
18.7669
 20
25.9555
 10
18.5417
 20
25.5692
 10
18.3159
 20
25.1829
 10
18.0941
 20
24.8044
 10
17.8807
 20
24.4414
 10
17.6802
 20
24.1015
 10
17.4971
 20
23.7924
 10
17.3358
 20
23.5217
 10
17.2009
 20
23.2972
 10
17.0968
 20
23.1265
 10
17.028
 20
23.0173
 10
16.9989
 20
22.9772
  0
LWPOLYLINE
100
AcDbEntity
  8
0
100
AcDbPolyline
 90
100
 70
1
 10
20.8463
 20
16.5216
 10
20.7696
 20
16.6416
 10
20.652
 20
16.831
 10
20.4986
 20
17.0812
 10
20.3146
 20
17.3836
 10
20.1052
 20
17.7295
 10
19.8755
 20
18.1105
 10
19.6306
 20
18.5178
 10
19.3757
 20
18.9428
 10
19.1159
 20
19.377
 10
18.8564
 20
19.8116
 10
18.6024
 20
20.2382
 10
18.359
 20
20.648
 10
18.1313
 20
21.0324
 10
17.9245
 20
21.3829
 10
17.7438
 20
21.6908
 10
17.5943
 20
21.9475
 10
17.4811
 20
22.1444
 10
17.4094
 20
22.2729
 10
17.3844
 20
22.3243
 10
17.4087
 20
22.3789
 10
17.4782
 20
22.5098
 10
17.5881
 20
22.7085
 10
17.7332
 20
22.9664
 10
17.9086
 20
23.2749
 10
18.1093
 20
23.6254
 10
18.3304
 20
24.0094
 10
18.5667
 20
24.4183
 10
18.8133
 20
24.8436
 10
19.0653
 20
25.2766
 10
19.3175
 20
25.7089
 10
19.5652
 20
26.1318
 10
19.8031
 20
26.5367
 10
20.0264
 20
26.9151
 10
20.23
 20
27.2585
 10
20.409
 20
27.5582
 10
20.5584
 20
27.8057
 10
20.6731
 20
27.9924
 10
20.7482
 20
28.1098
 10
20.7786
 20
28.1493
 10
20.7879
 20
28.1384
 10
20.8083
 20
28.1085
 10
20.8394
 20
28.0605
 10
20.8808
 20
27.9951
 10
20.9318
 20
27.9131
 10
20.9922
 20
27.8152
 10
21.0613
 20
27.7023
 10
21.1388
 20
27.575
 10
21.2242
 20
27.4342
 10
21.317
 20
27.2806
 10
21.4167
 20
27.1149
 10
21.5228
 20
26.9381
 10
21.635
 20
26.7508
 10
21.7527
 20
26.5538
 10
21.8754
 20
26.3479
 10
22.0027
 20
26.1338
 10
22.1342
 20
25.9123
 10
22.2693
 20
25.6842
 10
22.4075
 20
25.4503
 10
22.5485
 20
25.2112
 10
22.6914
 20
24.9683
 10
22.8307
 20
24.7309
 10
22.966
 20
24.4997
 10
23.0968
 20
24.2755
 10
23.2229
 20
24.0589
 10
23.3437
 20
23.8507
 10
23.4588
 20
23.6517
 10
23.5679
 20
23.4624
 10
23.6706
 20
23.2838
 10
23.7663
 20
23.1164
 10
23.8548
 20
22.961
 10
23.9356
 20
22.8183
 10
24.0082
 20
22.6891
 10
24.0724
 20
22.5741
 10
24.1276
 20
22.474
 10
24.1735
 20
22.3895
 10
24.2096
 20
22.3213
 10
24.2356
 20
22.2702
 10
24.2511
 20
22.2369
 10
24.2555
 20
22.2221
 10
24.228
 20
22.1671
 10
24.156
 20
22.0374
 10
24.0444
 20
21.8413
 10
23.8981
 20
21.5871
 10
23.7221
 20
21.2834
 10
23.5213
 20
20.9384
 10
23.3006
 20
20.5606
 10
23.0651
 20
20.1583
 10
22.8197
 20
19.74
 10
22.5692
 20
19.314
 10
22.3186
 20
18.8888
 10
22.073
 20
18.4727
 10
21.8372
 20
18.0742
 10
21.6161
 20
17.7015
 10
21.4148
 20
17.3632
 10
21.2381
 20
17.0675
 10
21.0911
 20
16.8229
 10
20.9786
 20
16.6379
 10
20.9055
 20
16.5207
 10
20.877
 20
16.4797
  0
LWPOLYLINE
100
AcDbEntity
  8
0
100
AcDbPolyline
 90
82
 70
1
 10
28.9762
 20
15.6748
 10
28.9009
 20
15.7911
 10
28.786
 20
15.9748
 10
28.6363
 20
16.2176
 10
28.4569
 20
16.511
 10
28.2528
 20
16.8466
 10
28.029
 20
17.2163
 10
27.7905
 20
17.6115
 10
27.5423
 20
18.024
 10
27.2894
 20
18.4453
 10
27.0369
 20
18.8672
 10
26.7897
 20
19.2812
 10
26.5528
 20
19.6791
 10
26.3312
 20
20.0525
 10
26.1301
 20
20.3929
 10
25.9542
 20
20.6922
 10
25.8088
 20
20.9418
 10
25.6986
 20
21.1335
 10
25.6289
 20
21.2589
 10
25.6046
 20
21.3096
 10
25.6285
 20
21.3601
 10
25.6971
 20
21.487
 10
25.8054
 20
21.6818
 10
25.9484
 20
21.9359
 10
26.1213
 20
22.2408
 10
26.3191
 20
22.5879
 10
26.5369
 20
22.9687
 10
26.7698
 20
23.3747
 10
27.0127
 20
23.7973
 10
27.2609
 20
24.228
 10
27.5093
 20
24.6582
 10
27.7531
 20
25.0793
 10
27.9872
 20
25.483
 10
28.2069
 20
25.8605
 10
28.4071
 20
26.2034
 10
28.5829
 20
26.5031
 10
28.7294
 20
26.751
 10
28.8417
 20
26.9387
 10
28.9148
 20
27.0576
 10
28.9438
 20
27.0991
 10
28.9491
 20
27.0898
 10
28.9612
 20
27.0621
 10
28.9799
 20
27.017
 10
29.0049
 20
26.9551
 10
29.0359
 20
26.8771
 10
29.0726
 20
26.7838
 10
29.1147
 20
26.676
 10
29.1619
 20
26.5544
 10
29.214
 20
26.4197
 10
29.2707
 20
26.2727
 10
29.3316
 20
26.1141
 10
29.3966
 20
25.9446
 10
29.4652
 20
25.765
 10
29.5373
 20
25.5761
 10
29.6125
 20
25.3785
 10
29.6905
 20
25.173
 10
29.7711
 20
24.9604
 10
29.854
 20
24.7413
 10
29.9388
 20
24.5166
 10
30.0254
 20
24.287
 10
31.0834
 20
21.4709
 10
30.0608
 20
18.5525
 10
29.9777
 20
18.3141
 10
29.8961
 20
18.0808
 10
29.8163
 20
17.8535
 10
29.7386
 20
17.6328
 10
29.6632
 20
17.4195
 10
29.5905
 20
17.2144
 10
29.5207
 20
17.0183
 10
29.4541
 20
16.832
 10
29.391
 20
16.6561
 10
29.3317
 20
16.4915
 10
29.2764
 20
16.339
 10
29.2254
 20
16.1992
 10
29.179
 20
16.073
 10
29.1375
 20
15.9612
 10
29.1012
 20
15.8645
 10
29.0703
 20
15.7836
 10
29.0451
 20
15.7193
 10
29.0259
 20
15.6725
 10
29.013
 20
15.6438
 10
29.0067
 20
15.6341
  0
LWPOLYLINE
100
AcDbEntity
  8
0
100
AcDbPolyline
 90
160
 70
1
 10
12.6196
 20
15.5751
 10
12.6074
 20
15.6054
 10
12.5889
 20
15.6533
 10
12.5645
 20
15.7181
 10
12.5344
 20
15.7991
 10
12.4989
 20
15.8954
 10
12.4582
 20
16.0064
 10
12.4127
 20
16.1313
 10
12.3626
 20
16.2694
 10
12.3082
 20
16.4198
 10
12.2497
 20
16.5818
 10
12.1875
 20
16.7547
 10
12.1218
 20
16.9377
 10
12.0528
 20
17.13
 10
11.9809
 20
17.331
 10
11.9064
 20
17.5398
 10
11.8294
 20
17.7557
 10
11.7504
 20
17.978
 10
11.6694
 20
18.2058
 10
11.5869
 20
18.4384
 10
11.4812
 20
18.7361
 10
11.3821
 20
19.0158
 10
11.2895
 20
19.2778
 10
11.2034
 20
19.5225
 10
11.1236
 20
19.7502
 10
11.05
 20
19.9614
 10
10.9824
 20
20.1563
 10
10.9208
 20
20.3353
 10
10.8651
 20
20.4987
 10
10.8151
 20
20.6469
 10
10.7707
 20
20.7802
 10
10.7317
 20
20.899
 10
10.6982
 20
21.0037
 10
10.6699
 20
21.0945
 10
10.6467
 20
21.1718
 10
10.6285
 20
21.236
 10
10.6153
 20
21.2875
 10
10.6068
 20
21.3265
 10
10.603
 20
21.3534
 10
10.6037
 20
21.3686
 10
10.6094
 20
21.3848
 10
10.6216
 20
21.4187
 10
10.6401
 20
21.4696
 10
10.6645
 20
21.5367
 10
10.6947
 20
21.6193
 10
10.7303
 20
21.7166
 10
10.7711
 20
21.8279
 10
10.8167
 20
21.9525
 10
10.8671
 20
22.0895
 10
10.9218
 20
22.2383
 10
10.9805
 20
22.3981
 10
11.0432
 20
22.5682
 10
11.1094
 20
22.7477
 10
11.1788
 20
22.9361
 10
11.2513
 20
23.1324
 10
11.3266
 20
23.336
 10
11.4044
 20
23.5462
 10
11.4843
 20
23.7621
 10
11.5663
 20
23.9831
 10
11.6499
 20
24.2083
 10
11.7329
 20
24.4334
 10
11.8143
 20
24.654
 10
11.8938
 20
24.8694
 10
11.9712
 20
25.0788
 10
12.046
 20
25.2815
 10
12.1181
 20
25.4767
 10
12.1872
 20
25.6638
 10
12.253
 20
25.8419
 10
12.3152
 20
26.0104
 10
12.3736
 20
26.1685
 10
12.4278
 20
26.3154
 10
12.4776
 20
26.4506
 10
12.5228
 20
26.5731
 10
12.5629
 20
26.6823
 10
12.5979
 20
26.7774
 10
12.6273
 20
26.8578
 10
12.6509
 20
26.9226
 10
12.6685
 20
26.9712
 10
12.6797
 20
27.0027
 10
12.6843
 20
27.0165
 10
12.6867
 20
27.0216
 10
12.6891
 20
27.0263
 10
12.6916
 20
27.0306
 10
12.6942
 20
27.0344
 10
12.6968
 20
27.0379
 10
12.6994
 20
27.0409
 10
12.7021
 20
27.0434
 10
12.7048
 20
27.0456
 10
12.7076
 20
27.0472
 10
12.7103
 20
27.0485
 10
12.7132
 20
27.0493
 10
12.716
 20
27.0497
 10
12.7189
 20
27.0496
 10
12.7218
 20
27.0491
 10
12.7247
 20
27.0481
 10
12.7276
 20
27.0466
 10
12.7305
 20
27.0447
 10
12.7335
 20
27.0423
 10
12.7364
 20
27.0395
 10
12.7393
 20
27.0362
 10
12.7477
 20
27.024
 10
12.7667
 20
26.9938
 10
12.7959
 20
26.9463
 10
12.8347
 20
26.8822
 10
12.8828
 20
26.8023
 10
12.9397
 20
26.7074
 10
13.005
 20
26.5981
 10
13.0782
 20
26.4752
 10
13.1589
 20
26.3394
 10
13.2467
 20
26.1916
 10
13.3411
 20
26.0323
 10
13.4416
 20
25.8624
 10
13.5479
 20
25.6826
 10
13.6595
 20
25.4936
 10
13.7758
 20
25.2962
 10
13.8966
 20
25.091
 10
14.0214
 20
24.879
 10
14.1496
 20
24.6606
 10
14.2809
 20
24.4369
 10
14.4149
 20
24.2083
 10
14.5492
 20
23.9803
 10
14.6807
 20
23.7569
 10
14.8088
 20
23.5389
 10
14.9332
 20
23.327
 10
15.0534
 20
23.122
 10
15.1689
 20
22.9246
 10
15.2794
 20
22.7356
 10
15.3844
 20
22.5556
 10
15.4834
 20
22.3855
 10
15.5761
 20
22.226
 10
15.662
 20
22.0778
 10
15.7407
 20
21.9417
 10
15.8118
 20
21.8184
 10
15.8748
 20
21.7086
 10
15.9292
 20
21.6132
 10
15.9748
 20
21.5328
 10
16.0109
 20
21.4682
 10
16.0373
 20
21.4201
 10
16.0534
 20
21.3893
 10
16.0589
 20
21.3765
 10
16.0342
 20
21.3234
 10
15.9635
 20
21.1937
 10
15.8519
 20
20.9959
 10
15.7044
 20
20.7387
 10
15.5263
 20
20.4305
 10
15.3224
 20
20.0802
 10
15.0981
 20
19.6962
 10
14.8582
 20
19.2872
 10
14.608
 20
18.8618
 10
14.3524
 20
18.4286
 10
14.0967
 20
17.9962
 10
13.8458
 20
17.5733
 10
13.6049
 20
17.1684
 10
13.3791
 20
16.7902
 10
13.1734
 20
16.4473
 10
12.993
 20
16.1483
 10
12.8428
 20
15.9017
 10
12.7281
 20
15.7163
 10
12.6539
 20
15.6006
 10
12.6253
 20
15.5633
  0
LWPOLYLINE
100
AcDbEntity
  8
0
100
AcDbPolyline
 90
100
 70
1
 10
33.5747
 20
18.6686
 10
33.5433
 20
18.7373
 10
33.4964
 20
18.8512
 10
33.4362
 20
19.0049
 10
33.3645
 20
19.1929
 10
33.2834
 20
19.4096
 10
33.1948
 20
19.6496
 10
33.1007
 20
19.9073
 10
33.0031
 20
20.1771
 10
32.9039
 20
20.4537
 10
32.8052
 20
20.7313
 10
32.7089
 20
21.0046
 10
32.617
 20
21.2681
 10
32.5315
 20
21.5161
 10
32.4544
 20
21.7432
 10
32.3876
 20
21.9438
 10
32.3331
 20
22.1125
 10
32.2929
 20
22.2437
 10
32.269
 20
22.3319
 10
32.2633
 20
22.3715
 10
32.2734
 20
22.4021
 10
32.2989
 20
22.4745
 10
32.3384
 20
22.5844
 10
32.3902
 20
22.7273
 10
32.4527
 20
22.899
 10
32.5242
 20
23.0951
 10
32.6033
 20
23.3113
 10
32.6883
 20
23.5432
 10
32.7775
 20
23.7864
 10
32.8695
 20
24.0367
 10
32.9626
 20
24.2897
 10
33.0551
 20
24.541
 10
33.1455
 20
24.7863
 10
33.2322
 20
25.0213
 10
33.3136
 20
25.2415
 10
33.3881
 20
25.4428
 10
33.4541
 20
25.6206
 10
33.5099
 20
25.7707
 10
33.554
 20
25.8887
 10
33.5848
 20
25.9703
 10
33.5884
 20
25.9791
 10
33.592
 20
25.9876
 10
33.5956
 20
25.996
 10
33.5993
 20
26.004
 10
33.6029
 20
26.0118
 10
33.6065
 20
26.0193
 10
33.6101
 20
26.0264
 10
33.6135
 20
26.0332
 10
33.6169
 20
26.0396
 10
33.6202
 20
26.0456
 10
33.6234
 20
26.0511
 10
33.6265
 20
26.0561
 10
33.6294
 20
26.0607
 10
33.6321
 20
26.0647
 10
33.6346
 20
26.0682
 10
33.6369
 20
26.0711
 10
33.639
 20
26.0735
 10
33.6409
 20
26.0751
 10
33.6425
 20
26.0762
 10
33.6438
 20
26.0765
 10
33.645
 20
26.0642
 10
33.646
 20
26.028
 10
33.6468
 20
25.9689
 10
33.6476
 20
25.8877
 10
33.6482
 20
25.7855
 10
33.6487
 20
25.6633
 10
33.649
 20
25.522
 10
33.6492
 20
25.3627
 10
33.6493
 20
25.1861
 10
33.6492
 20
24.9934
 10
33.649
 20
24.7856
 10
33.6487
 20
24.5635
 10
33.6481
 20
24.3281
 10
33.6474
 20
24.0805
 10
33.6466
 20
23.8216
 10
33.6456
 20
23.5523
 10
33.6444
 20
23.2736
 10
33.6431
 20
22.9866
 10
33.6416
 20
22.6921
 10
33.6399
 20
22.3912
 10
33.638
 20
22.0895
 10
33.636
 20
21.7941
 10
33.6339
 20
21.5057
 10
33.6316
 20
21.2255
 10
33.6291
 20
20.9545
 10
33.6266
 20
20.6935
 10
33.624
 20
20.4436
 10
33.6213
 20
20.2058
 10
33.6186
 20
19.981
 10
33.6158
 20
19.7703
 10
33.613
 20
19.5746
 10
33.6102
 20
19.3948
 10
33.6073
 20
19.2321
 10
33.6045
 20
19.0873
 10
33.6017
 20
18.9615
 10
33.599
 20
18.8556
 10
33.5963
 20
18.7706
 10
33.5937
 20
18.7074
 10
33.5912
 20
18.6672
 10
33.5888
 20
18.6508
  0
LWPOLYLINE
100
AcDbEntity
  8
0
100
AcDbPolyline
 90
102
 70
1
 10
8.09145
 20
18.4485
 10
8.08868
 20
18.4549
 10
8.08604
 20
18.4654
 10
8.08352
 20
18.4799
 10
8.08113
 20
18.4981
 10
8.07887
 20
18.5199
 10
8.07675
 20
18.5451
 10
8.07477
 20
18.5735
 10
8.07293
 20
18.6051
 10
8.07124
 20
18.6395
 10
8.06969
 20
18.6767
 10
8.06829
 20
18.7165
 10
8.06705
 20
18.7586
 10
8.06596
 20
18.803
 10
8.06503
 20
18.8495
 10
8.06426
 20
18.8979
 10
8.06366
 20
18.948
 10
8.06323
 20
18.9997
 10
8.06297
 20
19.0527
 10
8.06288
 20
19.1071
 10
8.06268
 20
19.171
 10
8.06208
 20
19.2535
 10
8.0611
 20
19.3536
 10
8.05976
 20
19.4705
 10
8.05809
 20
19.603
 10
8.05608
 20
19.7502
 10
8.05377
 20
19.9112
 10
8.05117
 20
20.085
 10
8.0483
 20
20.2705
 10
8.04518
 20
20.4669
 10
8.04182
 20
20.6732
 10
8.03824
 20
20.8883
 10
8.03446
 20
21.1113
 10
8.0305
 20
21.3413
 10
8.02637
 20
21.5772
 10
8.0221
 20
21.8181
 10
8.0177
 20
22.063
 10
8.01318
 20
22.3109
 10
8.00857
 20
22.5609
 10
8.00388
 20
22.812
 10
7.99922
 20
23.0612
 10
7.99469
 20
23.3053
 10
7.99031
 20
23.5438
 10
7.98607
 20
23.7756
 10
7.982
 20
24
 10
7.97811
 20
24.2161
 10
7.97441
 20
24.4233
 10
7.97091
 20
24.6205
 10
7.96762
 20
24.8071
 10
7.96455
 20
24.9821
 10
7.96172
 20
25.1449
 10
7.95914
 20
25.2944
 10
7.95682
 20
25.43
 10
7.95477
 20
25.5509
 10
7.953
 20
25.6561
 10
7.95152
 20
25.7448
 10
7.95036
 20
25.8163
 10
7.94951
 20
25.8698
 10
7.94899
 20
25.9044
 10
7.94882
 20
25.9192
 10
7.94967
 20
25.9333
 10
7.95247
 20
25.9408
 10
7.95755
 20
25.9409
 10
7.96527
 20
25.9326
 10
7.97598
 20
25.9152
 10
7.99002
 20
25.8877
 10
8.00774
 20
25.8494
 10
8.02949
 20
25.7992
 10
8.05562
 20
25.7364
 10
8.08648
 20
25.6601
 10
8.12241
 20
25.5695
 10
8.16376
 20
25.4636
 10
8.21088
 20
25.3416
 10
8.26411
 20
25.2026
 10
8.32382
 20
25.0459
 10
8.39033
 20
24.8704
 10
8.46401
 20
24.6754
 10
8.5452
 20
24.46
 10
8.63425
 20
24.2233
 10
8.73151
 20
23.9644
 10
9.41194
 20
22.1474
 10
8.76691
 20
20.2988
 10
8.71422
 20
20.1475
 10
8.66248
 20
19.9994
 10
8.61186
 20
19.8551
 10
8.56254
 20
19.715
 10
8.5147
 20
19.5796
 10
8.4685
 20
19.4494
 10
8.42414
 20
19.3249
 10
8.38178
 20
19.2066
 10
8.3416
 20
19.095
 10
8.30378
 20
18.9905
 10
8.2685
 20
18.8937
 10
8.23594
 20
18.805
 10
8.20626
 20
18.7249
 10
8.17965
 20
18.6539
 10
8.15629
 20
18.5925
 10
8.13635
 20
18.5412
 10
8.12001
 20
18.5004
 10
8.10744
 20
18.4707
 10
8.09883
 20
18.4525
 10
8.09434
 20
18.4463
  0
LWPOLYLINE
100
AcDbEntity
  8
0
100
AcDbPolyline
 90
100
 70
1
 10
13.4919
 20
15.4928
 10
13.4434
 20
15.4965
 10
13.4458
 20
15.5064
 10
13.4575
 20
15.5322
 10
13.4782
 20
15.5732
 10
13.5074
 20
15.6288
 10
13.5448
 20
15.6983
 10
13.5901
 20
15.7812
 10
13.6428
 20
15.8766
 10
13.7026
 20
15.9841
 10
13.7692
 20
16.1029
 10
13.8421
 20
16.2324
 10
13.921
 20
16.372
 10
14.0055
 20
16.521
 10
14.0953
 20
16.6788
 10
14.1899
 20
16.8447
 10
14.2891
 20
17.018
 10
14.3924
 20
17.1982
 10
14.4994
 20
17.3846
 10
14.6099
 20
17.5765
 10
14.7234
 20
17.7733
 10
14.8396
 20
17.9743
 10
15.0844
 20
18.3969
 10
15.3031
 20
18.7744
 10
15.4971
 20
19.1092
 10
15.6678
 20
19.4039
 10
15.8169
 20
19.661
 10
15.9457
 20
19.8831
 10
16.0559
 20
20.0725
 10
16.1488
 20
20.232
 10
16.226
 20
20.3639
 10
16.289
 20
20.4709
 10
16.3392
 20
20.5553
 10
16.3782
 20
20.6198
 10
16.4074
 20
20.6669
 10
16.4283
 20
20.699
 10
16.4425
 20
20.7188
 10
16.4514
 20
20.7286
 10
16.4565
 20
20.7311
 10
16.4593
 20
20.7288
 10
16.4613
 20
20.7241
 10
16.464
 20
20.7196
 10
16.4707
 20
20.7094
 10
16.487
 20
20.6829
 10
16.5124
 20
20.6406
 10
16.5467
 20
20.5833
 10
16.5894
 20
20.5116
 10
16.6401
 20
20.4262
 10
16.6984
 20
20.3278
 10
16.764
 20
20.217
 10
16.8364
 20
20.0945
 10
16.9153
 20
19.961
 10
17.0003
 20
19.8172
 10
17.091
 20
19.6636
 10
17.1869
 20
19.5011
 10
17.2878
 20
19.3302
 10
17.3932
 20
19.1516
 10
17.5027
 20
18.966
 10
17.616
 20
18.7741
 10
17.7326
 20
18.5765
 10
17.8522
 20
18.374
 10
17.9743
 20
18.167
 10
18.0958
 20
17.9601
 10
18.2145
 20
17.7574
 10
18.3301
 20
17.5597
 10
18.4421
 20
17.3676
 10
18.5503
 20
17.1819
 10
18.6541
 20
17.0031
 10
18.7532
 20
16.8319
 10
18.8473
 20
16.6691
 10
18.9359
 20
16.5152
 10
19.0186
 20
16.3711
 10
19.095
 20
16.2373
 10
19.1648
 20
16.1145
 10
19.2276
 20
16.0035
 10
19.283
 20
15.9048
 10
19.3305
 20
15.8192
 10
19.3699
 20
15.7473
 10
19.4006
 20
15.6898
 10
19.4224
 20
15.6474
 10
19.4348
 20
15.6207
 10
19.4374
 20
15.6105
 10
19.3895
 20
15.6052
 10
19.2621
 20
15.5988
 10
19.064
 20
15.5916
 10
18.8042
 20
15.5836
 10
18.4915
 20
15.575
 10
18.1345
 20
15.5661
 10
17.7423
 20
15.5569
 10
17.3236
 20
15.5477
 10
16.8871
 20
15.5387
 10
16.4419
 20
15.5299
 10
15.9966
 20
15.5216
 10
15.5601
 20
15.514
 10
15.1412
 20
15.5071
 10
14.7487
 20
15.5013
 10
14.3916
 20
15.4966
 10
14.0785
 20
15.4932
 10
13.8183
 20
15.4914
 10
13.6198
 20
15.4912
  0
LWPOLYLINE
100
AcDbEntity
  8
0
100
AcDbPolyline
 90
62
 70
1
 10
27.425
 20
15.5422
 10
27.1568
 20
15.5439
 10
26.848
 20
15.5466
 10
26.5059
 20
15.5501
 10
26.1379
 20
15.5543
 10
25.7512
 20
15.5591
 10
25.3532
 20
15.5645
 10
24.9512
 20
15.5702
 10
24.5524
 20
15.5762
 10
24.1642
 20
15.5825
 10
23.7939
 20
15.5888
 10
23.4488
 20
15.595
 10
23.1362
 20
15.6012
 10
22.8634
 20
15.6071
 10
22.6378
 20
15.6127
 10
22.4665
 20
15.6178
 10
22.357
 20
15.6223
 10
22.3165
 20
15.6263
 10
22.3335
 20
15.6664
 10
22.3901
 20
15.7737
 10
22.4818
 20
15.9405
 10
22.6044
 20
16.1595
 10
22.7534
 20
16.4231
 10
22.9246
 20
16.7238
 10
23.1136
 20
17.0542
 10
23.3161
 20
17.4067
 10
23.5278
 20
17.7739
 10
23.7442
 20
18.1484
 10
23.9611
 20
18.5225
 10
24.1742
 20
18.8888
 10
24.379
 20
19.2399
 10
24.5713
 20
19.5682
 10
24.7468
 20
19.8663
 10
24.901
 20
20.1266
 10
25.0297
 20
20.3417
 10
25.1285
 20
20.5042
 10
25.1931
 20
20.6064
 10
25.2191
 20
20.641
 10
25.2264
 20
20.6314
 10
25.2435
 20
20.6054
 10
25.2698
 20
20.5637
 10
25.3049
 20
20.5069
 10
25.3486
 20
20.4358
 10
25.4003
 20
20.3509
 10
25.4597
 20
20.2529
 10
25.5263
 20
20.1426
 10
25.5998
 20
20.0205
 10
25.6798
 20
19.8873
 10
25.7658
 20
19.7437
 10
25.8574
 20
19.5904
 10
25.9543
 20
19.4279
 10
26.056
 20
19.2571
 10
26.1621
 20
19.0785
 10
26.2723
 20
18.8928
 10
26.3861
 20
18.7007
 10
26.5031
 20
18.5028
 10
26.6229
 20
18.2998
 10
26.7452
 20
18.0923
 10
28.2397
 20
15.5555
 10
27.9133
 20
15.5437
 10
27.8106
 20
15.542
 10
27.6454
 20
15.5415
  0
LWPOLYLINE
100
AcDbEntity
  8
0
100
AcDbPolyline
 90
100
 70
1
 10
32.9574
 20
15.475
 10
32.8716
 20
15.4753
 10
32.7781
 20
15.4758
 10
32.6773
 20
15.4765
 10
32.5698
 20
15.4773
 10
32.4561
 20
15.4783
 10
32.3365
 20
15.4795
 10
32.2116
 20
15.4807
 10
32.0819
 20
15.4821
 10
31.9478
 20
15.4836
 10
31.8097
 20
15.4852
 10
31.6683
 20
15.4869
 10
31.5239
 20
15.4886
 10
31.3023
 20
15.4921
 10
31.0997
 20
15.4954
 10
30.9151
 20
15.4986
 10
30.7479
 20
15.5017
 10
30.5971
 20
15.5049
 10
30.462
 20
15.508
 10
30.3418
 20
15.5112
 10
30.2356
 20
15.5145
 10
30.1427
 20
15.5179
 10
30.0622
 20
15.5215
 10
29.9935
 20
15.5253
 10
29.9355
 20
15.5294
 10
29.8876
 20
15.5337
 10
29.8489
 20
15.5383
 10
29.8187
 20
15.5434
 10
29.7961
 20
15.5488
 10
29.7803
 20
15.5546
 10
29.7705
 20
15.5609
 10
29.766
 20
15.5677
 10
29.7658
 20
15.5751
 10
29.7804
 20
15.6237
 10
29.8178
 20
15.7331
 10
29.8754
 20
15.8964
 10
29.9507
 20
16.1068
 10
30.0413
 20
16.3574
 10
30.1445
 20
16.6414
 10
30.2579
 20
16.952
 10
30.3789
 20
17.2823
 10
30.5049
 20
17.6256
 10
30.6335
 20
17.9748
 10
30.7622
 20
18.3233
 10
30.8883
 20
18.6641
 10
31.0095
 20
18.9904
 10
31.123
 20
19.2955
 10
31.2265
 20
19.5723
 10
31.3174
 20
19.8142
 10
31.3931
 20
20.0142
 10
31.4512
 20
20.1656
 10
31.4891
 20
20.2614
 10
31.5042
 20
20.2949
 10
31.509
 20
20.2869
 10
31.5195
 20
20.2634
 10
31.5355
 20
20.2249
 10
31.5569
 20
20.1722
 10
31.5833
 20
20.1058
 10
31.6146
 20
20.0264
 10
31.6504
 20
19.9346
 10
31.6906
 20
19.8309
 10
31.7348
 20
19.7162
 10
31.783
 20
19.5908
 10
31.8348
 20
19.4556
 10
31.8899
 20
19.3111
 10
31.9482
 20
19.1579
 10
32.0095
 20
18.9967
 10
32.0734
 20
18.8281
 10
32.1397
 20
18.6526
 10
32.2082
 20
18.4711
 10
32.2787
 20
18.284
 10
32.3509
 20
18.092
 10
32.4246
 20
17.8957
 10
32.4982
 20
17.6998
 10
32.5701
 20
17.5081
 10
32.6401
 20
17.321
 10
32.708
 20
17.1393
 10
32.7736
 20
16.9636
 10
32.8365
 20
16.7945
 10
32.8966
 20
16.6326
 10
32.9536
 20
16.4787
 10
33.0072
 20
16.3333
 10
33.0573
 20
16.197
 10
33.1036
 20
16.0706
 10
33.1458
 20
15.9547
 10
33.1838
 20
15.8499
 10
33.2172
 20
15.7568
 10
33.2459
 20
15.6761
 10
33.2696
 20
15.6084
 10
33.288
 20
15.5544
 10
33.301
 20
15.5147
 10
33.3082
 20
15.4899
 10
33.3095
 20
15.4807
 10
33.3024
 20
15.4791
 10
33.2838
 20
15.4778
 10
33.2542
 20
15.4767
 10
33.2141
 20
15.4759
 10
33.1638
 20
15.4753
 10
33.104
 20
15.475
 10
33.035
 20
15.4749
  0
LWPOLYLINE
100
AcDbEntity
  8
0
100
AcDbPolyline
 90
140
 70
1
 10
8.73056
 20
15.3844
 10
8.66106
 20
15.3853
 10
8.6027
 20
15.3868
 10
8.55455
 20
15.3891
 10
8.51566
 20
15.3922
 10
8.48509
 20
15.3961
 10
8.46189
 20
15.4008
 10
8.44513
 20
15.4064
 10
8.43385
 20
15.413
 10
8.42711
 20
15.4205
 10
8.42398
 20
15.429
 10
8.4235
 20
15.4386
 10
8.42473
 20
15.4493
 10
8.44027
 20
15.5005
 10
8.47817
 20
15.611
 10
8.53594
 20
15.7739
 10
8.61109
 20
15.9826
 10
8.70115
 20
16.2304
 10
8.80363
 20
16.5107
 10
8.91604
 20
16.8167
 10
9.0359
 20
17.1418
 10
9.16073
 20
17.4792
 10
9.28804
 20
17.8224
 10
9.41536
 20
18.1646
 10
9.54019
 20
18.4992
 10
9.66005
 20
18.8194
 10
9.77246
 20
19.1186
 10
9.87494
 20
19.3901
 10
9.96499
 20
19.6272
 10
10.0401
 20
19.8232
 10
10.0979
 20
19.9715
 10
10.1358
 20
20.0654
 10
10.1514
 20
20.0982
 10
10.1538
 20
20.098
 10
10.1563
 20
20.0973
 10
10.1589
 20
20.0962
 10
10.1616
 20
20.0946
 10
10.1644
 20
20.0927
 10
10.1672
 20
20.0904
 10
10.1701
 20
20.0878
 10
10.173
 20
20.0849
 10
10.1759
 20
20.0816
 10
10.1789
 20
20.078
 10
10.1818
 20
20.0742
 10
10.1848
 20
20.0702
 10
10.1877
 20
20.0659
 10
10.1906
 20
20.0614
 10
10.1934
 20
20.0567
 10
10.1962
 20
20.0519
 10
10.1989
 20
20.0469
 10
10.2015
 20
20.0418
 10
10.204
 20
20.0366
 10
10.2064
 20
20.0313
 10
10.2115
 20
20.0182
 10
10.2217
 20
19.9911
 10
10.237
 20
19.9505
 10
10.257
 20
19.897
 10
10.2816
 20
19.8313
 10
10.3105
 20
19.7539
 10
10.3436
 20
19.6655
 10
10.3806
 20
19.5665
 10
10.4213
 20
19.4577
 10
10.4655
 20
19.3396
 10
10.513
 20
19.2128
 10
10.5635
 20
19.0779
 10
10.6169
 20
18.9354
 10
10.6729
 20
18.786
 10
10.7313
 20
18.6304
 10
10.7919
 20
18.4689
 10
10.8545
 20
18.3023
 10
10.9189
 20
18.1312
 10
10.9848
 20
17.9561
 10
11.052
 20
17.7777
 10
11.1193
 20
17.5992
 10
11.1852
 20
17.4242
 10
11.2496
 20
17.2532
 10
11.3122
 20
17.0868
 10
11.3728
 20
16.9256
 10
11.4312
 20
16.7701
 10
11.4872
 20
16.621
 10
11.5406
 20
16.4789
 10
11.5911
 20
16.3442
 10
11.6386
 20
16.2177
 10
11.6828
 20
16.0999
 10
11.7235
 20
15.9913
 10
11.7605
 20
15.8927
 10
11.7936
 20
15.8045
 10
11.8225
 20
15.7273
 10
11.8471
 20
15.6618
 10
11.8671
 20
15.6086
 10
11.8824
 20
15.5681
 10
11.8926
 20
15.541
 10
11.8977
 20
15.5279
 10
11.9007
 20
15.52
 10
11.9025
 20
15.5127
 10
11.9031
 20
15.5059
 10
11.9021
 20
15.4997
 10
11.8995
 20
15.4939
 10
11.8951
 20
15.4887
 10
11.8888
 20
15.4838
 10
11.8803
 20
15.4793
 10
11.8695
 20
15.4752
 10
11.8564
 20
15.4714
 10
11.8406
 20
15.4678
 10
11.8221
 20
15.4645
 10
11.8006
 20
15.4613
 10
11.7761
 20
15.4584
 10
11.7483
 20
15.4555
 10
11.7172
 20
15.4527
 10
11.6825
 20
15.4499
 10
11.6441
 20
15.4471
 10
11.6018
 20
15.4443
 10
11.5555
 20
15.4414
 10
11.521
 20
15.4396
 10
11.4782
 20
15.4376
 10
11.4275
 20
15.4356
 10
11.3693
 20
15.4335
 10
11.3041
 20
15.4313
 10
11.2323
 20
15.4291
 10
11.1545
 20
15.4268
 10
11.0711
 20
15.4245
 10
10.9826
 20
15.4221
 10
10.8893
 20
15.4198
 10
10.7919
 20
15.4174
 10
10.6906
 20
15.4151
 10
10.5861
 20
15.4127
 10
10.4788
 20
15.4105
 10
10.3691
 20
15.4082
 10
10.2575
 20
15.406
 10
10.1444
 20
15.4039
 10
10.0304
 20
15.4019
 10
9.9159
 20
15.4
 10
9.80131
 20
15.3981
 10
9.60862
 20
15.3948
 10
9.43463
 20
15.3918
 10
9.2784
 20
15.3893
 10
9.13898
 20
15.3872
 10
9.01543
 20
15.3857
 10
8.90681
 20
15.3846
 10
8.81217
 20
15.3842
  0
LWPOLYLINE
100
AcDbEntity
  8
0
100
AcDbPolyline
 90
102
 70
1
 10
24.1761
 20
8.88191
 10
24.1804
 20
8.88778
 10
24.1859
 20
8.89491
 10
24.1886
 20
8.90063
 10
24.1966
 20
8.91108
 10
24.22
 20
8.93841
 10
24.2583
 20
8.98195
 10
24.3108
 20
9.041
 10
24.3769
 20
9.11486
 10
24.4559
 20
9.20286
 10
24.5473
 20
9.3043
 10
24.6504
 20
9.41848
 10
24.7646
 20
9.54472
 10
24.8892
 20
9.68234
 10
25.0237
 20
9.83063
 10
25.1673
 20
9.98891
 10
25.3195
 20
10.1565
 10
25.4797
 20
10.3327
 10
25.6471
 20
10.5168
 10
25.8213
 20
10.7081
 10
26.0015
 20
10.906
 10
26.1871
 20
11.1097
 10
26.3775
 20
11.3185
 10
26.5721
 20
11.5319
 10
28.9556
 20
14.1395
 10
29.4157
 20
14.1592
 10
29.457
 20
14.1615
 10
29.505
 20
14.1638
 10
29.5592
 20
14.166
 10
29.6194
 20
14.1681
 10
29.6849
 20
14.1702
 10
29.7555
 20
14.1722
 10
29.8307
 20
14.1741
 10
29.91
 20
14.1759
 10
29.9931
 20
14.1777
 10
30.0795
 20
14.1794
 10
30.1687
 20
14.1809
 10
30.2605
 20
14.1824
 10
30.3543
 20
14.1838
 10
30.4497
 20
14.1851
 10
30.5463
 20
14.1863
 10
30.6436
 20
14.1874
 10
30.7413
 20
14.1884
 10
30.839
 20
14.1893
 10
30.9361
 20
14.19
 10
31.0323
 20
14.1907
 10
31.1721
 20
14.1917
 10
31.3004
 20
14.1925
 10
31.4177
 20
14.1931
 10
31.5244
 20
14.1933
 10
31.6208
 20
14.1933
 10
31.7075
 20
14.193
 10
31.7848
 20
14.1923
 10
31.8532
 20
14.1913
 10
31.9131
 20
14.1899
 10
31.9649
 20
14.1882
 10
32.0091
 20
14.1861
 10
32.046
 20
14.1836
 10
32.0762
 20
14.1807
 10
32.1001
 20
14.1773
 10
32.118
 20
14.1735
 10
32.1304
 20
14.1693
 10
32.1377
 20
14.1645
 10
32.1404
 20
14.1593
 10
32.1388
 20
14.1536
 10
32.1335
 20
14.1474
 10
32.1161
 20
14.1343
 10
32.0738
 20
14.1049
 10
32.0077
 20
14.0598
 10
31.9189
 20
13.9998
 10
31.8083
 20
13.9255
 10
31.677
 20
13.8376
 10
31.5261
 20
13.7367
 10
31.3565
 20
13.6236
 10
31.1692
 20
13.4989
 10
30.9654
 20
13.3632
 10
30.746
 20
13.2174
 10
30.512
 20
13.062
 10
30.2645
 20
12.8977
 10
30.0045
 20
12.7251
 10
29.7331
 20
12.5451
 10
29.4512
 20
12.3582
 10
29.1599
 20
12.1651
 10
28.8602
 20
11.9665
 10
28.5531
 20
11.7631
 10
28.2397
 20
11.5555
 10
27.6002
 20
11.1324
 10
27.031
 20
10.7559
 10
26.5282
 20
10.4233
 10
26.0876
 20
10.1319
 10
25.7052
 20
9.87905
 10
25.377
 20
9.66208
 10
25.0988
 20
9.47832
 10
24.8666
 20
9.32512
 10
24.6763
 20
9.19982
 10
24.5239
 20
9.09975
 10
24.4054
 20
9.02224
 10
24.3165
 20
8.96463
 10
24.2533
 20
8.92426
 10
24.2118
 20
8.89847
 10
24.1878
 20
8.88459
 10
24.1772
 20
8.87996
  0
LWPOLYLINE
100
AcDbEntity
  8
0
100
AcDbPolyline
 90
102
 70
1
 10
21.522
 20
7.67743
 10
21.5212
 20
7.75796
 10
21.5234
 20
7.91689
 10
21.5282
 20
8.14533
 10
21.5354
 20
8.43438
 10
21.5447
 20
8.77514
 10
21.5557
 20
9.1587
 10
21.5683
 20
9.57616
 10
21.582
 20
10.0186
 10
21.5967
 20
10.4772
 10
21.612
 20
10.9429
 10
21.6276
 20
11.4069
 10
21.6432
 20
11.8603
 10
21.6586
 20
12.2942
 10
21.6734
 20
12.6997
 10
21.6874
 20
13.0679
 10
21.7002
 20
13.3898
 10
21.7116
 20
13.6566
 10
21.7213
 20
13.8594
 10
21.729
 20
13.9893
 10
21.7344
 20
14.0373
 10
21.7451
 20
14.0392
 10
21.7734
 20
14.0414
 10
21.8185
 20
14.0438
 10
21.8796
 20
14.0465
 10
21.9561
 20
14.0494
 10
22.0472
 20
14.0525
 10
22.1523
 20
14.0557
 10
22.2705
 20
14.0591
 10
22.4012
 20
14.0626
 10
22.5436
 20
14.0663
 10
22.6971
 20
14.07
 10
22.8609
 20
14.0738
 10
23.0343
 20
14.0776
 10
23.2165
 20
14.0815
 10
23.4069
 20
14.0854
 10
23.6048
 20
14.0893
 10
23.8093
 20
14.0931
 10
24.0199
 20
14.0969
 10
24.2357
 20
14.1005
 10
24.4561
 20
14.1041
 10
24.6784
 20
14.1076
 10
24.8986
 20
14.1111
 10
25.1161
 20
14.1145
 10
25.3299
 20
14.1177
 10
25.5392
 20
14.1209
 10
25.7433
 20
14.124
 10
25.9412
 20
14.127
 10
26.1322
 20
14.1298
 10
26.3154
 20
14.1325
 10
26.49
 20
14.1351
 10
26.6552
 20
14.1375
 10
26.8102
 20
14.1398
 10
26.9541
 20
14.1419
 10
27.0862
 20
14.1439
 10
27.2055
 20
14.1456
 10
27.3113
 20
14.1472
 10
27.4028
 20
14.1485
 10
27.4791
 20
14.1497
 10
27.5394
 20
14.1506
 10
27.5829
 20
14.1513
 10
27.6328
 20
14.1524
 10
27.6787
 20
14.1531
 10
27.7207
 20
14.1535
 10
27.759
 20
14.1536
 10
27.7937
 20
14.1534
 10
27.825
 20
14.1529
 10
27.8529
 20
14.152
 10
27.8777
 20
14.1508
 10
27.8994
 20
14.1493
 10
27.9182
 20
14.1474
 10
27.9343
 20
14.1452
 10
27.9477
 20
14.1426
 10
27.9586
 20
14.1396
 10
27.9671
 20
14.1362
 10
27.9734
 20
14.1325
 10
27.9776
 20
14.1284
 10
27.9799
 20
14.1239
 10
27.9803
 20
14.1191
 10
27.979
 20
14.1138
 10
27.9762
 20
14.1081
 10
27.9632
 20
14.0925
 10
27.9293
 20
14.0559
 10
27.8756
 20
13.9991
 10
27.8027
 20
13.9229
 10
27.7116
 20
13.8282
 10
27.6031
 20
13.7159
 10
27.4781
 20
13.5869
 10
27.3375
 20
13.442
 10
27.182
 20
13.2821
 10
27.0126
 20
13.1081
 10
26.8301
 20
12.9208
 10
26.6353
 20
12.721
 10
26.4292
 20
12.5098
 10
26.2125
 20
12.2878
 10
25.9862
 20
12.0561
 10
25.751
 20
11.8154
 10
25.5079
 20
11.5667
 10
25.2577
 20
11.3107
 10
25.0012
 20
11.0484
 10
24.7393
 20
10.7807
 10
21.5338
 20
7.50438
  0
LWPOLYLINE
100
AcDbEntity
  8
0
100
AcDbPolyline
 90
62
 70
1
 10
17.463
 20
8.93603
 10
17.3959
 20
8.97644
 10
17.2257
 20
9.08441
 10
16.9639
 20
9.25249
 10
16.6219
 20
9.4732
 10
16.2112
 20
9.73906
 10
15.7433
 20
10.0426
 10
15.2297
 20
10.3764
 10
14.6816
 20
10.7329
 10
14.1107
 20
11.1046
 10
13.5284
 20
11.4842
 10
12.9461
 20
11.8641
 10
12.3753
 20
12.2368
 10
11.8275
 20
12.5949
 10
11.314
 20
12.931
 10
10.8464
 20
13.2374
 10
10.436
 20
13.5069
 10
10.0944
 20
13.7318
 10
9.83308
 20
13.9047
 10
9.66338
 20
14.0182
 10
9.59679
 20
14.0648
 10
9.59183
 20
14.0716
 10
9.59151
 20
14.0778
 10
9.59649
 20
14.0835
 10
9.6074
 20
14.0886
 10
9.62488
 20
14.0932
 10
9.64957
 20
14.0973
 10
9.68212
 20
14.1009
 10
9.72316
 20
14.1041
 10
9.77333
 20
14.1068
 10
9.83327
 20
14.1091
 10
9.90363
 20
14.1109
 10
9.98504
 20
14.1124
 10
10.0781
 20
14.1135
 10
10.1836
 20
14.1142
 10
10.302
 20
14.1146
 10
10.434
 20
14.1146
 10
10.5803
 20
14.1144
 10
10.7415
 20
14.1139
 10
10.9182
 20
14.1131
 10
11.111
 20
14.112
 10
12.6843
 20
14.1002
 10
14.7413
 20
11.8977
 10
15.1257
 20
11.4862
 10
15.4732
 20
11.1144
 10
15.7854
 20
10.7801
 10
16.0642
 20
10.4815
 10
16.3115
 20
10.2164
 10
16.529
 20
9.98309
 10
16.7185
 20
9.77943
 10
16.8819
 20
9.60349
 10
17.021
 20
9.4533
 10
17.1376
 20
9.32688
 10
17.2334
 20
9.22226
 10
17.3103
 20
9.13747
 10
17.3702
 20
9.07053
 10
17.4148
 20
9.01946
 10
17.4459
 20
8.98231
 10
17.4654
 20
8.95708
 10
17.475
 20
8.94181
 10
17.4766
 20
8.93453
 10
17.472
 20
8.93326
  0
LWPOLYLINE
100
AcDbEntity
  8
0
100
AcDbPolyline
 90
102
 70
1
 10
16.9556
 20
10.7531
 10
16.6881
 20
11.0209
 10
16.4264
 20
11.2832
 10
16.1715
 20
11.5391
 10
15.9241
 20
11.7878
 10
15.6852
 20
12.0283
 10
15.4556
 20
12.2599
 10
15.2361
 20
12.4816
 10
15.0277
 20
12.6925
 10
14.8312
 20
12.8918
 10
14.6474
 20
13.0786
 10
14.4772
 20
13.252
 10
14.3215
 20
13.4111
 10
14.181
 20
13.5551
 10
14.0568
 20
13.683
 10
13.9496
 20
13.794
 10
13.8603
 20
13.8873
 10
13.7897
 20
13.9619
 10
13.7387
 20
14.0169
 10
13.7082
 20
14.0515
 10
13.699
 20
14.0648
 10
13.7016
 20
14.0677
 10
13.7058
 20
14.0705
 10
13.7115
 20
14.0731
 10
13.7186
 20
14.0756
 10
13.7271
 20
14.078
 10
13.7368
 20
14.0802
 10
13.7478
 20
14.0822
 10
13.76
 20
14.0841
 10
13.7733
 20
14.0859
 10
13.7875
 20
14.0874
 10
13.8027
 20
14.0888
 10
13.8188
 20
14.09
 10
13.8357
 20
14.091
 10
13.8533
 20
14.0918
 10
13.8716
 20
14.0925
 10
13.8905
 20
14.0929
 10
13.9098
 20
14.0931
 10
13.9297
 20
14.0931
 10
13.9499
 20
14.0928
 10
13.9704
 20
14.0923
 10
14
 20
14.0912
 10
14.048
 20
14.09
 10
14.1136
 20
14.0888
 10
14.1961
 20
14.0877
 10
14.2945
 20
14.0865
 10
14.408
 20
14.0854
 10
14.5358
 20
14.0842
 10
14.677
 20
14.0832
 10
14.8308
 20
14.0821
 10
14.9965
 20
14.081
 10
15.173
 20
14.08
 10
15.3597
 20
14.079
 10
15.5557
 20
14.0781
 10
15.7601
 20
14.0772
 10
15.9721
 20
14.0763
 10
16.1908
 20
14.0755
 10
16.4155
 20
14.0747
 10
16.6453
 20
14.074
 10
16.8794
 20
14.0733
 10
17.1169
 20
14.0727
 10
17.3536
 20
14.0715
 10
17.5854
 20
14.0702
 10
17.8114
 20
14.0689
 10
18.031
 20
14.0675
 10
18.2432
 20
14.066
 10
18.4475
 20
14.0645
 10
18.643
 20
14.063
 10
18.8289
 20
14.0613
 10
19.0045
 20
14.0597
 10
19.169
 20
14.0579
 10
19.3216
 20
14.0561
 10
19.4617
 20
14.0543
 10
19.5883
 20
14.0523
 10
19.7008
 20
14.0504
 10
19.7983
 20
14.0483
 10
19.8801
 20
14.0462
 10
19.9455
 20
14.0441
 10
19.9937
 20
14.0419
 10
20.0239
 20
14.0396
 10
20.0353
 20
14.0373
 10
20.0401
 20
13.9892
 10
20.0474
 20
13.8581
 10
20.0567
 20
13.653
 10
20.0679
 20
13.383
 10
20.0806
 20
13.0571
 10
20.0945
 20
12.6845
 10
20.1093
 20
12.2741
 10
20.1248
 20
11.835
 10
20.1405
 20
11.3763
 10
20.1562
 20
10.907
 10
20.1717
 20
10.4362
 10
20.1865
 20
9.97302
 10
20.2004
 20
9.52641
 10
20.2132
 20
9.10548
 10
20.2244
 20
8.71928
 10
20.2339
 20
8.37687
 10
20.2412
 20
8.08731
 10
20.2462
 20
7.85965
 10
20.2484
 20
7.70296
 10
20.2477
 20
7.6263
 10
20.2359
 20
7.47291
  0
ENDSEC
  0
EOF
