<?xml version="1.0" standalone="no"?>
<!DOCTYPE svg PUBLIC "-//W3C//DTD SVG 20010904//EN"
 "http://www.w3.org/TR/2001/REC-SVG-20010904/DTD/svg10.dtd">
<svg version="1.0" xmlns="http://www.w3.org/2000/svg"
 width="1080.000000pt" height="1080.000000pt" viewBox="0 0 1080.000000 1080.000000"
 preserveAspectRatio="xMidYMid meet">
<metadata>
Created by potrace 1.16, written by Peter Selinger 2001-2019
</metadata>
<g transform="translate(0.000000,1080.000000) scale(0.100000,-0.100000)"
fill="#000000" stroke="none">
<path d="M3922 9339 c-24 -12 -67 -43 -95 -69 -29 -25 -396 -347 -816 -715
-578 -506 -771 -680 -795 -719 -18 -28 -292 -539 -610 -1135 l-578 -1083 4
-57 c4 -45 99 -284 495 -1246 301 -728 500 -1200 515 -1215 13 -14 361 -359
775 -768 477 -471 763 -747 785 -756 20 -8 78 -14 153 -14 66 -1 671 -27 1345
-58 674 -32 1243 -57 1266 -58 31 0 51 7 80 29 208 157 1706 1374 1727 1403
15 20 280 541 589 1157 535 1068 562 1123 562 1175 0 49 -51 188 -468 1270
l-467 1215 -72 65 c-39 36 -391 355 -781 709 -391 354 -724 659 -741 676 -33
35 -95 60 -126 52 -18 -5 -2572 148 -2664 159 -29 4 -52 -1 -83 -17z m1453
-360 c638 -28 1161 -52 1162 -53 4 -3 53 -1180 53 -1251 l0 -50 -438 -128
c-240 -70 -441 -127 -447 -127 -5 0 -365 133 -800 294 l-790 294 3 78 c2 44
12 270 23 504 10 234 19 440 19 458 0 28 3 32 28 32 15 0 549 -23 1187 -51z
m-1675 -643 l-63 -445 -199 -258 c-110 -142 -204 -257 -209 -256 -13 4 -651
413 -667 428 -11 10 98 102 589 498 332 267 605 484 607 482 2 -2 -24 -204
-58 -449z m3884 -365 c295 -295 309 -310 285 -320 -13 -5 -219 -88 -458 -185
-239 -97 -438 -173 -442 -169 -4 5 -48 71 -98 148 l-91 140 0 65 c0 36 9 277
20 535 11 259 20 485 20 504 0 33 6 28 228 -187 125 -121 366 -360 536 -531z
m-4837 -552 c186 -105 343 -197 350 -203 8 -8 -119 -180 -516 -694 -290 -375
-535 -690 -545 -700 -13 -14 -68 -22 -297 -42 -154 -14 -282 -24 -284 -22 -2
2 205 423 461 934 344 687 469 928 479 924 8 -3 166 -91 352 -197z m1743 -53
c278 -106 503 -197 501 -202 -2 -5 -223 -73 -489 -151 l-486 -143 -190 122
c-105 67 -197 126 -203 132 -12 11 11 43 275 379 38 49 58 66 70 62 9 -3 244
-92 522 -199z m2230 -8 c40 -62 73 -119 74 -127 1 -9 -55 -36 -163 -81 l-164
-66 -250 93 c-138 51 -252 95 -255 98 -3 2 1 7 9 10 41 15 637 183 656 184 16
1 37 -23 93 -111z m1806 -992 c222 -539 404 -985 404 -993 0 -7 -10 -13 -22
-13 -13 -1 -160 -14 -328 -29 -223 -21 -308 -25 -316 -17 -17 17 -1044 1595
-1047 1608 -2 13 869 428 892 425 8 -1 172 -385 417 -981z m-2805 528 c266
-102 487 -188 491 -192 9 -9 -101 -2521 -111 -2541 -4 -8 -307 -102 -728 -226
l-722 -211 -343 127 c-189 71 -347 130 -351 131 -7 3 108 2757 115 2763 2 2
264 77 583 168 319 91 580 166 581 166 0 1 219 -83 485 -185z m-2006 -26 l200
-114 -3 -60 c-43 -1026 -114 -2604 -118 -2649 l-5 -60 -140 -57 -140 -57 -73
112 c-40 62 -290 445 -555 852 -451 690 -482 741 -470 761 42 67 1086 1393
1094 1390 6 -2 100 -55 210 -118z m3859 -839 c290 -451 525 -826 523 -833 -4
-10 -1008 -1317 -1036 -1348 -4 -4 -103 54 -221 130 -194 124 -215 141 -218
167 -4 43 107 2558 114 2564 8 9 288 139 300 140 6 1 248 -368 538 -820z
m-5839 -654 c180 -11 274 -20 281 -28 19 -20 1054 -1636 1054 -1646 0 -11
-863 -362 -871 -353 -5 5 -649 1671 -765 1980 l-24 62 28 0 c15 0 149 -7 297
-15z m6902 -299 c139 -7 255 -15 258 -18 6 -6 -943 -1783 -953 -1783 -8 0
-700 442 -721 460 -11 11 79 131 513 687 l526 674 62 -4 c35 -1 177 -9 315
-16z m-4457 -1326 c187 -71 253 -100 227 -100 -4 0 -144 -40 -312 -90 -168
-49 -309 -90 -314 -90 -15 0 -183 262 -174 271 4 4 66 35 137 68 l129 60 46
-19 c25 -10 143 -55 261 -100z m2334 -140 c117 -66 221 -126 231 -134 17 -12
7 -28 -136 -214 -85 -111 -158 -201 -164 -202 -16 -1 -1096 403 -1091 408 8 8
901 260 924 261 13 1 119 -53 236 -119z m-3212 -261 c65 -101 120 -193 123
-204 2 -11 11 -209 19 -440 9 -231 19 -453 22 -492 3 -42 2 -73 -4 -73 -10 0
-1125 1010 -1120 1015 11 11 825 384 832 382 5 -2 63 -86 128 -188z m2432
-193 c351 -135 640 -247 642 -249 7 -6 -155 -1160 -163 -1167 -10 -8 -2349
133 -2359 142 -7 8 40 1165 48 1173 3 3 273 82 599 175 327 93 594 169 594
169 0 1 287 -109 639 -243z m1606 -14 c184 -105 333 -194 331 -199 -2 -4 -212
-190 -466 -413 -255 -223 -511 -447 -569 -498 l-106 -93 0 38 c0 21 9 245 21
497 l22 460 174 223 174 223 42 -24 c23 -14 193 -110 377 -214z"/>
</g>
</svg>
