<?xml version="1.0" standalone="no"?>
<!DOCTYPE svg PUBLIC "-//W3C//DTD SVG 20010904//EN"
 "http://www.w3.org/TR/2001/REC-SVG-20010904/DTD/svg10.dtd">
<svg version="1.0" xmlns="http://www.w3.org/2000/svg"
 width="1080.000000pt" height="1080.000000pt" viewBox="0 0 1080.000000 1080.000000"
 preserveAspectRatio="xMidYMid meet">
<metadata>
Created by potrace 1.16, written by Peter Selinger 2001-2019
</metadata>
<g transform="translate(0.000000,1080.000000) scale(0.100000,-0.100000)"
fill="#000000" stroke="none">
<path d="M5209 9655 c-159 -115 -3335 -2219 -3365 -2229 -30 -9 -60 -45 -72
-86 -16 -53 -39 -3561 -23 -3617 15 -55 55 -101 106 -123 51 -22 3316 -2110
3361 -2149 60 -53 130 -52 193 3 47 42 3296 2151 3345 2171 57 24 93 66 106
127 16 71 -44 3566 -61 3619 -16 46 -26 57 -73 81 -55 27 -3314 2154 -3346
2183 -58 53 -117 60 -171 20z m-59 -547 c1 -46 11 -418 24 -828 13 -410 21
-748 17 -753 -4 -4 -359 -6 -790 -5 l-782 3 758 832 c417 458 761 832 766 832
4 1 7 -36 7 -81z m1050 -745 l771 -828 -797 -8 c-439 -4 -800 -4 -804 0 -4 4
3 332 16 728 13 396 23 768 23 828 1 59 5 107 10 107 5 0 356 -372 781 -827z
m-1936 335 c-106 -110 -1057 -1083 -1103 -1130 l-36 -36 -366 -27 c-201 -15
-378 -25 -392 -23 -22 2 158 123 970 651 548 356 999 647 1002 647 3 0 -31
-37 -75 -82z m2991 -567 c824 -527 975 -626 950 -629 -17 -1 -190 8 -384 22
l-355 25 -610 612 c-336 336 -604 608 -596 604 8 -4 456 -290 995 -634z m1255
-930 c0 -8 -379 -1096 -410 -1176 -9 -23 -13 -27 -20 -15 -13 24 -402 1123
-404 1140 -1 13 56 18 379 36 473 26 455 26 455 15z m-5985 -37 c215 -9 391
-18 393 -19 2 -2 -90 -271 -205 -599 -114 -327 -211 -592 -215 -588 -12 12
-437 1215 -432 1223 2 4 19 6 37 4 17 -3 208 -12 422 -21z m2568 -1 c5 -9
-758 -1316 -771 -1321 -6 -2 -778 1277 -790 1309 -2 5 286 10 645 11 356 2
707 4 780 6 72 1 134 -1 136 -5z m1967 3 c0 -8 -772 -1321 -784 -1334 -10 -10
-91 118 -409 651 -219 365 -397 669 -397 675 0 9 199 12 795 12 437 0 795 -2
795 -4z m-1327 -756 c245 -416 436 -751 434 -760 -6 -25 -851 -1460 -859
-1460 -10 0 -888 1469 -888 1486 0 23 852 1485 863 1481 6 -2 209 -338 450
-747z m1901 -235 l269 -716 -260 -742 c-142 -408 -263 -742 -268 -742 -11 0
-865 1425 -865 1443 0 16 840 1472 849 1472 3 0 127 -322 275 -715z m-3969
-20 c230 -390 418 -714 418 -720 0 -20 -866 -1486 -873 -1478 -4 4 -123 333
-264 731 -185 520 -255 729 -250 745 4 12 123 337 266 722 142 385 261 706
263 714 4 9 9 11 14 5 5 -5 197 -328 426 -719z m4888 -462 c-3 -516 -9 -944
-13 -951 -8 -16 -344 923 -337 946 3 14 296 810 336 915 6 15 13 27 15 27 2 0
2 -422 -1 -937z m-6333 400 l173 -462 -164 -470 c-90 -259 -167 -471 -171
-471 -5 0 -8 75 -8 168 0 92 -7 516 -15 942 -8 426 -14 782 -14 790 0 29 27
-39 199 -497z m2350 -1474 c208 -354 376 -647 372 -650 -9 -8 -1514 -37 -1524
-29 -4 3 156 286 355 630 438 756 407 704 413 698 3 -3 175 -295 384 -649z
m2230 -19 l380 -645 -83 -3 c-117 -4 -1417 15 -1423 21 -7 7 729 1278 738
1275 4 -2 179 -293 388 -648z m1444 -50 c126 -335 228 -612 225 -614 -2 -3
-207 -1 -454 2 -392 6 -450 9 -447 22 4 27 437 1200 442 1200 3 0 108 -274
234 -610z m-5649 543 c4 -10 100 -268 215 -573 115 -305 211 -562 215 -572 6
-14 -5 -17 -87 -22 -51 -3 -252 -8 -446 -11 -343 -6 -353 -6 -350 13 6 33 433
1182 439 1182 4 0 10 -8 14 -17z m5575 -1496 c-8 -8 -454 -304 -990 -659
-1146 -758 -1030 -682 -1030 -675 0 3 273 304 606 669 l606 663 117 5 c64 4
249 7 411 8 247 2 292 0 280 -11z m-1057 -10 c-4 -8 -375 -388 -823 -846
l-815 -833 -3 44 c-4 65 47 1610 54 1617 3 3 315 11 692 17 378 6 736 11 795
12 88 2 106 -1 100 -11z m-3365 -562 c684 -732 710 -760 692 -753 -20 7 -1981
1286 -2000 1304 -12 12 44 14 385 12 l400 -3 523 -560z m604 553 c405 -2 739
-5 742 -9 6 -6 58 -1573 54 -1630 l-3 -39 -834 834 c-458 458 -831 838 -828
842 3 5 34 8 69 7 34 -2 395 -4 800 -5z"/>
</g>
</svg>
