999
DXF from OpenSCAD
  0
SECTION
  2
HEADER
  9
$ACADVER
  1
AC1006
  9
$INSBASE
 10
0.0
 20
0.0
 30
0.0
  9
$EXTMIN
 10
9.7121
 20
10.1381
  9
$EXTMAX
 10
37.7121
 20
41.1361
  9
$LINMIN
 10
9.7121
 20
10.1381
  9
$LINMAX
 10
37.7121
 20
41.1361
  0
ENDSEC
  0
SECTION
  2
TABLES
  0
TABLE
  2
LTYPE
 70
1
  0
LTYPE
  2
CONTINUOUS
 70
64
  3
Solid line
 72
65
 73
0
 40
0.000000
  0
ENDTAB
  0
TABLE
  2
LAYER
 70
6
  0
LAYER
  2
0
 70
64
 62
7
  6
CONTINUOUS
  0
ENDTAB
  0
TABLE
  2
STYLE
 70
0
  0
ENDTAB
  0
ENDSEC
  0
SECTION
  2
BLOCKS
  0
ENDSEC
  0
SECTION
  2
ENTITIES
  0
LWPOLYLINE
100
AcDbEntity
  8
0
100
AcDbPolyline
 90
320
 70
1
 10
31.9621
 20
10.1382
 10
31.999
 20
10.1387
 10
32.035
 20
10.1396
 10
32.0703
 20
10.141
 10
32.105
 20
10.1428
 10
32.139
 20
10.1451
 10
32.1724
 20
10.1478
 10
32.2053
 20
10.151
 10
32.2377
 20
10.1546
 10
32.2696
 20
10.1587
 10
32.301
 20
10.1632
 10
32.3321
 20
10.1682
 10
32.3628
 20
10.1736
 10
32.3933
 20
10.1795
 10
32.4234
 20
10.1859
 10
32.4534
 20
10.1928
 10
32.4831
 20
10.2002
 10
32.5191
 20
10.2104
 10
32.5528
 20
10.2204
 10
32.5843
 20
10.2304
 10
32.614
 20
10.2406
 10
32.642
 20
10.2511
 10
32.6687
 20
10.2621
 10
32.6942
 20
10.2737
 10
32.7189
 20
10.2861
 10
32.743
 20
10.2995
 10
32.7668
 20
10.3141
 10
32.7904
 20
10.33
 10
32.8142
 20
10.3473
 10
32.8384
 20
10.3663
 10
32.8632
 20
10.3871
 10
32.889
 20
10.4099
 10
32.9159
 20
10.4348
 10
32.9442
 20
10.462
 10
32.9742
 20
10.4917
 10
33.006
 20
10.5241
 10
33.0401
 20
10.5592
 10
33.0659
 20
10.5867
 10
33.091
 20
10.6141
 10
33.1153
 20
10.6414
 10
33.1388
 20
10.6685
 10
33.1614
 20
10.6953
 10
33.1832
 20
10.7221
 10
33.2042
 20
10.7486
 10
33.2242
 20
10.7748
 10
33.2434
 20
10.8009
 10
33.2616
 20
10.8268
 10
33.2789
 20
10.8523
 10
33.2953
 20
10.8777
 10
33.3107
 20
10.9028
 10
33.3251
 20
10.9276
 10
33.3385
 20
10.9521
 10
33.3509
 20
10.9763
 10
33.3622
 20
11.0003
 10
33.3725
 20
11.0239
 10
33.3818
 20
11.0472
 10
33.3899
 20
11.0701
 10
33.397
 20
11.0897
 10
33.4044
 20
11.1098
 10
33.412
 20
11.1302
 10
33.4198
 20
11.1508
 10
33.4278
 20
11.1717
 10
33.4359
 20
11.1926
 10
33.4441
 20
11.2135
 10
33.4524
 20
11.2342
 10
33.4606
 20
11.2547
 10
33.4687
 20
11.275
 10
33.4768
 20
11.2948
 10
33.4847
 20
11.3141
 10
33.4924
 20
11.3327
 10
33.4999
 20
11.3507
 10
33.5071
 20
11.3679
 10
33.5139
 20
11.3842
 10
33.5204
 20
11.3994
 10
33.5265
 20
11.4136
 10
33.5321
 20
11.4266
 10
33.5372
 20
11.4384
 10
33.5496
 20
11.4669
 10
33.5753
 20
11.5282
 10
33.6137
 20
11.6209
 10
33.6643
 20
11.7436
 10
33.7266
 20
11.8949
 10
33.7999
 20
12.0735
 10
33.8837
 20
12.278
 10
33.9775
 20
12.5071
 10
34.0806
 20
12.7593
 10
34.1926
 20
13.0333
 10
34.3128
 20
13.3278
 10
34.4406
 20
13.6413
 10
34.5757
 20
13.9725
 10
34.7172
 20
14.3201
 10
34.8648
 20
14.6826
 10
35.0178
 20
15.0587
 10
35.1757
 20
15.4471
 10
35.3379
 20
15.8463
 10
35.5038
 20
16.2551
 10
35.673
 20
16.6719
 10
35.8836
 20
17.192
 10
36.0818
 20
17.6823
 10
36.2678
 20
18.1432
 10
36.4418
 20
18.5752
 10
36.6039
 20
18.9785
 10
36.7543
 20
19.3537
 10
36.8931
 20
19.7011
 10
37.0204
 20
20.0211
 10
37.1365
 20
20.314
 10
37.2414
 20
20.5804
 10
37.3354
 20
20.8206
 10
37.4185
 20
21.035
 10
37.491
 20
21.224
 10
37.5529
 20
21.3879
 10
37.6045
 20
21.5273
 10
37.6459
 20
21.6424
 10
37.6771
 20
21.7337
 10
37.6985
 20
21.8016
 10
37.7101
 20
21.8465
 10
37.7121
 20
21.8687
 10
37.7025
 20
21.8898
 10
37.6795
 20
21.9359
 10
37.6438
 20
22.006
 10
37.5958
 20
22.0989
 10
37.5361
 20
22.2136
 10
37.4652
 20
22.3492
 10
37.3837
 20
22.5044
 10
37.2922
 20
22.6784
 10
37.191
 20
22.87
 10
37.0809
 20
23.0781
 10
36.9623
 20
23.3018
 10
36.8358
 20
23.54
 10
36.702
 20
23.7916
 10
36.5613
 20
24.0556
 10
36.4143
 20
24.331
 10
36.2615
 20
24.6166
 10
36.1036
 20
24.9115
 10
35.941
 20
25.2146
 10
35.7742
 20
25.5248
 10
35.6039
 20
25.841
 10
35.4246
 20
26.1757
 10
35.23
 20
26.5387
 10
35.0213
 20
26.9277
 10
34.8
 20
27.3401
 10
34.5673
 20
27.7736
 10
34.3245
 20
28.2257
 10
34.073
 20
28.6939
 10
33.8142
 20
29.1759
 10
33.5492
 20
29.6692
 10
33.2794
 20
30.1713
 10
33.0062
 20
30.6798
 10
32.7309
 20
31.1924
 10
32.4548
 20
31.7065
 10
32.1791
 20
32.2197
 10
31.9053
 20
32.7295
 10
31.6346
 20
33.2336
 10
31.3684
 20
33.7295
 10
31.108
 20
34.2148
 10
30.8546
 20
34.687
 10
30.6097
 20
35.1436
 10
30.2929
 20
35.7335
 10
29.9966
 20
36.2845
 10
29.7202
 20
36.7977
 10
29.4631
 20
37.274
 10
29.2249
 20
37.7145
 10
29.005
 20
38.1203
 10
28.8028
 20
38.4924
 10
28.6177
 20
38.8317
 10
28.4492
 20
39.1393
 10
28.2967
 20
39.4163
 10
28.1597
 20
39.6637
 10
28.0376
 20
39.8825
 10
27.9299
 20
40.0738
 10
27.8359
 20
40.2385
 10
27.7552
 20
40.3776
 10
27.6871
 20
40.4924
 10
27.6311
 20
40.5836
 10
27.5867
 20
40.6525
 10
27.5533
 20
40.6999
 10
27.5303
 20
40.727
 10
27.4688
 20
40.7804
 10
27.4072
 20
40.8302
 10
27.3454
 20
40.8762
 10
27.2835
 20
40.9186
 10
27.2215
 20
40.9572
 10
27.1594
 20
40.9921
 10
27.0972
 20
41.0232
 10
27.0349
 20
41.0506
 10
26.9725
 20
41.0743
 10
26.9101
 20
41.0941
 10
26.8476
 20
41.1102
 10
26.785
 20
41.1224
 10
26.7224
 20
41.1308
 10
26.6597
 20
41.1354
 10
26.5969
 20
41.1361
 10
26.5342
 20
41.133
 10
26.4714
 20
41.126
 10
26.4086
 20
41.115
 10
26.3458
 20
41.1002
 10
26.2829
 20
41.0815
 10
26.2398
 20
41.0667
 10
26.1974
 20
41.05
 10
26.1557
 20
41.0315
 10
26.1148
 20
41.0111
 10
26.0747
 20
40.9889
 10
26.0355
 20
40.9649
 10
25.9971
 20
40.9392
 10
25.9597
 20
40.9118
 10
25.9232
 20
40.8827
 10
25.8877
 20
40.8519
 10
25.8531
 20
40.8195
 10
25.8196
 20
40.7855
 10
25.7872
 20
40.75
 10
25.7558
 20
40.7129
 10
25.7256
 20
40.6743
 10
25.6966
 20
40.6343
 10
25.6687
 20
40.5928
 10
25.642
 20
40.5499
 10
25.6166
 20
40.5057
 10
25.5925
 20
40.4601
 10
25.46
 20
40.268
 10
25.1221
 20
39.7981
 10
24.6015
 20
39.0815
 10
23.9211
 20
38.1491
 10
23.1037
 20
37.0319
 10
22.1721
 20
35.7611
 10
21.1492
 20
34.3675
 10
20.0579
 20
32.8823
 10
18.9209
 20
31.3365
 10
17.7611
 20
29.761
 10
16.6014
 20
28.187
 10
15.4645
 20
26.6454
 10
14.3733
 20
25.1673
 10
13.3507
 20
23.7837
 10
12.4194
 20
22.5255
 10
11.6024
 20
21.424
 10
10.9224
 20
20.51
 10
10.4024
 20
19.8145
 10
10.065
 20
19.3687
 10
9.9332
 20
19.2036
 10
9.90307
 20
19.1794
 10
9.87488
 20
19.1514
 10
9.84869
 20
19.1199
 10
9.82457
 20
19.0851
 10
9.80259
 20
19.0475
 10
9.78282
 20
19.0074
 10
9.76533
 20
18.9651
 10
9.75019
 20
18.9209
 10
9.73746
 20
18.8753
 10
9.72722
 20
18.8284
 10
9.71953
 20
18.7808
 10
9.71447
 20
18.7326
 10
9.7121
 20
18.6843
 10
9.71249
 20
18.6362
 10
9.71571
 20
18.5886
 10
9.72183
 20
18.5419
 10
9.73092
 20
18.4964
 10
9.74305
 20
18.4524
 10
9.75829
 20
18.4103
 10
9.7767
 20
18.3704
 10
9.78276
 20
18.3598
 10
9.78987
 20
18.3486
 10
9.79795
 20
18.3369
 10
9.80693
 20
18.3247
 10
9.81676
 20
18.3123
 10
9.82736
 20
18.2995
 10
9.83868
 20
18.2865
 10
9.85064
 20
18.2733
 10
9.86318
 20
18.26
 10
9.87624
 20
18.2467
 10
9.88974
 20
18.2335
 10
9.90363
 20
18.2203
 10
9.91784
 20
18.2073
 10
9.93229
 20
18.1945
 10
9.94694
 20
18.1821
 10
9.9617
 20
18.17
 10
9.97652
 20
18.1583
 10
9.99133
 20
18.1471
 10
10.0061
 20
18.1365
 10
10.0207
 20
18.1265
 10
10.0701
 20
18.1033
 10
10.1874
 20
18.0551
 10
10.37
 20
17.9829
 10
10.6151
 20
17.8877
 10
10.92
 20
17.7707
 10
11.2818
 20
17.6327
 10
11.698
 20
17.4749
 10
12.1658
 20
17.2982
 10
12.6824
 20
17.1036
 10
13.245
 20
16.8923
 10
13.8511
 20
16.6652
 10
14.4977
 20
16.4233
 10
15.1823
 20
16.1678
 10
15.902
 20
15.8995
 10
16.6541
 20
15.6195
 10
17.4359
 20
15.3289
 10
18.2447
 20
15.0287
 10
19.0777
 20
14.7198
 10
19.9322
 20
14.4034
 10
20.8054
 20
14.0805
 10
22.3087
 20
13.5249
 10
23.6633
 20
13.0244
 10
24.8771
 20
12.5761
 10
25.9583
 20
12.1771
 10
26.9149
 20
11.8246
 10
27.755
 20
11.5156
 10
28.4867
 20
11.2472
 10
29.1181
 20
11.0166
 10
29.6571
 20
10.8208
 10
30.112
 20
10.657
 10
30.4908
 20
10.5223
 10
30.8015
 20
10.4137
 10
31.0522
 20
10.3284
 10
31.2511
 20
10.2635
 10
31.4061
 20
10.2161
 10
31.5254
 20
10.1833
 10
31.617
 20
10.1623
 10
31.689
 20
10.15
 10
31.7495
 20
10.1436
 10
31.8065
 20
10.1403
 10
31.8468
 20
10.1392
 10
31.8861
 20
10.1384
 10
31.9245
 20
10.1381
  0
LWPOLYLINE
100
AcDbEntity
  8
0
100
AcDbPolyline
 90
120
 70
1
 10
11.8846
 20
19.5333
 10
11.8769
 20
19.5338
 10
11.8699
 20
19.5345
 10
11.8636
 20
19.5356
 10
11.8579
 20
19.5369
 10
11.8528
 20
19.5386
 10
11.8485
 20
19.5406
 10
11.8448
 20
19.5428
 10
11.8419
 20
19.5454
 10
11.8397
 20
19.5483
 10
11.8383
 20
19.5514
 10
11.8377
 20
19.5549
 10
11.8379
 20
19.5586
 10
11.8388
 20
19.5626
 10
11.945
 20
19.7051
 10
12.2399
 20
20.0847
 10
12.7025
 20
20.6748
 10
13.312
 20
21.4491
 10
14.0472
 20
22.3811
 10
14.8872
 20
23.4444
 10
15.8111
 20
24.6125
 10
16.7979
 20
25.859
 10
17.8266
 20
27.1575
 10
18.8762
 20
28.4814
 10
19.9258
 20
29.8044
 10
20.9544
 20
31.1001
 10
21.941
 20
32.3419
 10
22.8646
 20
33.5035
 10
23.7043
 20
34.5584
 10
24.4392
 20
35.4802
 10
25.0481
 20
36.2424
 10
25.5103
 20
36.8185
 10
25.8046
 20
37.1822
 10
25.9101
 20
37.307
 10
25.9169
 20
37.2777
 10
25.9331
 20
37.1966
 10
25.9581
 20
37.0659
 10
25.9916
 20
36.8876
 10
26.0332
 20
36.6638
 10
26.0826
 20
36.3968
 10
26.1393
 20
36.0885
 10
26.203
 20
35.741
 10
26.2732
 20
35.3565
 10
26.3497
 20
34.9371
 10
26.4319
 20
34.4848
 10
26.5196
 20
34.0018
 10
26.6122
 20
33.4902
 10
26.7096
 20
32.9521
 10
26.8111
 20
32.3896
 10
26.9166
 20
31.8047
 10
27.0255
 20
31.1996
 10
27.1375
 20
30.5764
 10
27.2522
 20
29.9372
 10
27.3692
 20
29.2841
 10
27.4861
 20
28.6309
 10
27.6003
 20
27.9916
 10
27.7115
 20
27.3683
 10
27.8193
 20
26.763
 10
27.9232
 20
26.1779
 10
28.0231
 20
25.6152
 10
28.1184
 20
25.0768
 10
28.2087
 20
24.565
 10
28.2938
 20
24.0818
 10
28.3733
 20
23.6293
 10
28.4466
 20
23.2097
 10
28.5136
 20
22.8251
 10
28.5738
 20
22.4776
 10
28.6268
 20
22.1693
 10
28.6722
 20
21.9023
 10
28.7098
 20
21.6788
 10
28.739
 20
21.5008
 10
28.7596
 20
21.3704
 10
28.7711
 20
21.2898
 10
28.7731
 20
21.2611
 10
28.7433
 20
21.2556
 10
28.6595
 20
21.2448
 10
28.5239
 20
21.229
 10
28.3386
 20
21.2082
 10
28.1059
 20
21.1828
 10
27.828
 20
21.1531
 10
27.507
 20
21.1191
 10
27.1452
 20
21.0811
 10
26.7447
 20
21.0394
 10
26.3077
 20
20.9941
 10
25.8364
 20
20.9456
 10
25.3331
 20
20.8939
 10
24.7998
 20
20.8394
 10
24.2389
 20
20.7822
 10
23.6524
 20
20.7226
 10
23.0426
 20
20.6607
 10
22.4117
 20
20.5969
 10
21.7619
 20
20.5313
 10
21.0953
 20
20.4642
 10
20.4142
 20
20.3957
 10
19.7333
 20
20.3273
 10
19.0662
 20
20.2603
 10
18.4151
 20
20.1949
 10
17.7822
 20
20.1313
 10
17.1698
 20
20.0697
 10
16.58
 20
20.0104
 10
16.0152
 20
19.9536
 10
15.4775
 20
19.8995
 10
14.9692
 20
19.8483
 10
14.4924
 20
19.8002
 10
14.0495
 20
19.7555
 10
13.6427
 20
19.7144
 10
13.2742
 20
19.677
 10
12.9462
 20
19.6436
 10
12.6609
 20
19.6145
 10
12.4206
 20
19.5897
 10
12.2275
 20
19.5697
 10
12.0839
 20
19.5545
 10
11.992
 20
19.5444
 10
11.9539
 20
19.5396
 10
11.9424
 20
19.5377
 10
11.9314
 20
19.5361
 10
11.9209
 20
19.5349
 10
11.911
 20
19.534
 10
11.9016
 20
19.5335
 10
11.8928
 20
19.5333
  0
LWPOLYLINE
100
AcDbEntity
  8
0
100
AcDbPolyline
 90
100
 70
1
 10
31.5487
 20
21.5557
 10
31.5324
 20
21.6199
 10
31.4929
 20
21.7993
 10
31.4322
 20
22.0845
 10
31.3523
 20
22.4659
 10
31.255
 20
22.9341
 10
31.1423
 20
23.4796
 10
31.0162
 20
24.0929
 10
30.8785
 20
24.7646
 10
30.7313
 20
25.4851
 10
30.5763
 20
26.245
 10
30.4157
 20
27.0347
 10
30.2512
 20
27.8449
 10
30.0849
 20
28.666
 10
29.9187
 20
29.4886
 10
29.7544
 20
30.3032
 10
29.5941
 20
31.1002
 10
29.4397
 20
31.8703
 10
29.293
 20
32.6039
 10
29.1561
 20
33.2916
 10
29.0309
 20
33.9239
 10
29.0277
 20
33.938
 10
29.0248
 20
33.9513
 10
29.0224
 20
33.9639
 10
29.0204
 20
33.9756
 10
29.0187
 20
33.9865
 10
29.0175
 20
33.9966
 10
29.0167
 20
34.0058
 10
29.0162
 20
34.0141
 10
29.0162
 20
34.0215
 10
29.0165
 20
34.028
 10
29.0172
 20
34.0336
 10
29.0183
 20
34.0382
 10
29.0198
 20
34.0418
 10
29.0216
 20
34.0445
 10
29.0238
 20
34.0462
 10
29.0263
 20
34.0468
 10
29.0293
 20
34.0465
 10
29.0325
 20
34.045
 10
29.0361
 20
34.0425
 10
29.0401
 20
34.0389
 10
29.0564
 20
34.015
 10
29.0978
 20
33.9526
 10
29.1633
 20
33.8533
 10
29.2517
 20
33.7187
 10
29.3621
 20
33.5503
 10
29.4934
 20
33.3497
 10
29.6447
 20
33.1184
 10
29.8148
 20
32.8581
 10
30.0028
 20
32.5702
 10
30.2075
 20
32.2564
 10
30.4281
 20
31.9183
 10
30.6634
 20
31.5573
 10
30.9124
 20
31.1751
 10
31.1741
 20
30.7732
 10
31.4474
 20
30.3532
 10
31.7313
 20
29.9167
 10
32.0249
 20
29.4653
 10
32.3269
 20
29.0004
 10
32.6365
 20
28.5236
 10
32.9526
 20
28.0367
 10
33.2692
 20
27.5498
 10
33.5788
 20
27.0734
 10
33.8804
 20
26.609
 10
34.173
 20
26.1581
 10
34.4557
 20
25.7224
 10
34.7274
 20
25.3035
 10
34.9871
 20
24.9027
 10
35.2337
 20
24.5218
 10
35.4663
 20
24.1622
 10
35.6839
 20
23.8255
 10
35.8854
 20
23.5133
 10
36.0699
 20
23.2272
 10
36.2363
 20
22.9686
 10
36.3836
 20
22.7392
 10
36.5108
 20
22.5405
 10
36.6169
 20
22.3741
 10
36.7009
 20
22.2414
 10
36.7617
 20
22.1442
 10
36.7984
 20
22.0838
 10
36.8099
 20
22.062
 10
36.7664
 20
22.0531
 10
36.6534
 20
22.038
 10
36.4787
 20
22.0174
 10
36.2499
 20
21.9921
 10
35.9749
 20
21.9628
 10
35.6613
 20
21.9303
 10
35.3169
 20
21.8953
 10
34.9494
 20
21.8586
 10
34.5664
 20
21.8209
 10
34.1759
 20
21.783
 10
33.7854
 20
21.7455
 10
33.4027
 20
21.7094
 10
33.0355
 20
21.6753
 10
32.6915
 20
21.6439
 10
32.3786
 20
21.616
 10
32.1043
 20
21.5924
 10
31.8764
 20
21.5739
 10
31.7027
 20
21.561
 10
31.5909
 20
21.5547
  0
LWPOLYLINE
100
AcDbEntity
  8
0
100
AcDbPolyline
 90
100
 70
1
 10
32.8171
 20
15.2796
 10
32.815
 20
15.2798
 10
32.813
 20
15.2802
 10
32.811
 20
15.2806
 10
32.8091
 20
15.2813
 10
32.8072
 20
15.282
 10
32.8054
 20
15.2829
 10
32.8038
 20
15.284
 10
32.8022
 20
15.2851
 10
32.8007
 20
15.2864
 10
32.7865
 20
15.3311
 10
32.7588
 20
15.4472
 10
32.719
 20
15.6269
 10
32.6689
 20
15.8622
 10
32.6099
 20
16.1452
 10
32.5437
 20
16.4679
 10
32.4717
 20
16.8223
 10
32.3957
 20
17.2005
 10
32.317
 20
17.5945
 10
32.2374
 20
17.9964
 10
32.1584
 20
18.3983
 10
32.0816
 20
18.7921
 10
32.0084
 20
19.17
 10
31.9406
 20
19.5239
 10
31.8796
 20
19.846
 10
31.8271
 20
20.1282
 10
31.7846
 20
20.3626
 10
31.7537
 20
20.5413
 10
31.7359
 20
20.6562
 10
31.7328
 20
20.6995
 10
31.7703
 20
20.7079
 10
31.8699
 20
20.7243
 10
32.0249
 20
20.7477
 10
32.2287
 20
20.7772
 10
32.4745
 20
20.812
 10
32.7557
 20
20.8512
 10
33.0655
 20
20.8937
 10
33.3973
 20
20.9389
 10
33.7443
 20
20.9857
 10
34.0999
 20
21.0333
 10
34.4574
 20
21.0807
 10
34.81
 20
21.1271
 10
35.1511
 20
21.1715
 10
35.474
 20
21.2131
 10
35.7719
 20
21.251
 10
36.0383
 20
21.2843
 10
36.2663
 20
21.312
 10
36.4493
 20
21.3334
 10
36.5805
 20
21.3474
 10
36.6534
 20
21.3532
 10
36.6686
 20
21.3537
 10
36.6825
 20
21.354
 10
36.695
 20
21.3539
 10
36.7062
 20
21.3535
 10
36.7162
 20
21.3527
 10
36.725
 20
21.3515
 10
36.7325
 20
21.3498
 10
36.7389
 20
21.3478
 10
36.7442
 20
21.3452
 10
36.7484
 20
21.3422
 10
36.7514
 20
21.3387
 10
36.7535
 20
21.3346
 10
36.7545
 20
21.3299
 10
36.7546
 20
21.3247
 10
36.7537
 20
21.3189
 10
36.752
 20
21.3124
 10
36.7493
 20
21.3052
 10
36.7458
 20
21.2974
 10
36.7414
 20
21.2888
 10
36.7363
 20
21.2795
 10
36.702
 20
21.2244
 10
36.6168
 20
21.0913
 10
36.4863
 20
20.8888
 10
36.3162
 20
20.6257
 10
36.1122
 20
20.3107
 10
35.8799
 20
19.9525
 10
35.6251
 20
19.5599
 10
35.3533
 20
19.1415
 10
35.0703
 20
18.706
 10
34.7817
 20
18.2623
 10
34.4933
 20
17.8189
 10
34.2106
 20
17.3847
 10
33.9393
 20
16.9684
 10
33.6852
 20
16.5786
 10
33.4538
 20
16.2242
 10
33.251
 20
15.9137
 10
33.0822
 20
15.656
 10
32.9533
 20
15.4597
 10
32.8699
 20
15.3336
 10
32.8376
 20
15.2864
 10
32.8361
 20
15.2851
 10
32.8345
 20
15.284
 10
32.8329
 20
15.2829
 10
32.8311
 20
15.282
 10
32.8292
 20
15.2813
 10
32.8273
 20
15.2806
 10
32.8253
 20
15.2802
 10
32.8233
 20
15.2798
 10
32.8212
 20
15.2796
 10
32.8191
 20
15.2795
  0
LWPOLYLINE
100
AcDbEntity
  8
0
100
AcDbPolyline
 90
102
 70
1
 10
30.1236
 20
13.7628
 10
30.1173
 20
13.763
 10
30.1103
 20
13.7634
 10
30.1028
 20
13.764
 10
30.0947
 20
13.7648
 10
30.0862
 20
13.7658
 10
30.0772
 20
13.7669
 10
30.0679
 20
13.7681
 10
30.0581
 20
13.7695
 10
30.048
 20
13.7711
 10
30.0376
 20
13.7728
 10
30.0269
 20
13.7747
 10
30.0159
 20
13.7767
 10
29.878
 20
13.8142
 10
29.5283
 20
13.9128
 10
28.9904
 20
14.0655
 10
28.2878
 20
14.2657
 10
27.4442
 20
14.5065
 10
26.4832
 20
14.7813
 10
25.4283
 20
15.0831
 10
24.303
 20
15.4054
 10
23.1311
 20
15.7412
 10
21.936
 20
16.0839
 10
20.7414
 20
16.4267
 10
19.5708
 20
16.7627
 10
18.4478
 20
17.0853
 10
17.396
 20
17.3877
 10
16.439
 20
17.663
 10
15.6003
 20
17.9046
 10
14.9036
 20
18.1057
 10
14.3724
 20
18.2595
 10
14.0304
 20
18.3592
 10
13.901
 20
18.3981
 10
13.8938
 20
18.4014
 10
13.8877
 20
18.4047
 10
13.8825
 20
18.4078
 10
13.8783
 20
18.4108
 10
13.8751
 20
18.4137
 10
13.8729
 20
18.4165
 10
13.8717
 20
18.4192
 10
13.8714
 20
18.4218
 10
13.8722
 20
18.4244
 10
13.8739
 20
18.4268
 10
13.8767
 20
18.4292
 10
13.8804
 20
18.4315
 10
13.8852
 20
18.4338
 10
13.8909
 20
18.436
 10
13.8977
 20
18.4382
 10
13.9055
 20
18.4403
 10
13.9143
 20
18.4424
 10
13.9242
 20
18.4445
 10
13.9351
 20
18.4466
 10
13.947
 20
18.4487
 10
14.1193
 20
18.4742
 10
14.4762
 20
18.5228
 10
14.9968
 20
18.5918
 10
15.6603
 20
18.6785
 10
16.446
 20
18.7804
 10
17.3332
 20
18.8948
 10
18.3009
 20
19.019
 10
19.3286
 20
19.1505
 10
20.3953
 20
19.2865
 10
21.4803
 20
19.4245
 10
22.5629
 20
19.5618
 10
23.6223
 20
19.6958
 10
24.6376
 20
19.8238
 10
25.5882
 20
19.9432
 10
26.4533
 20
20.0514
 10
27.2121
 20
20.1457
 10
27.8437
 20
20.2234
 10
28.3276
 20
20.2821
 10
28.6427
 20
20.3189
 10
28.7685
 20
20.3313
 10
28.9711
 20
20.3221
 10
29.5602
 20
17.054
 10
29.6081
 20
16.7872
 10
29.6549
 20
16.526
 10
29.7005
 20
16.2712
 10
29.7448
 20
16.0237
 10
29.7876
 20
15.7844
 10
29.8287
 20
15.5542
 10
29.8681
 20
15.3338
 10
29.9055
 20
15.1243
 10
29.9408
 20
14.9264
 10
29.9739
 20
14.741
 10
30.0047
 20
14.569
 10
30.0328
 20
14.4113
 10
30.0583
 20
14.2687
 10
30.081
 20
14.1421
 10
30.1007
 20
14.0324
 10
30.1173
 20
13.9405
 10
30.1306
 20
13.8671
 10
30.1405
 20
13.8133
 10
30.1468
 20
13.7798
 10
30.1494
 20
13.7675
 10
30.149
 20
13.7662
 10
30.1477
 20
13.7651
 10
30.1455
 20
13.7642
 10
30.1426
 20
13.7636
 10
30.1389
 20
13.7631
 10
30.1345
 20
13.7628
 10
30.1294
 20
13.7627
  0
ENDSEC
  0
EOF
