<?xml version="1.0" standalone="no"?>
<!DOCTYPE svg PUBLIC "-//W3C//DTD SVG 20010904//EN"
 "http://www.w3.org/TR/2001/REC-SVG-20010904/DTD/svg10.dtd">
<svg version="1.0" xmlns="http://www.w3.org/2000/svg"
 width="1080.000000pt" height="1080.000000pt" viewBox="0 0 1080.000000 1080.000000"
 preserveAspectRatio="xMidYMid meet">
<metadata>
Created by potrace 1.16, written by Peter Selinger 2001-2019
</metadata>
<g transform="translate(0.000000,1080.000000) scale(0.100000,-0.100000)"
fill="#000000" stroke="none">
<path d="M5710 8925 c-63 -20 -116 -68 -150 -135 -32 -62 -3371 -4597 -3402
-4618 -45 -32 -63 -125 -34 -181 8 -15 32 -39 53 -53 21 -15 1066 -407 2343
-879 2289 -846 2306 -852 2390 -856 59 -2 104 2 147 13 54 15 70 25 121 78 38
40 65 78 76 111 10 28 25 64 32 80 8 17 217 528 464 1137 314 775 447 1113
443 1129 -4 12 -209 401 -458 863 -248 463 -737 1372 -1085 2021 -474 883
-643 1188 -669 1213 -89 80 -180 107 -271 77z m236 -2563 c171 -955 309 -1740
305 -1743 -3 -4 -820 -88 -1816 -188 -995 -100 -1823 -183 -1838 -186 -17 -3
-27 -1 -25 5 7 22 3051 3860 3057 3855 3 -4 146 -788 317 -1743z m1213 -271
c463 -712 840 -1295 838 -1298 -9 -8 -1136 -117 -1143 -110 -6 5 -375 1816
-547 2687 -5 21 -4 31 2 25 5 -6 388 -592 850 -1304z m822 -1468 c-10 -19
-840 -1295 -847 -1302 -2 -2 -6 -2 -8 0 -10 9 -239 1169 -232 1176 6 6 1009
140 1069 142 23 1 26 -2 18 -16z m-1559 -918 c70 -390 127 -712 128 -714 0 -2
-13 -1 -29 2 -35 7 -3479 995 -3501 1004 -11 5 -8 8 10 11 106 19 3185 410
3220 409 l44 -2 128 -710z"/>
</g>
</svg>
