999
DXF from OpenSCAD
  0
SECTION
  2
HEADER
  9
$ACADVER
  1
AC1006
  9
$INSBASE
 10
0.0
 20
0.0
 30
0.0
  9
$EXTMIN
 10
3.46962
 20
4.88042
  9
$EXTMAX
 10
31.4696
 20
31.582
  9
$LINMIN
 10
3.46962
 20
4.88042
  9
$LINMAX
 10
31.4696
 20
31.582
  0
ENDSEC
  0
SECTION
  2
TABLES
  0
TABLE
  2
LTYPE
 70
1
  0
LTYPE
  2
CONTINUOUS
 70
64
  3
Solid line
 72
65
 73
0
 40
0.000000
  0
ENDTAB
  0
TABLE
  2
LAYER
 70
6
  0
LAYER
  2
0
 70
64
 62
7
  6
CONTINUOUS
  0
ENDTAB
  0
TABLE
  2
STYLE
 70
0
  0
ENDTAB
  0
ENDSEC
  0
SECTION
  2
BLOCKS
  0
ENDSEC
  0
SECTION
  2
ENTITIES
  0
LWPOLYLINE
100
AcDbEntity
  8
0
100
AcDbPolyline
 90
424
 70
1
 10
21.5014
 20
4.8806
 10
21.5164
 20
4.88116
 10
21.5308
 20
4.88211
 10
21.5449
 20
4.88348
 10
21.5586
 20
4.88528
 10
21.572
 20
4.88753
 10
21.5851
 20
4.89026
 10
21.5981
 20
4.89349
 10
21.6109
 20
4.89724
 10
21.6236
 20
4.90152
 10
21.6362
 20
4.90636
 10
21.6488
 20
4.91177
 10
21.6615
 20
4.91779
 10
21.6743
 20
4.92442
 10
21.6873
 20
4.93168
 10
21.7004
 20
4.93961
 10
21.7138
 20
4.94822
 10
21.7275
 20
4.95752
 10
21.7416
 20
4.96754
 10
21.756
 20
4.9783
 10
21.8928
 20
5.08367
 10
22.0879
 20
5.23701
 10
22.3343
 20
5.43264
 10
22.625
 20
5.66486
 10
22.953
 20
5.92798
 10
23.3113
 20
6.21631
 10
23.6928
 20
6.52417
 10
24.0906
 20
6.84585
 10
24.4977
 20
7.17568
 10
24.9071
 20
7.50796
 10
25.3118
 20
7.83699
 10
25.7047
 20
8.1571
 10
26.0788
 20
8.46258
 10
26.4273
 20
8.74776
 10
26.7429
 20
9.00693
 10
27.0188
 20
9.23441
 10
27.248
 20
9.42451
 10
27.4234
 20
9.57153
 10
27.538
 20
9.66979
 10
27.5849
 20
9.7136
 10
27.5987
 20
9.73623
 10
27.6247
 20
9.78321
 10
27.6623
 20
9.85349
 10
27.7109
 20
9.94605
 10
27.7702
 20
10.0599
 10
27.8395
 20
10.1939
 10
27.9183
 20
10.3471
 10
28.0061
 20
10.5185
 10
28.1024
 20
10.7071
 10
28.2067
 20
10.9118
 10
28.3184
 20
11.1315
 10
28.4371
 20
11.3653
 10
28.5621
 20
11.6122
 10
28.6931
 20
11.871
 10
28.8293
 20
12.1408
 10
28.9704
 20
12.4206
 10
29.1159
 20
12.7093
 10
29.2651
 20
13.0059
 10
29.4176
 20
13.3093
 10
29.5728
 20
13.6186
 10
29.831
 20
14.1341
 10
30.0647
 20
14.6008
 10
30.2751
 20
15.0214
 10
30.4635
 20
15.3984
 10
30.631
 20
15.7343
 10
30.7788
 20
16.0317
 10
30.9083
 20
16.2931
 10
31.0205
 20
16.5212
 10
31.1168
 20
16.7185
 10
31.1983
 20
16.8874
 10
31.2663
 20
17.0307
 10
31.322
 20
17.1507
 10
31.3665
 20
17.2502
 10
31.4012
 20
17.3316
 10
31.4272
 20
17.3976
 10
31.4457
 20
17.4506
 10
31.458
 20
17.4932
 10
31.4653
 20
17.528
 10
31.4687
 20
17.5576
 10
31.4696
 20
17.5844
 10
31.4682
 20
17.6118
 10
31.4634
 20
17.646
 10
31.4544
 20
17.689
 10
31.4405
 20
17.7431
 10
31.4207
 20
17.8104
 10
31.3944
 20
17.893
 10
31.3608
 20
17.9931
 10
31.319
 20
18.1129
 10
31.2682
 20
18.2545
 10
31.2076
 20
18.4201
 10
31.1365
 20
18.6119
 10
31.0541
 20
18.832
 10
30.9595
 20
19.0825
 10
30.8519
 20
19.3657
 10
30.7306
 20
19.6837
 10
30.5948
 20
20.0385
 10
30.4436
 20
20.4326
 10
30.2763
 20
20.8678
 10
30.092
 20
21.3465
 10
29.8901
 20
21.8708
 10
28.3139
 20
25.9716
 10
28.0709
 20
26.1909
 10
28.0433
 20
26.2162
 10
28.0006
 20
26.2552
 10
27.9435
 20
26.3073
 10
27.8726
 20
26.3718
 10
27.7886
 20
26.4481
 10
27.6922
 20
26.5356
 10
27.5842
 20
26.6336
 10
27.4652
 20
26.7416
 10
27.336
 20
26.859
 10
27.1971
 20
26.9849
 10
27.0494
 20
27.119
 10
26.8935
 20
27.2604
 10
26.7301
 20
27.4087
 10
26.5599
 20
27.5631
 10
26.3836
 20
27.723
 10
26.2019
 20
27.8879
 10
26.0155
 20
28.057
 10
25.825
 20
28.2298
 10
25.6313
 20
28.4057
 10
25.4349
 20
28.5839
 10
25.2385
 20
28.7618
 10
25.0458
 20
28.9366
 10
24.8572
 20
29.1077
 10
24.6736
 20
29.2745
 10
24.4955
 20
29.4364
 10
24.3236
 20
29.5928
 10
24.1585
 20
29.7431
 10
24.001
 20
29.8866
 10
23.8516
 20
30.0229
 10
23.7111
 20
30.1512
 10
23.58
 20
30.271
 10
23.459
 20
30.3817
 10
23.3488
 20
30.4826
 10
23.25
 20
30.5732
 10
23.1633
 20
30.6528
 10
23.0894
 20
30.7209
 10
23.0288
 20
30.7768
 10
22.9823
 20
30.8199
 10
22.9504
 20
30.8497
 10
22.9339
 20
30.8655
 10
22.9165
 20
30.8829
 10
22.8978
 20
30.8998
 10
22.8779
 20
30.9161
 10
22.857
 20
30.9317
 10
22.8352
 20
30.9465
 10
22.8127
 20
30.9606
 10
22.7897
 20
30.9738
 10
22.7663
 20
30.9861
 10
22.7426
 20
30.9974
 10
22.7188
 20
31.0077
 10
22.695
 20
31.0168
 10
22.6715
 20
31.0249
 10
22.6483
 20
31.0317
 10
22.6256
 20
31.0373
 10
22.6036
 20
31.0416
 10
22.5824
 20
31.0444
 10
22.5621
 20
31.0459
 10
22.543
 20
31.0458
 10
22.5251
 20
31.0442
 10
22.5087
 20
31.041
 10
22.4375
 20
31.0423
 10
22.2505
 20
31.0509
 10
21.9605
 20
31.066
 10
21.5801
 20
31.0868
 10
21.1218
 20
31.1125
 10
20.5984
 20
31.1424
 10
20.0226
 20
31.1758
 10
19.4069
 20
31.2119
 10
18.7641
 20
31.2499
 10
18.1067
 20
31.2891
 10
17.4474
 20
31.3286
 10
16.7989
 20
31.3678
 10
16.1739
 20
31.4059
 10
15.5849
 20
31.4422
 10
15.0447
 20
31.4757
 10
14.5659
 20
31.5059
 10
14.161
 20
31.532
 10
13.8429
 20
31.5531
 10
13.6241
 20
31.5686
 10
13.5174
 20
31.5776
 10
13.5028
 20
31.5794
 10
13.4886
 20
31.5808
 10
13.4745
 20
31.5816
 10
13.4607
 20
31.582
 10
13.447
 20
31.582
 10
13.4335
 20
31.5814
 10
13.42
 20
31.5804
 10
13.4066
 20
31.5788
 10
13.3932
 20
31.5768
 10
13.3798
 20
31.5743
 10
13.3664
 20
31.5712
 10
13.3528
 20
31.5677
 10
13.3392
 20
31.5636
 10
13.3254
 20
31.559
 10
13.3114
 20
31.5539
 10
13.2971
 20
31.5483
 10
13.2826
 20
31.5421
 10
13.2678
 20
31.5353
 10
13.2527
 20
31.5281
 10
13.2372
 20
31.5203
 10
13.2246
 20
31.5137
 10
13.2111
 20
31.5063
 10
13.1968
 20
31.498
 10
13.1818
 20
31.4889
 10
13.1662
 20
31.4791
 10
13.1501
 20
31.4687
 10
13.1335
 20
31.4576
 10
13.1166
 20
31.4461
 10
13.0994
 20
31.434
 10
13.082
 20
31.4215
 10
13.0645
 20
31.4087
 10
13.0469
 20
31.3956
 10
13.0295
 20
31.3822
 10
13.0122
 20
31.3687
 10
12.9952
 20
31.3551
 10
12.9784
 20
31.3414
 10
12.9621
 20
31.3277
 10
12.9463
 20
31.3141
 10
12.9311
 20
31.3006
 10
12.9166
 20
31.2874
 10
12.8935
 20
31.2673
 10
12.854
 20
31.2328
 10
12.7988
 20
31.1846
 10
12.7287
 20
31.1232
 10
12.6443
 20
31.0494
 10
12.5465
 20
30.9636
 10
12.4358
 20
30.8667
 10
12.3131
 20
30.7592
 10
12.1791
 20
30.6417
 10
12.0344
 20
30.5149
 10
11.8799
 20
30.3794
 10
11.7161
 20
30.2359
 10
11.5439
 20
30.0849
 10
11.364
 20
29.9272
 10
11.1771
 20
29.7633
 10
10.9839
 20
29.594
 10
10.7851
 20
29.4197
 10
10.5814
 20
29.2413
 10
10.3737
 20
29.0592
 10
10.1625
 20
28.8742
 10
9.87952
 20
28.6263
 10
9.6155
 20
28.3948
 10
9.36987
 20
28.179
 10
9.14209
 20
27.9786
 10
8.93162
 20
27.793
 10
8.73791
 20
27.6217
 10
8.56041
 20
27.4642
 10
8.39857
 20
27.3201
 10
8.25185
 20
27.1888
 10
8.1197
 20
27.0697
 10
8.00157
 20
26.9625
 10
7.89692
 20
26.8667
 10
7.8052
 20
26.7816
 10
7.72586
 20
26.7069
 10
7.65836
 20
26.642
 10
7.60215
 20
26.5864
 10
7.55668
 20
26.5397
 10
7.52141
 20
26.5013
 10
7.49579
 20
26.4707
 10
7.47927
 20
26.4474
 10
7.46376
 20
26.4212
 10
7.43584
 20
26.3715
 10
7.39602
 20
26.2994
 10
7.34486
 20
26.2059
 10
7.28288
 20
26.0919
 10
7.21062
 20
25.9585
 10
7.12862
 20
25.8067
 10
7.03742
 20
25.6375
 10
6.93756
 20
25.4519
 10
6.82956
 20
25.251
 10
6.71396
 20
25.0356
 10
6.59131
 20
24.8069
 10
6.46214
 20
24.5658
 10
6.32699
 20
24.3134
 10
6.18639
 20
24.0506
 10
6.04087
 20
23.7785
 10
5.89098
 20
23.498
 10
5.73726
 20
23.2102
 10
5.58023
 20
22.9161
 10
5.42044
 20
22.6167
 10
3.46962
 20
18.9614
 10
3.48312
 20
18.769
 10
3.48754
 20
18.7411
 10
3.4971
 20
18.7021
 10
3.51232
 20
18.6505
 10
3.53375
 20
18.5851
 10
3.56191
 20
18.5045
 10
3.59734
 20
18.4074
 10
3.64056
 20
18.2924
 10
3.69211
 20
18.1582
 10
3.75252
 20
18.0035
 10
3.82232
 20
17.827
 10
3.90205
 20
17.6272
 10
3.99223
 20
17.4029
 10
4.09339
 20
17.1526
 10
4.20608
 20
16.8752
 10
4.33081
 20
16.5692
 10
4.46812
 20
16.2332
 10
4.61854
 20
15.866
 10
4.78261
 20
15.4663
 10
4.96086
 20
15.0326
 10
5.15381
 20
14.5636
 10
5.30358
 20
14.2016
 10
5.44798
 20
13.8531
 10
5.5868
 20
13.5186
 10
5.71983
 20
13.1985
 10
5.84687
 20
12.8934
 10
5.96771
 20
12.6039
 10
6.08213
 20
12.3303
 10
6.18994
 20
12.0733
 10
6.29093
 20
11.8333
 10
6.38488
 20
11.6108
 10
6.4716
 20
11.4064
 10
6.55087
 20
11.2206
 10
6.62248
 20
11.0538
 10
6.68623
 20
10.9066
 10
6.74191
 20
10.7794
 10
6.78931
 20
10.6729
 10
6.82823
 20
10.5875
 10
6.85845
 20
10.5237
 10
6.87978
 20
10.482
 10
6.892
 20
10.4629
 10
6.90694
 20
10.4475
 10
6.93817
 20
10.4161
 10
6.985
 20
10.3692
 10
7.04674
 20
10.3077
 10
7.12272
 20
10.232
 10
7.21225
 20
10.143
 10
7.31466
 20
10.0413
 10
7.42926
 20
9.92761
 10
7.55538
 20
9.80252
 10
7.69232
 20
9.66677
 10
7.83942
 20
9.52101
 10
7.99598
 20
9.36593
 10
8.16134
 20
9.20221
 10
8.3348
 20
9.03051
 10
8.51569
 20
8.85152
 10
8.70333
 20
8.66591
 10
8.89703
 20
8.47435
 10
9.09612
 20
8.27753
 10
9.2999
 20
8.07611
 10
9.50771
 20
7.87078
 10
9.74434
 20
7.6373
 10
9.97111
 20
7.41386
 10
10.1878
 20
7.20067
 10
10.3943
 20
6.99789
 10
10.5904
 20
6.80572
 10
10.7759
 20
6.62433
 10
10.9507
 20
6.4539
 10
11.1144
 20
6.29463
 10
11.267
 20
6.14668
 10
11.4083
 20
6.01025
 10
11.5381
 20
5.88551
 10
11.6562
 20
5.77264
 10
11.7623
 20
5.67184
 10
11.8564
 20
5.58328
 10
11.9383
 20
5.50714
 10
12.0077
 20
5.44361
 10
12.0645
 20
5.39287
 10
12.1084
 20
5.35509
 10
12.1394
 20
5.33047
 10
12.1572
 20
5.31919
 10
12.1683
 20
5.31519
 10
12.1812
 20
5.31131
 10
12.196
 20
5.30754
 10
12.2125
 20
5.30391
 10
12.2308
 20
5.30042
 10
12.2507
 20
5.29708
 10
12.2722
 20
5.2939
 10
12.2952
 20
5.29089
 10
12.3198
 20
5.28807
 10
12.3458
 20
5.28544
 10
12.3732
 20
5.28301
 10
12.4019
 20
5.28079
 10
12.4319
 20
5.2788
 10
12.4632
 20
5.27704
 10
12.4956
 20
5.27552
 10
12.5291
 20
5.27426
 10
12.5638
 20
5.27326
 10
12.5994
 20
5.27253
 10
12.636
 20
5.27209
 10
12.6736
 20
5.27194
 10
12.7204
 20
5.27081
 10
12.7934
 20
5.26846
 10
12.8913
 20
5.26495
 10
13.0128
 20
5.26033
 10
13.157
 20
5.25464
 10
13.3224
 20
5.24794
 10
13.508
 20
5.24028
 10
13.7126
 20
5.23171
 10
13.9349
 20
5.22227
 10
14.1738
 20
5.21203
 10
14.4281
 20
5.20103
 10
14.6966
 20
5.18932
 10
14.9781
 20
5.17695
 10
15.2715
 20
5.16397
 10
15.5754
 20
5.15043
 10
15.8889
 20
5.13639
 10
16.2105
 20
5.1219
 10
16.5392
 20
5.107
 10
16.8738
 20
5.09174
 10
17.2131
 20
5.07618
 10
17.5515
 20
5.06017
 10
17.8834
 20
5.04455
 10
18.2078
 20
5.02937
 10
18.5236
 20
5.01467
 10
18.8295
 20
5.0005
 10
19.1246
 20
4.98691
 10
19.4076
 20
4.97392
 10
19.6775
 20
4.96159
 10
19.9332
 20
4.94996
 10
20.1735
 20
4.93907
 10
20.3973
 20
4.92896
 10
20.6036
 20
4.91968
 10
20.7911
 20
4.91128
 10
20.9588
 20
4.90378
 10
21.1055
 20
4.89725
 10
21.2302
 20
4.89171
 10
21.3317
 20
4.88722
 10
21.4089
 20
4.88381
 10
21.4607
 20
4.88153
 10
21.486
 20
4.88042
  0
LWPOLYLINE
100
AcDbEntity
  8
0
100
AcDbPolyline
 90
164
 70
1
 10
19.2437
 20
24.878
 10
19.215
 20
24.8878
 10
19.1698
 20
24.9037
 10
19.1087
 20
24.9257
 10
19.0325
 20
24.9533
 10
18.9419
 20
24.9863
 10
18.8375
 20
25.0244
 10
18.7202
 20
25.0674
 10
18.5905
 20
25.115
 10
18.4493
 20
25.167
 10
18.2971
 20
25.223
 10
18.1348
 20
25.2829
 10
17.963
 20
25.3463
 10
17.7825
 20
25.413
 10
17.5939
 20
25.4826
 10
17.3979
 20
25.5551
 10
17.1954
 20
25.63
 10
16.9869
 20
25.7071
 10
16.7732
 20
25.7862
 10
16.555
 20
25.8669
 10
13.8886
 20
26.8592
 10
13.8987
 20
27.1225
 10
13.9
 20
27.1493
 10
13.9016
 20
27.1849
 10
13.9035
 20
27.2288
 10
13.9058
 20
27.2806
 10
13.9085
 20
27.3398
 10
13.9115
 20
27.4061
 10
13.9147
 20
27.479
 10
13.9183
 20
27.5579
 10
13.9221
 20
27.6426
 10
13.9262
 20
27.7325
 10
13.9305
 20
27.8272
 10
13.935
 20
27.9263
 10
13.9396
 20
28.0294
 10
13.9445
 20
28.1359
 10
13.9495
 20
28.2454
 10
13.9547
 20
28.3576
 10
13.96
 20
28.4719
 10
13.9654
 20
28.588
 10
13.9708
 20
28.7053
 10
13.9764
 20
28.8235
 10
13.9814
 20
28.9412
 10
13.9864
 20
29.0571
 10
13.9912
 20
29.1707
 10
13.996
 20
29.2817
 10
14.0006
 20
29.3897
 10
14.0051
 20
29.4942
 10
14.0094
 20
29.5949
 10
14.0135
 20
29.6913
 10
14.0174
 20
29.7831
 10
14.0211
 20
29.8698
 10
14.0245
 20
29.9511
 10
14.0276
 20
30.0264
 10
14.0305
 20
30.0955
 10
14.033
 20
30.1579
 10
14.0352
 20
30.2132
 10
14.0371
 20
30.2611
 10
14.0385
 20
30.301
 10
14.0396
 20
30.3326
 10
14.0403
 20
30.3555
 10
14.0405
 20
30.3693
 10
14.0406
 20
30.3829
 10
14.0409
 20
30.3953
 10
14.0414
 20
30.4066
 10
14.0422
 20
30.4169
 10
14.0434
 20
30.4261
 10
14.045
 20
30.4343
 10
14.047
 20
30.4417
 10
14.0495
 20
30.4482
 10
14.0525
 20
30.4539
 10
14.0561
 20
30.4588
 10
14.0604
 20
30.463
 10
14.0653
 20
30.4665
 10
14.0709
 20
30.4695
 10
14.0774
 20
30.4719
 10
14.0846
 20
30.4738
 10
14.0928
 20
30.4752
 10
14.1018
 20
30.4762
 10
14.1119
 20
30.4769
 10
14.1229
 20
30.4772
 10
14.135
 20
30.4773
 10
14.1556
 20
30.4768
 10
14.2013
 20
30.4751
 10
14.2713
 20
30.4723
 10
14.3644
 20
30.4685
 10
14.4795
 20
30.4637
 10
14.6157
 20
30.458
 10
14.7719
 20
30.4514
 10
14.9469
 20
30.444
 10
15.1399
 20
30.4357
 10
15.3496
 20
30.4267
 10
15.5752
 20
30.417
 10
15.8154
 20
30.4066
 10
16.0693
 20
30.3956
 10
16.3359
 20
30.3841
 10
16.614
 20
30.372
 10
16.9026
 20
30.3594
 10
17.2007
 20
30.3464
 10
17.5072
 20
30.333
 10
17.8211
 20
30.3192
 10
18.1413
 20
30.3052
 10
18.4612
 20
30.2911
 10
18.7743
 20
30.2773
 10
19.0794
 20
30.2638
 10
19.3757
 20
30.2506
 10
19.662
 20
30.2379
 10
19.9374
 20
30.2255
 10
20.2007
 20
30.2137
 10
20.451
 20
30.2024
 10
20.6873
 20
30.1917
 10
20.9084
 20
30.1816
 10
21.1135
 20
30.1722
 10
21.3014
 20
30.1635
 10
21.471
 20
30.1556
 10
21.6215
 20
30.1486
 10
21.7518
 20
30.1424
 10
21.8607
 20
30.1372
 10
21.9474
 20
30.1329
 10
22.0107
 20
30.1296
 10
22.0496
 20
30.1274
 10
22.0632
 20
30.1263
 10
22.0663
 20
30.0961
 10
22.0715
 20
30.0121
 10
22.0784
 20
29.8803
 10
22.087
 20
29.7063
 10
22.0968
 20
29.496
 10
22.1078
 20
29.2551
 10
22.1196
 20
28.9895
 10
22.132
 20
28.7047
 10
22.1447
 20
28.4067
 10
22.1577
 20
28.1013
 10
22.1705
 20
27.7941
 10
22.183
 20
27.4909
 10
22.1949
 20
27.1976
 10
22.206
 20
26.9198
 10
22.216
 20
26.6635
 10
22.2247
 20
26.4342
 10
22.232
 20
26.2379
 10
22.2374
 20
26.0802
 10
22.2408
 20
25.967
 10
22.242
 20
25.9041
 10
22.242
 20
25.7353
 10
20.7637
 20
25.3033
 10
20.6433
 20
25.2682
 10
20.5252
 20
25.2339
 10
20.4099
 20
25.2004
 10
20.2977
 20
25.168
 10
20.1891
 20
25.1366
 10
20.0845
 20
25.1065
 10
19.9842
 20
25.0777
 10
19.8886
 20
25.0503
 10
19.7981
 20
25.0245
 10
19.7132
 20
25.0004
 10
19.6342
 20
24.978
 10
19.5616
 20
24.9575
 10
19.4956
 20
24.939
 10
19.4368
 20
24.9226
 10
19.3854
 20
24.9084
 10
19.342
 20
24.8965
 10
19.3068
 20
24.8871
 10
19.2804
 20
24.8803
 10
19.263
 20
24.8761
 10
19.2551
 20
24.8746
  0
LWPOLYLINE
100
AcDbEntity
  8
0
100
AcDbPolyline
 90
102
 70
1
 10
10.8764
 20
24.9102
 10
10.826
 20
24.9406
 10
10.7503
 20
24.9875
 10
10.6525
 20
25.0488
 10
10.5356
 20
25.1226
 10
10.4029
 20
25.2067
 10
10.2574
 20
25.2992
 10
10.1024
 20
25.398
 10
9.94106
 20
25.5012
 10
9.77646
 20
25.6066
 10
9.61178
 20
25.7124
 10
9.45018
 20
25.8164
 10
9.29481
 20
25.9166
 10
9.14884
 20
26.011
 10
9.01542
 20
26.0976
 10
8.89771
 20
26.1744
 10
8.79886
 20
26.2394
 10
8.72203
 20
26.2904
 10
8.67038
 20
26.3256
 10
8.64706
 20
26.3428
 10
8.64464
 20
26.35
 10
8.64896
 20
26.362
 10
8.66067
 20
26.3792
 10
8.68046
 20
26.4023
 10
8.70897
 20
26.4317
 10
8.74687
 20
26.4681
 10
8.79483
 20
26.5121
 10
8.85351
 20
26.5641
 10
8.92356
 20
26.6248
 10
9.00567
 20
26.6947
 10
9.10047
 20
26.7743
 10
9.20865
 20
26.8643
 10
9.33086
 20
26.9652
 10
9.46777
 20
27.0775
 10
9.62004
 20
27.2019
 10
9.78834
 20
27.3388
 10
9.97331
 20
27.4889
 10
10.1756
 20
27.6527
 10
10.396
 20
27.8307
 10
10.635
 20
28.0236
 10
10.8015
 20
28.1575
 10
10.9645
 20
28.2883
 10
11.1234
 20
28.4158
 10
11.2777
 20
28.5395
 10
11.4269
 20
28.6589
 10
11.5704
 20
28.7737
 10
11.7077
 20
28.8834
 10
11.8383
 20
28.9875
 10
11.9616
 20
29.0857
 10
12.077
 20
29.1775
 10
12.1841
 20
29.2625
 10
12.2824
 20
29.3402
 10
12.3712
 20
29.4103
 10
12.45
 20
29.4723
 10
12.5183
 20
29.5258
 10
12.5756
 20
29.5703
 10
12.6213
 20
29.6055
 10
12.655
 20
29.6309
 10
12.6759
 20
29.646
 10
12.6837
 20
29.6504
 10
12.684
 20
29.6444
 10
12.683
 20
29.6287
 10
12.6806
 20
29.6036
 10
12.677
 20
29.5696
 10
12.6721
 20
29.5271
 10
12.6661
 20
29.4764
 10
12.659
 20
29.418
 10
12.6508
 20
29.3522
 10
12.6416
 20
29.2795
 10
12.6314
 20
29.2003
 10
12.6203
 20
29.1149
 10
12.6084
 20
29.0237
 10
12.5956
 20
28.9272
 10
12.5821
 20
28.8257
 10
12.5679
 20
28.7197
 10
12.553
 20
28.6095
 10
12.5375
 20
28.4955
 10
12.5215
 20
28.3782
 10
12.5049
 20
28.2579
 10
12.4879
 20
28.135
 10
12.2753
 20
26.6331
 10
11.6037
 20
25.7623
 10
11.5484
 20
25.6911
 10
11.4942
 20
25.6215
 10
11.4411
 20
25.5538
 10
11.3894
 20
25.4881
 10
11.3392
 20
25.4246
 10
11.2908
 20
25.3637
 10
11.2442
 20
25.3054
 10
11.1998
 20
25.2501
 10
11.1577
 20
25.198
 10
11.1181
 20
25.1493
 10
11.0811
 20
25.1042
 10
11.0469
 20
25.0629
 10
11.0158
 20
25.0257
 10
10.9879
 20
24.9928
 10
10.9634
 20
24.9644
 10
10.9425
 20
24.9408
 10
10.9253
 20
24.9222
 10
10.9121
 20
24.9087
 10
10.903
 20
24.9007
 10
10.8983
 20
24.8983
  0
LWPOLYLINE
100
AcDbEntity
  8
0
100
AcDbPolyline
 90
162
 70
1
 10
23.5212
 20
24.6283
 10
23.5182
 20
24.6323
 10
23.5132
 20
24.6393
 10
23.5064
 20
24.6492
 10
23.4978
 20
24.6617
 10
23.4876
 20
24.6769
 10
23.4757
 20
24.6945
 10
23.4623
 20
24.7144
 10
23.4476
 20
24.7365
 10
23.4314
 20
24.7607
 10
23.4141
 20
24.7869
 10
23.3955
 20
24.8149
 10
23.3759
 20
24.8445
 10
23.3553
 20
24.8758
 10
23.3338
 20
24.9085
 10
23.3114
 20
24.9425
 10
23.2884
 20
24.9776
 10
23.2646
 20
25.0139
 10
23.2404
 20
25.0511
 10
23.2156
 20
25.0891
 10
23.1905
 20
25.1278
 10
22.8833
 20
25.6003
 10
22.8833
 20
25.8197
 10
22.8835
 20
25.843
 10
22.8842
 20
25.8762
 10
22.8853
 20
25.9189
 10
22.8868
 20
25.9705
 10
22.8886
 20
26.0306
 10
22.8909
 20
26.0987
 10
22.8935
 20
26.1743
 10
22.8964
 20
26.257
 10
22.8996
 20
26.3462
 10
22.9031
 20
26.4415
 10
22.907
 20
26.5425
 10
22.911
 20
26.6486
 10
22.9153
 20
26.7593
 10
22.9199
 20
26.8743
 10
22.9246
 20
26.9929
 10
22.9295
 20
27.1149
 10
22.9346
 20
27.2395
 10
22.9399
 20
27.3665
 10
22.9453
 20
27.4953
 10
22.9508
 20
27.6254
 10
22.9563
 20
27.7556
 10
22.9617
 20
27.8837
 10
22.967
 20
28.0092
 10
22.9721
 20
28.1318
 10
22.977
 20
28.2509
 10
22.9818
 20
28.3662
 10
22.9863
 20
28.4771
 10
22.9906
 20
28.5833
 10
22.9947
 20
28.6843
 10
22.9985
 20
28.7797
 10
23.002
 20
28.8689
 10
23.0053
 20
28.9517
 10
23.0082
 20
29.0275
 10
23.0108
 20
29.0959
 10
23.013
 20
29.1565
 10
23.0149
 20
29.2088
 10
23.0164
 20
29.2524
 10
23.0174
 20
29.2868
 10
23.0181
 20
29.3116
 10
23.0183
 20
29.3264
 10
23.0186
 20
29.3421
 10
23.0196
 20
29.3554
 10
23.0221
 20
29.3659
 10
23.0264
 20
29.3732
 10
23.0332
 20
29.3768
 10
23.0429
 20
29.3764
 10
23.0562
 20
29.3713
 10
23.0734
 20
29.3614
 10
23.0952
 20
29.346
 10
23.1221
 20
29.3247
 10
23.1546
 20
29.2972
 10
23.1933
 20
29.263
 10
23.2386
 20
29.2216
 10
23.2912
 20
29.1727
 10
23.3515
 20
29.1157
 10
23.4201
 20
29.0503
 10
23.4975
 20
28.9759
 10
23.5842
 20
28.8923
 10
23.6808
 20
28.7989
 10
23.7878
 20
28.6953
 10
23.854
 20
28.6311
 10
23.9255
 20
28.5614
 10
24.002
 20
28.4867
 10
24.0829
 20
28.4075
 10
24.1678
 20
28.3241
 10
24.2562
 20
28.2371
 10
24.3477
 20
28.147
 10
24.4417
 20
28.0542
 10
24.5377
 20
27.9592
 10
24.6354
 20
27.8625
 10
24.7343
 20
27.7645
 10
24.8338
 20
27.6656
 10
24.9335
 20
27.5665
 10
25.0329
 20
27.4675
 10
25.1315
 20
27.3692
 10
25.2289
 20
27.2719
 10
25.3247
 20
27.1762
 10
25.4182
 20
27.0825
 10
25.5091
 20
26.9913
 10
25.5969
 20
26.9031
 10
25.7393
 20
26.7607
 10
25.868
 20
26.6318
 10
25.9837
 20
26.5157
 10
26.0871
 20
26.4117
 10
26.1786
 20
26.319
 10
26.2591
 20
26.2371
 10
26.329
 20
26.1651
 10
26.389
 20
26.1025
 10
26.4396
 20
26.0485
 10
26.4816
 20
26.0024
 10
26.5155
 20
25.9634
 10
26.542
 20
25.9311
 10
26.5616
 20
25.9045
 10
26.575
 20
25.883
 10
26.5827
 20
25.866
 10
26.5855
 20
25.8527
 10
26.5838
 20
25.8425
 10
26.5785
 20
25.8346
 10
26.5699
 20
25.8284
 10
26.5588
 20
25.823
 10
26.5474
 20
25.8186
 10
26.5267
 20
25.8103
 10
26.4969
 20
25.7984
 10
26.4586
 20
25.7831
 10
26.4122
 20
25.7644
 10
26.358
 20
25.7426
 10
26.2965
 20
25.7178
 10
26.2281
 20
25.6903
 10
26.1531
 20
25.66
 10
26.072
 20
25.6273
 10
25.9851
 20
25.5922
 10
25.893
 20
25.555
 10
25.7959
 20
25.5158
 10
25.6944
 20
25.4747
 10
25.5887
 20
25.432
 10
25.4793
 20
25.3877
 10
25.3667
 20
25.3421
 10
25.2511
 20
25.2952
 10
25.1331
 20
25.2474
 10
25.013
 20
25.1986
 10
24.8931
 20
25.1501
 10
24.7756
 20
25.1028
 10
24.6609
 20
25.0568
 10
24.5494
 20
25.0123
 10
24.4415
 20
24.9695
 10
24.3376
 20
24.9285
 10
24.2381
 20
24.8895
 10
24.1433
 20
24.8526
 10
24.0537
 20
24.8179
 10
23.9697
 20
24.7856
 10
23.8916
 20
24.7559
 10
23.8198
 20
24.7289
 10
23.7548
 20
24.7048
 10
23.6969
 20
24.6836
 10
23.6466
 20
24.6656
 10
23.6041
 20
24.651
 10
23.5699
 20
24.6397
 10
23.5445
 20
24.6321
 10
23.5281
 20
24.6282
  0
LWPOLYLINE
100
AcDbEntity
  8
0
100
AcDbPolyline
 90
160
 70
1
 10
4.91496
 20
19.4332
 10
4.9108
 20
19.4339
 10
4.91501
 20
19.4454
 10
4.9294
 20
19.4773
 10
4.95355
 20
19.5287
 10
4.98708
 20
19.5988
 10
5.02956
 20
19.6868
 10
5.0806
 20
19.7919
 10
5.13979
 20
19.9131
 10
5.20673
 20
20.0498
 10
5.28101
 20
20.201
 10
5.36222
 20
20.3659
 10
5.44997
 20
20.5437
 10
5.54384
 20
20.7336
 10
5.64343
 20
20.9346
 10
5.74834
 20
21.1461
 10
5.85815
 20
21.3671
 10
5.97248
 20
21.5968
 10
6.0909
 20
21.8344
 10
6.21302
 20
22.0791
 10
6.33843
 20
22.33
 10
6.46673
 20
22.5863
 10
6.63539
 20
22.9229
 10
6.79322
 20
23.2374
 10
6.94049
 20
23.5304
 10
7.07747
 20
23.8023
 10
7.20441
 20
24.0537
 10
7.32157
 20
24.285
 10
7.42924
 20
24.4968
 10
7.52765
 20
24.6896
 10
7.61709
 20
24.8639
 10
7.69781
 20
25.0202
 10
7.77007
 20
25.159
 10
7.83414
 20
25.2808
 10
7.89028
 20
25.3861
 10
7.93876
 20
25.4755
 10
7.97984
 20
25.5494
 10
8.01378
 20
25.6084
 10
8.04084
 20
25.6529
 10
8.06129
 20
25.6835
 10
8.0754
 20
25.7007
 10
8.08341
 20
25.7049
 10
8.09121
 20
25.7013
 10
8.10629
 20
25.6935
 10
8.12835
 20
25.6818
 10
8.15707
 20
25.6662
 10
8.19216
 20
25.6471
 10
8.23329
 20
25.6245
 10
8.28016
 20
25.5986
 10
8.33247
 20
25.5695
 10
8.3899
 20
25.5376
 10
8.45215
 20
25.5028
 10
8.5189
 20
25.4655
 10
8.58984
 20
25.4257
 10
8.66468
 20
25.3836
 10
8.74309
 20
25.3395
 10
8.82478
 20
25.2934
 10
8.90943
 20
25.2456
 10
8.99673
 20
25.1961
 10
9.08637
 20
25.1453
 10
9.17805
 20
25.0932
 10
9.27146
 20
25.04
 10
9.36484
 20
24.9872
 10
9.45644
 20
24.9353
 10
9.54597
 20
24.8843
 10
9.63311
 20
24.8346
 10
9.71755
 20
24.7863
 10
9.799
 20
24.7396
 10
9.87714
 20
24.6946
 10
9.95166
 20
24.6516
 10
10.0223
 20
24.6107
 10
10.0887
 20
24.5721
 10
10.1505
 20
24.5361
 10
10.2075
 20
24.5027
 10
10.2594
 20
24.4722
 10
10.3058
 20
24.4448
 10
10.3465
 20
24.4206
 10
10.3811
 20
24.3999
 10
10.4093
 20
24.3827
 10
10.4309
 20
24.3694
 10
10.4455
 20
24.3601
 10
10.4527
 20
24.3549
 10
10.4533
 20
24.3466
 10
10.4467
 20
24.3296
 10
10.4326
 20
24.3033
 10
10.4106
 20
24.2674
 10
10.3804
 20
24.2214
 10
10.3417
 20
24.1649
 10
10.2941
 20
24.0973
 10
10.2373
 20
24.0183
 10
10.1709
 20
23.9274
 10
10.0946
 20
23.8241
 10
10.008
 20
23.708
 10
9.91084
 20
23.5787
 10
9.80274
 20
23.4356
 10
9.68337
 20
23.2784
 10
9.55238
 20
23.1066
 10
9.40943
 20
22.9197
 10
9.25418
 20
22.7173
 10
9.08628
 20
22.499
 10
8.9054
 20
22.2642
 10
8.71119
 20
22.0125
 10
8.56559
 20
21.8243
 10
8.42275
 20
21.6397
 10
8.28315
 20
21.4594
 10
8.14727
 20
21.2841
 10
8.01559
 20
21.1142
 10
7.8886
 20
20.9504
 10
7.76677
 20
20.7935
 10
7.65059
 20
20.6439
 10
7.54053
 20
20.5023
 10
7.43708
 20
20.3693
 10
7.34071
 20
20.2455
 10
7.25192
 20
20.1316
 10
7.17117
 20
20.0282
 10
7.09896
 20
19.9359
 10
7.03576
 20
19.8554
 10
6.98204
 20
19.7871
 10
6.93831
 20
19.7318
 10
6.90502
 20
19.6901
 10
6.88268
 20
19.6626
 10
6.87175
 20
19.65
 10
6.86405
 20
19.643
 10
6.85388
 20
19.6363
 10
6.84093
 20
19.6299
 10
6.82484
 20
19.6235
 10
6.8053
 20
19.6174
 10
6.78195
 20
19.6113
 10
6.75448
 20
19.6052
 10
6.72254
 20
19.5991
 10
6.6858
 20
19.5929
 10
6.64392
 20
19.5867
 10
6.59658
 20
19.5803
 10
6.54344
 20
19.5736
 10
6.48416
 20
19.5668
 10
6.41841
 20
19.5597
 10
6.34586
 20
19.5522
 10
6.26617
 20
19.5443
 10
6.179
 20
19.536
 10
6.08403
 20
19.5273
 10
5.98092
 20
19.518
 10
5.86933
 20
19.5082
 10
5.79207
 20
19.5012
 10
5.71637
 20
19.4945
 10
5.6425
 20
19.4879
 10
5.5707
 20
19.4817
 10
5.50124
 20
19.4757
 10
5.43435
 20
19.47
 10
5.3703
 20
19.4647
 10
5.30933
 20
19.4597
 10
5.25171
 20
19.4551
 10
5.19769
 20
19.4508
 10
5.14751
 20
19.447
 10
5.10143
 20
19.4436
 10
5.0597
 20
19.4406
 10
5.02258
 20
19.4381
 10
4.99033
 20
19.4361
 10
4.96318
 20
19.4345
 10
4.9414
 20
19.4335
 10
4.92525
 20
19.4331
  0
LWPOLYLINE
100
AcDbEntity
  8
0
100
AcDbPolyline
 90
122
 70
1
 10
12.9132
 20
23.5988
 10
12.8604
 20
23.6325
 10
12.8085
 20
23.6657
 10
12.7575
 20
23.6983
 10
12.7078
 20
23.7301
 10
12.6595
 20
23.761
 10
12.6128
 20
23.791
 10
12.5678
 20
23.8198
 10
12.5248
 20
23.8475
 10
12.4839
 20
23.8739
 10
12.4453
 20
23.8988
 10
12.4093
 20
23.9222
 10
12.3759
 20
23.9439
 10
12.3454
 20
23.9639
 10
12.318
 20
23.9819
 10
12.2938
 20
23.998
 10
12.2731
 20
24.012
 10
12.2559
 20
24.0237
 10
12.2426
 20
24.0331
 10
12.2332
 20
24.04
 10
12.2281
 20
24.0444
 10
12.223
 20
24.0506
 10
12.2202
 20
24.0586
 10
12.2202
 20
24.0691
 10
12.2235
 20
24.0828
 10
12.2307
 20
24.1004
 10
12.2423
 20
24.1227
 10
12.2588
 20
24.1503
 10
12.2807
 20
24.1841
 10
12.3085
 20
24.2246
 10
12.3428
 20
24.2726
 10
12.3841
 20
24.3289
 10
12.4329
 20
24.394
 10
12.4898
 20
24.4689
 10
12.5551
 20
24.5541
 10
12.6296
 20
24.6505
 10
12.7136
 20
24.7586
 10
12.8078
 20
24.8792
 10
12.9126
 20
25.0131
 10
13.0286
 20
25.161
 10
13.1562
 20
25.3235
 10
13.175
 20
25.3475
 10
13.1929
 20
25.3699
 10
13.2099
 20
25.3908
 10
13.2262
 20
25.4101
 10
13.2415
 20
25.4279
 10
13.2562
 20
25.4442
 10
13.27
 20
25.4591
 10
13.2831
 20
25.4725
 10
13.2955
 20
25.4846
 10
13.3073
 20
25.4952
 10
13.3183
 20
25.5046
 10
13.3288
 20
25.5126
 10
13.3386
 20
25.5193
 10
13.3478
 20
25.5248
 10
13.3565
 20
25.529
 10
13.3647
 20
25.5321
 10
13.3723
 20
25.534
 10
13.3795
 20
25.5347
 10
13.3862
 20
25.5343
 10
13.3925
 20
25.5328
 10
13.4027
 20
25.5291
 10
13.4239
 20
25.5213
 10
13.4556
 20
25.5094
 10
13.4973
 20
25.4937
 10
13.5486
 20
25.4744
 10
13.6091
 20
25.4515
 10
13.6782
 20
25.4253
 10
13.7555
 20
25.396
 10
13.8406
 20
25.3637
 10
13.9329
 20
25.3286
 10
14.0321
 20
25.2909
 10
14.1375
 20
25.2507
 10
14.2489
 20
25.2082
 10
14.3657
 20
25.1636
 10
14.4874
 20
25.117
 10
14.6137
 20
25.0687
 10
14.7439
 20
25.0188
 10
14.8778
 20
24.9674
 10
15.0147
 20
24.9148
 10
15.1543
 20
24.8611
 10
15.2936
 20
24.8079
 10
15.4298
 20
24.7556
 10
15.5625
 20
24.7044
 10
15.6911
 20
24.6545
 10
15.8153
 20
24.6061
 10
15.9346
 20
24.5593
 10
16.0486
 20
24.5144
 10
16.1568
 20
24.4715
 10
16.2588
 20
24.4308
 10
16.3541
 20
24.3924
 10
16.4424
 20
24.3566
 10
16.5232
 20
24.3236
 10
16.5959
 20
24.2935
 10
16.6603
 20
24.2665
 10
16.7158
 20
24.2427
 10
16.762
 20
24.2224
 10
16.7985
 20
24.2057
 10
16.8249
 20
24.1929
 10
16.8406
 20
24.184
 10
16.8452
 20
24.1794
 10
16.8387
 20
24.1753
 10
16.8216
 20
24.1681
 10
16.7943
 20
24.158
 10
16.7572
 20
24.1452
 10
16.7107
 20
24.1296
 10
16.6554
 20
24.1116
 10
16.5917
 20
24.0912
 10
16.5199
 20
24.0685
 10
16.4406
 20
24.0437
 10
16.3541
 20
24.0169
 10
16.261
 20
23.9883
 10
16.1616
 20
23.958
 10
16.0565
 20
23.9261
 10
15.9459
 20
23.8927
 10
15.8305
 20
23.858
 10
15.7105
 20
23.8222
 10
15.5866
 20
23.7853
 10
15.459
 20
23.7475
 10
15.3282
 20
23.7089
 10
15.1948
 20
23.6697
 10
13.5545
 20
23.1871
  0
LWPOLYLINE
100
AcDbEntity
  8
0
100
AcDbPolyline
 90
122
 70
1
 10
20.9831
 20
24.2232
 10
20.9139
 20
24.2489
 10
20.8461
 20
24.2741
 10
20.78
 20
24.2987
 10
20.7157
 20
24.3228
 10
20.6536
 20
24.3461
 10
20.5937
 20
24.3687
 10
20.5364
 20
24.3904
 10
20.4819
 20
24.4111
 10
20.4303
 20
24.4308
 10
20.3819
 20
24.4494
 10
20.337
 20
24.4667
 10
20.2957
 20
24.4828
 10
20.2582
 20
24.4974
 10
20.2248
 20
24.5106
 10
20.1957
 20
24.5223
 10
20.1712
 20
24.5322
 10
20.1513
 20
24.5405
 10
20.1365
 20
24.5469
 10
20.1268
 20
24.5515
 10
20.1225
 20
24.554
 10
20.1211
 20
24.5551
 10
20.1201
 20
24.5563
 10
20.1195
 20
24.5577
 10
20.1191
 20
24.5591
 10
20.1191
 20
24.5607
 10
20.1195
 20
24.5624
 10
20.1201
 20
24.5641
 10
20.121
 20
24.5659
 10
20.1222
 20
24.5677
 10
20.1237
 20
24.5696
 10
20.1255
 20
24.5715
 10
20.1276
 20
24.5734
 10
20.1299
 20
24.5754
 10
20.1325
 20
24.5773
 10
20.1353
 20
24.5792
 10
20.1383
 20
24.581
 10
20.1416
 20
24.5828
 10
20.1452
 20
24.5845
 10
20.1489
 20
24.5862
 10
20.1528
 20
24.5878
 10
20.1872
 20
24.5991
 10
20.2467
 20
24.6174
 10
20.3287
 20
24.6417
 10
20.4301
 20
24.6715
 10
20.5482
 20
24.7057
 10
20.68
 20
24.7436
 10
20.8227
 20
24.7844
 10
20.9735
 20
24.8273
 10
21.1295
 20
24.8714
 10
21.2877
 20
24.916
 10
21.4454
 20
24.9602
 10
21.5997
 20
25.0033
 10
21.7477
 20
25.0444
 10
21.8866
 20
25.0827
 10
22.0134
 20
25.1174
 10
22.1253
 20
25.1478
 10
22.2195
 20
25.1729
 10
22.2931
 20
25.1919
 10
22.3432
 20
25.2042
 10
22.3669
 20
25.2088
 10
22.3752
 20
25.2086
 10
22.3837
 20
25.2071
 10
22.3927
 20
25.2042
 10
22.4022
 20
25.1996
 10
22.4122
 20
25.1934
 10
22.4228
 20
25.1855
 10
22.4342
 20
25.1757
 10
22.4463
 20
25.1639
 10
22.4593
 20
25.1501
 10
22.4732
 20
25.1341
 10
22.4882
 20
25.1159
 10
22.5042
 20
25.0953
 10
22.5214
 20
25.0723
 10
22.5399
 20
25.0467
 10
22.5596
 20
25.0185
 10
22.5808
 20
24.9875
 10
22.6034
 20
24.9537
 10
22.6276
 20
24.9169
 10
22.6533
 20
24.8771
 10
22.6808
 20
24.8341
 10
22.7009
 20
24.8029
 10
22.7205
 20
24.772
 10
22.7397
 20
24.7416
 10
22.7583
 20
24.7118
 10
22.7763
 20
24.6827
 10
22.7937
 20
24.6544
 10
22.8103
 20
24.627
 10
22.8261
 20
24.6006
 10
22.841
 20
24.5754
 10
22.8551
 20
24.5515
 10
22.8681
 20
24.5289
 10
22.8801
 20
24.5078
 10
22.891
 20
24.4883
 10
22.9006
 20
24.4704
 10
22.9091
 20
24.4544
 10
22.9163
 20
24.4404
 10
22.922
 20
24.4283
 10
22.9264
 20
24.4184
 10
22.9293
 20
24.4108
 10
22.9306
 20
24.4055
 10
22.9296
 20
24.4005
 10
22.9258
 20
24.3946
 10
22.9192
 20
24.3877
 10
22.9096
 20
24.38
 10
22.8973
 20
24.3713
 10
22.8821
 20
24.3618
 10
22.8641
 20
24.3513
 10
22.8434
 20
24.3399
 10
22.8198
 20
24.3276
 10
22.7935
 20
24.3144
 10
22.7644
 20
24.3002
 10
22.7325
 20
24.2852
 10
22.6979
 20
24.2693
 10
22.6606
 20
24.2524
 10
22.6206
 20
24.2346
 10
22.5779
 20
24.2159
 10
22.5326
 20
24.1964
 10
22.4845
 20
24.1759
 10
22.4338
 20
24.1544
 10
22.3804
 20
24.1321
 10
21.8269
 20
23.9094
  0
LWPOLYLINE
100
AcDbEntity
  8
0
100
AcDbPolyline
 90
140
 70
1
 10
27.9642
 20
17.923
 10
27.941
 20
17.9242
 10
27.9224
 20
17.926
 10
27.9081
 20
17.9285
 10
27.898
 20
17.9316
 10
27.892
 20
17.9354
 10
27.8587
 20
17.9822
 10
27.7794
 20
18.1001
 10
27.6592
 20
18.2812
 10
27.5034
 20
18.5176
 10
27.3171
 20
18.8014
 10
27.1053
 20
19.1247
 10
26.8733
 20
19.4795
 10
26.6262
 20
19.8579
 10
26.3692
 20
20.2521
 10
26.1074
 20
20.6541
 10
25.8459
 20
21.0559
 10
25.59
 20
21.4498
 10
25.3447
 20
21.8277
 10
25.1152
 20
22.1818
 10
24.9066
 20
22.5041
 10
24.7241
 20
22.7868
 10
24.5729
 20
23.0219
 10
24.4581
 20
23.2015
 10
24.3848
 20
23.3177
 10
24.3582
 20
23.3626
 10
24.3786
 20
23.379
 10
24.4388
 20
23.4137
 10
24.5345
 20
23.4646
 10
24.6613
 20
23.5296
 10
24.8149
 20
23.6066
 10
24.9909
 20
23.6937
 10
25.1849
 20
23.7886
 10
25.3927
 20
23.8894
 10
25.6098
 20
23.9939
 10
25.8319
 20
24.1
 10
26.0546
 20
24.2058
 10
26.2736
 20
24.3091
 10
26.4846
 20
24.4078
 10
26.6831
 20
24.4999
 10
26.8647
 20
24.5833
 10
27.0253
 20
24.6559
 10
27.1603
 20
24.7157
 10
27.2655
 20
24.7605
 10
27.3365
 20
24.7883
 10
27.3689
 20
24.797
 10
27.3768
 20
24.7869
 10
27.3925
 20
24.7578
 10
27.4157
 20
24.7102
 10
27.4462
 20
24.6445
 10
27.4839
 20
24.5611
 10
27.5285
 20
24.4605
 10
27.5798
 20
24.3432
 10
27.6378
 20
24.2094
 10
27.7021
 20
24.0597
 10
27.7726
 20
23.8946
 10
27.8491
 20
23.7144
 10
27.9314
 20
23.5195
 10
28.0193
 20
23.3105
 10
28.1127
 20
23.0877
 10
28.2113
 20
22.8515
 10
28.315
 20
22.6025
 10
28.4235
 20
22.341
 10
28.5367
 20
22.0674
 10
28.6543
 20
21.7823
 10
28.7763
 20
21.486
 10
28.8876
 20
21.2156
 10
28.9965
 20
20.9508
 10
29.1027
 20
20.6925
 10
29.2058
 20
20.4415
 10
29.3054
 20
20.1987
 10
29.4012
 20
19.9649
 10
29.4929
 20
19.7411
 10
29.5799
 20
19.5282
 10
29.6621
 20
19.3269
 10
29.739
 20
19.1382
 10
29.8103
 20
18.9629
 10
29.8756
 20
18.802
 10
29.9346
 20
18.6562
 10
29.9869
 20
18.5265
 10
30.0321
 20
18.4138
 10
30.0699
 20
18.3188
 10
30.1
 20
18.2425
 10
30.1219
 20
18.1858
 10
30.1353
 20
18.1495
 10
30.1398
 20
18.1345
 10
30.1396
 20
18.131
 10
30.1388
 20
18.1276
 10
30.1376
 20
18.1242
 10
30.136
 20
18.1209
 10
30.1339
 20
18.1177
 10
30.1314
 20
18.1146
 10
30.1286
 20
18.1117
 10
30.1254
 20
18.1089
 10
30.1218
 20
18.1062
 10
30.1179
 20
18.1037
 10
30.1137
 20
18.1014
 10
30.1092
 20
18.0993
 10
30.1045
 20
18.0974
 10
30.0995
 20
18.0957
 10
30.0943
 20
18.0942
 10
30.0888
 20
18.0929
 10
30.0833
 20
18.092
 10
30.0775
 20
18.0912
 10
30.0716
 20
18.0908
 10
30.0656
 20
18.0906
 10
30.0556
 20
18.0898
 10
30.0392
 20
18.0885
 10
30.0166
 20
18.0865
 10
29.988
 20
18.084
 10
29.9538
 20
18.081
 10
29.9143
 20
18.0776
 10
29.8696
 20
18.0737
 10
29.8202
 20
18.0693
 10
29.7663
 20
18.0646
 10
29.7082
 20
18.0594
 10
29.6462
 20
18.0539
 10
29.5805
 20
18.0481
 10
29.5115
 20
18.042
 10
29.4394
 20
18.0356
 10
29.3646
 20
18.0289
 10
29.2872
 20
18.0221
 10
29.2076
 20
18.015
 10
29.1261
 20
18.0077
 10
29.043
 20
18.0003
 10
28.9585
 20
17.9928
 10
28.8491
 20
17.9826
 10
28.7465
 20
17.9732
 10
28.6506
 20
17.9647
 10
28.5612
 20
17.957
 10
28.4782
 20
17.9501
 10
28.4013
 20
17.944
 10
28.3306
 20
17.9387
 10
28.2657
 20
17.9342
 10
28.2066
 20
17.9304
 10
28.1531
 20
17.9274
 10
28.1051
 20
17.9251
 10
28.0623
 20
17.9235
 10
28.0247
 20
17.9226
 10
27.992
 20
17.9225
  0
LWPOLYLINE
100
AcDbEntity
  8
0
100
AcDbPolyline
 90
162
 70
1
 10
14.54
 20
12.9976
 10
14.4452
 20
13.0332
 10
14.3522
 20
13.0681
 10
14.2614
 20
13.1022
 10
14.1732
 20
13.1353
 10
14.0877
 20
13.1673
 10
14.0054
 20
13.1981
 10
13.9265
 20
13.2277
 10
13.8513
 20
13.2558
 10
13.7802
 20
13.2823
 10
13.7135
 20
13.3073
 10
13.6515
 20
13.3304
 10
13.5945
 20
13.3517
 10
13.5427
 20
13.3709
 10
13.4966
 20
13.388
 10
13.4564
 20
13.4029
 10
13.4225
 20
13.4155
 10
13.3951
 20
13.4255
 10
13.3746
 20
13.433
 10
13.3612
 20
13.4378
 10
13.3554
 20
13.4397
 10
13.3548
 20
13.5086
 10
13.3598
 20
13.7028
 10
13.3699
 20
14.0084
 10
13.3844
 20
14.4115
 10
13.4027
 20
14.8983
 10
13.4243
 20
15.4547
 10
13.4486
 20
16.0668
 10
13.475
 20
16.7208
 10
13.5029
 20
17.4027
 10
13.5317
 20
18.0987
 10
13.5609
 20
18.7947
 10
13.5899
 20
19.4768
 10
13.618
 20
20.1312
 10
13.6448
 20
20.7439
 10
13.6696
 20
21.301
 10
13.6918
 20
21.7885
 10
13.7109
 20
22.1927
 10
13.7262
 20
22.4994
 10
13.7373
 20
22.6949
 10
13.7435
 20
22.7652
 10
13.751
 20
22.768
 10
13.7712
 20
22.7744
 10
13.8034
 20
22.7842
 10
13.8474
 20
22.7973
 10
13.9024
 20
22.8134
 10
13.968
 20
22.8326
 10
14.0437
 20
22.8546
 10
14.129
 20
22.8792
 10
14.2233
 20
22.9064
 10
14.3261
 20
22.9361
 10
14.437
 20
22.9679
 10
14.5554
 20
23.0019
 10
14.6808
 20
23.0378
 10
14.8126
 20
23.0756
 10
14.9505
 20
23.115
 10
15.0938
 20
23.1559
 10
15.242
 20
23.1983
 10
15.3946
 20
23.2419
 10
15.5512
 20
23.2866
 10
15.7112
 20
23.3322
 10
15.8711
 20
23.3778
 10
16.0276
 20
23.4225
 10
16.1802
 20
23.4661
 10
16.3282
 20
23.5084
 10
16.4713
 20
23.5493
 10
16.6089
 20
23.5887
 10
16.7405
 20
23.6263
 10
16.8656
 20
23.6621
 10
16.9836
 20
23.6959
 10
17.0941
 20
23.7275
 10
17.1966
 20
23.7568
 10
17.2905
 20
23.7837
 10
17.3753
 20
23.808
 10
17.4506
 20
23.8295
 10
17.5157
 20
23.8481
 10
17.5703
 20
23.8637
 10
17.6137
 20
23.8761
 10
17.6455
 20
23.8851
 10
17.6651
 20
23.8906
 10
17.6721
 20
23.8925
 10
17.6776
 20
23.8909
 10
17.6937
 20
23.8851
 10
17.7201
 20
23.8754
 10
17.7562
 20
23.8619
 10
17.8017
 20
23.8448
 10
17.856
 20
23.8242
 10
17.9189
 20
23.8003
 10
17.9898
 20
23.7733
 10
18.0683
 20
23.7434
 10
18.1539
 20
23.7106
 10
18.2463
 20
23.6753
 10
18.345
 20
23.6376
 10
18.4496
 20
23.5975
 10
18.5596
 20
23.5554
 10
18.6745
 20
23.5114
 10
18.7941
 20
23.4655
 10
18.9177
 20
23.4181
 10
19.0451
 20
23.3693
 10
19.1757
 20
23.3192
 10
19.3091
 20
23.2681
 10
19.4425
 20
23.2169
 10
19.5733
 20
23.1666
 10
19.7009
 20
23.1176
 10
19.8249
 20
23.0698
 10
19.9449
 20
23.0235
 10
20.0604
 20
22.9788
 10
20.171
 20
22.936
 10
20.2763
 20
22.8951
 10
20.3759
 20
22.8564
 10
20.4693
 20
22.82
 10
20.556
 20
22.7861
 10
20.6356
 20
22.7548
 10
20.7078
 20
22.7264
 10
20.772
 20
22.7009
 10
20.8279
 20
22.6786
 10
20.8749
 20
22.6596
 10
20.9127
 20
22.6441
 10
20.9408
 20
22.6322
 10
20.9588
 20
22.6241
 10
20.9662
 20
22.6201
 10
20.9679
 20
22.5542
 10
20.9641
 20
22.3744
 10
20.9553
 20
22.0931
 10
20.9422
 20
21.723
 10
20.9253
 20
21.2767
 10
20.9051
 20
20.767
 10
20.8822
 20
20.2064
 10
20.8572
 20
19.6076
 10
20.8306
 20
18.9832
 10
20.803
 20
18.3459
 10
20.7749
 20
17.7083
 10
20.7468
 20
17.0831
 10
20.7194
 20
16.4829
 10
20.6932
 20
15.9204
 10
20.6687
 20
15.4081
 10
20.6464
 20
14.9588
 10
20.6271
 20
14.5851
 10
20.6111
 20
14.2996
 10
20.5991
 20
14.115
 10
20.5916
 20
14.0439
 10
20.5821
 20
14.0377
 10
20.5579
 20
14.0273
 10
20.5195
 20
14.0128
 10
20.4673
 20
13.9944
 10
20.4018
 20
13.9722
 10
20.3235
 20
13.9463
 10
20.2328
 20
13.917
 10
20.1301
 20
13.8842
 10
20.016
 20
13.8483
 10
19.8909
 20
13.8093
 10
19.7552
 20
13.7674
 10
19.6094
 20
13.7226
 10
19.4539
 20
13.6752
 10
19.2893
 20
13.6253
 10
19.116
 20
13.573
 10
18.9344
 20
13.5185
 10
18.745
 20
13.462
 10
18.5482
 20
13.4034
 10
18.3446
 20
13.3431
 10
18.1345
 20
13.2811
 10
15.6977
 20
12.5689
  0
LWPOLYLINE
100
AcDbEntity
  8
0
100
AcDbPolyline
 90
105
 70
1
 10
11.5969
 20
13.4431
 10
11.5714
 20
13.4825
 10
11.5358
 20
13.5374
 10
11.4905
 20
13.607
 10
11.4361
 20
13.6906
 10
11.373
 20
13.7875
 10
11.3018
 20
13.8969
 10
11.2229
 20
14.018
 10
11.1368
 20
14.1501
 10
11.0441
 20
14.2924
 10
10.9451
 20
14.4443
 10
10.8404
 20
14.6048
 10
10.7306
 20
14.7733
 10
10.616
 20
14.9491
 10
10.4972
 20
15.1313
 10
10.3748
 20
15.3193
 10
10.249
 20
15.5122
 10
10.1206
 20
15.7094
 10
9.98987
 20
15.91
 10
9.85742
 20
16.1134
 10
9.72372
 20
16.3187
 10
9.50587
 20
16.6521
 10
9.30832
 20
16.9547
 10
9.13013
 20
17.228
 10
8.97034
 20
17.4736
 10
8.828
 20
17.693
 10
8.70214
 20
17.8878
 10
8.59183
 20
18.0594
 10
8.4961
 20
18.2094
 10
8.41399
 20
18.3394
 10
8.34456
 20
18.4509
 10
8.28685
 20
18.5455
 10
8.23991
 20
18.6246
 10
8.20278
 20
18.6899
 10
8.1745
 20
18.7428
 10
8.15413
 20
18.7849
 10
8.14071
 20
18.8177
 10
8.13328
 20
18.8428
 10
8.13089
 20
18.8617
 10
8.13259
 20
18.876
 10
8.13742
 20
18.8872
 10
8.18318
 20
18.9519
 10
8.27452
 20
19.0738
 10
8.40627
 20
19.2463
 10
8.57327
 20
19.4629
 10
8.77036
 20
19.717
 10
8.99238
 20
20.0022
 10
9.23418
 20
20.3117
 10
9.4906
 20
20.6392
 10
9.75647
 20
20.9779
 10
10.0266
 20
21.3215
 10
10.2959
 20
21.6633
 10
10.5592
 20
21.9967
 10
10.8114
 20
22.3153
 10
11.0471
 20
22.6125
 10
11.2614
 20
22.8816
 10
11.449
 20
23.1163
 10
11.6048
 20
23.3099
 10
11.7237
 20
23.4558
 10
11.8004
 20
23.5476
 10
11.8298
 20
23.5786
 10
11.835
 20
23.5763
 10
11.8445
 20
23.5715
 10
11.8581
 20
23.5644
 10
11.8756
 20
23.555
 10
11.8969
 20
23.5434
 10
11.9217
 20
23.5298
 10
11.9498
 20
23.5142
 10
11.9811
 20
23.4967
 10
12.0154
 20
23.4775
 10
12.0526
 20
23.4567
 10
12.0923
 20
23.4343
 10
12.1345
 20
23.4104
 10
12.179
 20
23.3853
 10
12.2256
 20
23.3588
 10
12.274
 20
23.3313
 10
12.3242
 20
23.3028
 10
12.376
 20
23.2733
 10
12.4291
 20
23.243
 10
12.4833
 20
23.212
 10
12.5386
 20
23.1803
 10
13.2136
 20
22.7956
 10
13.2035
 20
22.5931
 10
13.181
 20
22.0605
 10
13.1574
 20
21.5053
 10
13.1329
 20
20.9328
 10
13.1076
 20
20.3481
 10
13.0819
 20
19.7565
 10
13.056
 20
19.1634
 10
13.0301
 20
18.5741
 10
13.0045
 20
17.9937
 10
12.9794
 20
17.4276
 10
12.955
 20
16.8811
 10
12.9316
 20
16.3594
 10
12.9094
 20
15.8678
 10
12.8887
 20
15.4116
 10
12.8698
 20
14.996
 10
12.8527
 20
14.6265
 10
12.8379
 20
14.3081
 10
12.8255
 20
14.0462
 10
12.8157
 20
13.8461
 10
12.8089
 20
13.7131
 10
12.8052
 20
13.6524
 10
12.7883
 20
13.4499
 10
11.8433
 20
13.0651
  0
LWPOLYLINE
100
AcDbEntity
  8
0
100
AcDbPolyline
 90
140
 70
1
 10
23.8183
 20
12.9895
 10
23.8049
 20
12.995
 10
23.7872
 20
13.0033
 10
23.7655
 20
13.0143
 10
23.7399
 20
13.0278
 10
23.7107
 20
13.0438
 10
23.678
 20
13.0622
 10
23.6421
 20
13.0828
 10
23.6031
 20
13.1056
 10
23.5611
 20
13.1304
 10
23.5165
 20
13.1571
 10
23.4694
 20
13.1856
 10
23.42
 20
13.2158
 10
23.3685
 20
13.2476
 10
23.315
 20
13.2808
 10
23.2598
 20
13.3154
 10
23.2031
 20
13.3512
 10
23.1451
 20
13.3882
 10
23.0858
 20
13.4262
 10
22.9919
 20
13.4863
 10
22.9064
 20
13.5413
 10
22.8288
 20
13.5915
 10
22.7588
 20
13.6371
 10
22.6961
 20
13.6785
 10
22.6401
 20
13.716
 10
22.5905
 20
13.7497
 10
22.5469
 20
13.7802
 10
22.5089
 20
13.8075
 10
22.4762
 20
13.8321
 10
22.4483
 20
13.8542
 10
22.4248
 20
13.8741
 10
22.4054
 20
13.8921
 10
22.3897
 20
13.9085
 10
22.3772
 20
13.9236
 10
22.3676
 20
13.9377
 10
22.3605
 20
13.9511
 10
22.3554
 20
13.9641
 10
22.3521
 20
13.9769
 10
22.35
 20
13.9899
 10
22.3508
 20
14.0721
 10
22.3569
 20
14.2669
 10
22.3677
 20
14.5616
 10
22.3826
 20
14.9437
 10
22.4011
 20
15.4004
 10
22.4227
 20
15.9193
 10
22.4468
 20
16.4876
 10
22.4728
 20
17.0929
 10
22.5003
 20
17.7224
 10
22.5285
 20
18.3636
 10
22.557
 20
19.0039
 10
22.5853
 20
19.6306
 10
22.6127
 20
20.2312
 10
22.6387
 20
20.793
 10
22.6628
 20
21.3034
 10
22.6844
 20
21.7498
 10
22.703
 20
22.1197
 10
22.7179
 20
22.4004
 10
22.7287
 20
22.5792
 10
22.7348
 20
22.6437
 10
22.7455
 20
22.6512
 10
22.7686
 20
22.6642
 10
22.8028
 20
22.6821
 10
22.8466
 20
22.7042
 10
22.8987
 20
22.7299
 10
22.9578
 20
22.7585
 10
23.0224
 20
22.7895
 10
23.0912
 20
22.8222
 10
23.1629
 20
22.8559
 10
23.236
 20
22.8901
 10
23.3092
 20
22.924
 10
23.3812
 20
22.9572
 10
23.4505
 20
22.9888
 10
23.5159
 20
23.0184
 10
23.5758
 20
23.0452
 10
23.6291
 20
23.0687
 10
23.6742
 20
23.0881
 10
23.7099
 20
23.103
 10
23.7347
 20
23.1125
 10
23.7473
 20
23.1162
 10
23.7563
 20
23.1075
 10
23.7767
 20
23.0807
 10
23.8081
 20
23.0367
 10
23.85
 20
22.9761
 10
23.902
 20
22.8997
 10
23.9635
 20
22.8082
 10
24.0341
 20
22.7023
 10
24.1134
 20
22.5828
 10
24.2008
 20
22.4504
 10
24.2958
 20
22.3057
 10
24.398
 20
22.1496
 10
24.507
 20
21.9828
 10
24.6222
 20
21.806
 10
24.7431
 20
21.6198
 10
24.8694
 20
21.4251
 10
25.0004
 20
21.2226
 10
25.1358
 20
21.0129
 10
25.275
 20
20.7969
 10
25.4176
 20
20.5752
 10
25.5632
 20
20.3486
 10
25.7085
 20
20.1223
 10
25.8506
 20
19.9006
 10
25.989
 20
19.6843
 10
26.1232
 20
19.474
 10
26.2528
 20
19.2705
 10
26.3774
 20
19.0745
 10
26.4963
 20
18.8868
 10
26.6093
 20
18.7082
 10
26.7158
 20
18.5393
 10
26.8153
 20
18.3809
 10
26.9075
 20
18.2338
 10
26.9918
 20
18.0986
 10
27.0678
 20
17.9761
 10
27.135
 20
17.8671
 10
27.193
 20
17.7723
 10
27.2413
 20
17.6925
 10
27.2795
 20
17.6283
 10
27.307
 20
17.5805
 10
27.3234
 20
17.5499
 10
27.3284
 20
17.5371
 10
27.3018
 20
17.5003
 10
27.2297
 20
17.4044
 10
27.117
 20
17.2558
 10
26.9686
 20
17.061
 10
26.7896
 20
16.8267
 10
26.585
 20
16.5593
 10
26.3598
 20
16.2653
 10
26.1189
 20
15.9512
 10
25.8675
 20
15.6236
 10
25.6104
 20
15.2889
 10
25.3527
 20
14.9537
 10
25.0995
 20
14.6244
 10
24.8556
 20
14.3077
 10
24.6261
 20
14.01
 10
24.416
 20
13.7377
 10
24.2304
 20
13.4976
 10
24.0741
 20
13.2959
 10
23.9522
 20
13.1394
 10
23.8698
 20
13.0344
 10
23.8317
 20
12.9875
 10
23.8273
 20
12.987
  0
LWPOLYLINE
100
AcDbEntity
  8
0
100
AcDbPolyline
 90
102
 70
1
 10
7.40368
 20
11.3432
 10
7.35607
 20
11.463
 10
7.28201
 20
11.6515
 10
7.18447
 20
11.9013
 10
7.06639
 20
12.2045
 10
6.93074
 20
12.5537
 10
6.78046
 20
12.9411
 10
6.6185
 20
13.3592
 10
6.44783
 20
13.8002
 10
6.2714
 20
14.2565
 10
6.09215
 20
14.7205
 10
5.91305
 20
15.1846
 10
5.73705
 20
15.6411
 10
5.5671
 20
16.0824
 10
5.40615
 20
16.5009
 10
5.25717
 20
16.8888
 10
5.1231
 20
17.2386
 10
5.0069
 20
17.5426
 10
4.91152
 20
17.7931
 10
4.83992
 20
17.9826
 10
4.75892
 20
18.1919
 10
4.85342
 20
18.1919
 10
4.86399
 20
18.1917
 10
4.88031
 20
18.1912
 10
4.90212
 20
18.1904
 10
4.92916
 20
18.1892
 10
4.96116
 20
18.1878
 10
4.99786
 20
18.1861
 10
5.03899
 20
18.1841
 10
5.08428
 20
18.1819
 10
5.13347
 20
18.1794
 10
5.18629
 20
18.1767
 10
5.24248
 20
18.1738
 10
5.30177
 20
18.1708
 10
5.3639
 20
18.1675
 10
5.42859
 20
18.1641
 10
5.49559
 20
18.1606
 10
5.56463
 20
18.1569
 10
5.63544
 20
18.1531
 10
5.70775
 20
18.1493
 10
5.78131
 20
18.1453
 10
5.85583
 20
18.1413
 10
5.94479
 20
18.1358
 10
6.02938
 20
18.1303
 10
6.10961
 20
18.125
 10
6.18549
 20
18.1198
 10
6.257
 20
18.1146
 10
6.32414
 20
18.1096
 10
6.38692
 20
18.1046
 10
6.44532
 20
18.0997
 10
6.49935
 20
18.0949
 10
6.549
 20
18.0902
 10
6.59427
 20
18.0856
 10
6.63516
 20
18.081
 10
6.67167
 20
18.0765
 10
6.70379
 20
18.0721
 10
6.73152
 20
18.0677
 10
6.75486
 20
18.0634
 10
6.7738
 20
18.0592
 10
6.78835
 20
18.055
 10
6.7985
 20
18.0508
 10
6.80424
 20
18.0468
 10
6.83872
 20
17.9976
 10
6.91943
 20
17.8757
 10
7.0412
 20
17.6893
 10
7.19884
 20
17.4463
 10
7.38714
 20
17.155
 10
7.60092
 20
16.8234
 10
7.83498
 20
16.4596
 10
8.08414
 20
16.0718
 10
8.34321
 20
15.668
 10
8.60698
 20
15.2564
 10
8.87027
 20
14.845
 10
9.12789
 20
14.442
 10
9.37465
 20
14.0554
 10
9.60535
 20
13.6934
 10
9.8148
 20
13.3641
 10
9.99781
 20
13.0756
 10
10.1492
 20
12.8359
 10
10.2637
 20
12.6533
 10
10.3363
 20
12.5357
 10
10.3616
 20
12.4913
 10
10.3405
 20
12.4774
 10
10.28
 20
12.4481
 10
10.1846
 20
12.4051
 10
10.0585
 20
12.3502
 10
9.90608
 20
12.2852
 10
9.73174
 20
12.2119
 10
9.5398
 20
12.1319
 10
9.33461
 20
12.0472
 10
9.12052
 20
11.9594
 10
8.90188
 20
11.8703
 10
8.68304
 20
11.7817
 10
8.46834
 20
11.6955
 10
8.26214
 20
11.6132
 10
8.06878
 20
11.5368
 10
7.89261
 20
11.468
 10
7.73799
 20
11.4086
 10
7.60926
 20
11.3603
 10
7.51076
 20
11.3249
 10
7.44686
 20
11.3042
 10
7.42189
 20
11.2999
  0
LWPOLYLINE
100
AcDbEntity
  8
0
100
AcDbPolyline
 90
102
 70
1
 10
26.7844
 20
11.0643
 10
26.7324
 20
11.0954
 10
26.6527
 20
11.1444
 10
26.5486
 20
11.2092
 10
26.4236
 20
11.2876
 10
26.2811
 20
11.3774
 10
26.1245
 20
11.4764
 10
25.9574
 20
11.5825
 10
25.783
 20
11.6934
 10
25.6049
 20
11.807
 10
25.4265
 20
11.921
 10
25.2512
 20
12.0333
 10
25.0824
 20
12.1417
 10
24.9235
 20
12.2439
 10
24.7781
 20
12.3379
 10
24.6495
 20
12.4213
 10
24.5411
 20
12.492
 10
24.4564
 20
12.5478
 10
24.3988
 20
12.5866
 10
24.3717
 20
12.6061
 10
24.3688
 20
12.6145
 10
24.3717
 20
12.6294
 10
24.3808
 20
12.6513
 10
24.3969
 20
12.6813
 10
24.4206
 20
12.7201
 10
24.4525
 20
12.7686
 10
24.4932
 20
12.8276
 10
24.5433
 20
12.8978
 10
24.6035
 20
12.9803
 10
24.6742
 20
13.0756
 10
24.7563
 20
13.1848
 10
24.8502
 20
13.3086
 10
24.9567
 20
13.4479
 10
25.0762
 20
13.6034
 10
25.2095
 20
13.776
 10
25.3571
 20
13.9666
 10
25.5196
 20
14.1759
 10
25.6978
 20
14.4049
 10
25.8921
 20
14.6542
 10
26.1032
 20
14.9248
 10
27.8785
 20
17.1996
 10
28.0878
 20
17.1861
 10
28.1081
 20
17.1854
 10
28.1337
 20
17.1844
 10
28.164
 20
17.1831
 10
28.199
 20
17.1815
 10
28.2382
 20
17.1796
 10
28.2815
 20
17.1774
 10
28.3284
 20
17.175
 10
28.3789
 20
17.1725
 10
28.4325
 20
17.1697
 10
28.489
 20
17.1667
 10
28.5481
 20
17.1636
 10
28.6095
 20
17.1604
 10
28.673
 20
17.157
 10
28.7382
 20
17.1536
 10
28.8049
 20
17.15
 10
28.8728
 20
17.1465
 10
28.9417
 20
17.1429
 10
29.0112
 20
17.1393
 10
29.081
 20
17.1357
 10
29.1509
 20
17.1321
 10
29.2207
 20
17.1285
 10
29.289
 20
17.1249
 10
29.3558
 20
17.1213
 10
29.4207
 20
17.1177
 10
29.4835
 20
17.1141
 10
29.544
 20
17.1105
 10
29.602
 20
17.1069
 10
29.6572
 20
17.1034
 10
29.7094
 20
17.1
 10
29.7584
 20
17.0967
 10
29.804
 20
17.0934
 10
29.8459
 20
17.0903
 10
29.8839
 20
17.0873
 10
29.9178
 20
17.0845
 10
29.9473
 20
17.0818
 10
29.9723
 20
17.0793
 10
29.9924
 20
17.077
 10
30.0075
 20
17.0749
 10
30.0174
 20
17.073
 10
30.0217
 20
17.0714
 10
30.0014
 20
17.025
 10
29.9375
 20
16.8979
 10
29.8348
 20
16.6992
 10
29.6982
 20
16.4377
 10
29.5324
 20
16.1225
 10
29.3422
 20
15.7626
 10
29.1325
 20
15.3668
 10
28.908
 20
14.9443
 10
28.6734
 20
14.504
 10
28.4337
 20
14.0548
 10
28.1936
 20
13.6058
 10
27.9578
 20
13.166
 10
27.7313
 20
12.7442
 10
27.5187
 20
12.3495
 10
27.3249
 20
11.991
 10
27.1546
 20
11.6774
 10
27.0127
 20
11.4179
 10
26.904
 20
11.2215
 10
26.8332
 20
11.097
 10
26.8052
 20
11.0535
  0
LWPOLYLINE
100
AcDbEntity
  8
0
100
AcDbPolyline
 90
122
 70
1
 10
12.75
 20
11.7181
 10
12.7318
 20
11.7365
 10
12.7075
 20
11.7655
 10
12.6779
 20
11.8039
 10
12.6439
 20
11.8503
 10
12.6064
 20
11.9035
 10
12.5662
 20
11.9621
 10
12.524
 20
12.0249
 10
12.4808
 20
12.0905
 10
12.4373
 20
12.1576
 10
12.3945
 20
12.225
 10
12.3531
 20
12.2912
 10
12.314
 20
12.3551
 10
12.2779
 20
12.4154
 10
12.2459
 20
12.4706
 10
12.2186
 20
12.5195
 10
12.197
 20
12.5609
 10
12.1818
 20
12.5933
 10
12.1738
 20
12.6156
 10
12.1741
 20
12.6263
 10
12.1775
 20
12.629
 10
12.1838
 20
12.633
 10
12.1928
 20
12.6383
 10
12.2043
 20
12.6447
 10
12.2183
 20
12.6522
 10
12.2346
 20
12.6608
 10
12.2531
 20
12.6704
 10
12.2736
 20
12.6809
 10
12.2961
 20
12.6922
 10
12.3205
 20
12.7044
 10
12.3465
 20
12.7173
 10
12.3741
 20
12.7308
 10
12.4031
 20
12.745
 10
12.4334
 20
12.7597
 10
12.465
 20
12.7749
 10
12.4976
 20
12.7905
 10
12.5312
 20
12.8065
 10
12.5656
 20
12.8227
 10
12.6008
 20
12.8392
 10
12.6365
 20
12.8558
 10
13.0718
 20
13.0583
 10
13.2271
 20
12.9942
 10
13.2421
 20
12.9883
 10
13.2615
 20
12.9807
 10
13.2852
 20
12.9715
 10
13.3129
 20
12.9607
 10
13.3443
 20
12.9486
 10
13.3793
 20
12.9351
 10
13.4176
 20
12.9204
 10
13.4589
 20
12.9046
 10
13.5031
 20
12.8877
 10
13.5498
 20
12.8698
 10
13.599
 20
12.851
 10
13.6502
 20
12.8314
 10
13.7033
 20
12.8111
 10
13.758
 20
12.7902
 10
13.8142
 20
12.7688
 10
13.8716
 20
12.7469
 10
13.9298
 20
12.7246
 10
13.9888
 20
12.7021
 10
14.0483
 20
12.6795
 10
14.108
 20
12.6567
 10
14.1996
 20
12.6218
 10
14.2852
 20
12.589
 10
14.3648
 20
12.5583
 10
14.4385
 20
12.5296
 10
14.5063
 20
12.5029
 10
14.5684
 20
12.4781
 10
14.6248
 20
12.4553
 10
14.6756
 20
12.4344
 10
14.7209
 20
12.4153
 10
14.7607
 20
12.3981
 10
14.7951
 20
12.3826
 10
14.8242
 20
12.369
 10
14.848
 20
12.357
 10
14.8667
 20
12.3468
 10
14.8802
 20
12.3382
 10
14.8888
 20
12.3313
 10
14.8924
 20
12.3259
 10
14.8911
 20
12.3222
 10
14.885
 20
12.3199
 10
14.8742
 20
12.3192
 10
14.8687
 20
12.3182
 10
14.8567
 20
12.3152
 10
14.8383
 20
12.3104
 10
14.8139
 20
12.3038
 10
14.7837
 20
12.2955
 10
14.7479
 20
12.2855
 10
14.7069
 20
12.2739
 10
14.661
 20
12.2609
 10
14.6103
 20
12.2464
 10
14.5552
 20
12.2306
 10
14.496
 20
12.2135
 10
14.4329
 20
12.1953
 10
14.3661
 20
12.1759
 10
14.2961
 20
12.1555
 10
14.223
 20
12.1341
 10
14.1471
 20
12.1118
 10
14.0687
 20
12.0887
 10
13.988
 20
12.0649
 10
13.9054
 20
12.0405
 10
13.8211
 20
12.0154
 10
13.7368
 20
11.9908
 10
13.6541
 20
11.9667
 10
13.5734
 20
11.9432
 10
13.4948
 20
11.9203
 10
13.4187
 20
11.8982
 10
13.3453
 20
11.8769
 10
13.275
 20
11.8565
 10
13.208
 20
11.8371
 10
13.1445
 20
11.8187
 10
13.0849
 20
11.8015
 10
13.0294
 20
11.7856
 10
12.9784
 20
11.771
 10
12.932
 20
11.7577
 10
12.8905
 20
11.746
 10
12.8543
 20
11.7359
 10
12.8236
 20
11.7274
 10
12.7987
 20
11.7206
 10
12.7798
 20
11.7157
 10
12.7673
 20
11.7127
 10
12.7613
 20
11.7117
  0
LWPOLYLINE
100
AcDbEntity
  8
0
100
AcDbPolyline
 90
120
 70
1
 10
21.7185
 20
10.3373
 10
21.636
 20
10.3652
 10
21.5104
 20
10.4095
 10
21.3473
 20
10.4682
 10
21.1521
 20
10.5392
 10
20.9303
 20
10.6206
 10
20.6872
 20
10.7103
 10
20.4283
 20
10.8063
 10
20.1591
 20
10.9064
 10
19.8849
 20
11.0088
 10
19.6113
 20
11.1113
 10
19.3437
 20
11.2119
 10
19.0875
 20
11.3086
 10
18.8481
 20
11.3994
 10
18.631
 20
11.4822
 10
18.4417
 20
11.5549
 10
18.2855
 20
11.6156
 10
18.1679
 20
11.6622
 10
18.0944
 20
11.6926
 10
18.0704
 20
11.7049
 10
18.0961
 20
11.7149
 10
18.1622
 20
11.7361
 10
18.2642
 20
11.767
 10
18.3976
 20
11.8066
 10
18.5582
 20
11.8535
 10
18.7413
 20
11.9065
 10
18.9425
 20
11.9643
 10
19.1575
 20
12.0257
 10
19.3817
 20
12.0894
 10
19.6107
 20
12.1542
 10
19.8401
 20
12.2189
 10
20.0655
 20
12.2821
 10
20.2824
 20
12.3426
 10
20.4863
 20
12.3992
 10
20.6728
 20
12.4506
 10
20.8375
 20
12.4955
 10
20.9759
 20
12.5328
 10
21.0836
 20
12.5611
 10
21.1561
 20
12.5792
 10
21.189
 20
12.5858
 10
21.1979
 20
12.585
 10
21.2113
 20
12.5814
 10
21.229
 20
12.5753
 10
21.2508
 20
12.5667
 10
21.2764
 20
12.5558
 10
21.3058
 20
12.5427
 10
21.3386
 20
12.5274
 10
21.3746
 20
12.5101
 10
21.4137
 20
12.4908
 10
21.4556
 20
12.4698
 10
21.5002
 20
12.4471
 10
21.5472
 20
12.4228
 10
21.5964
 20
12.397
 10
21.6476
 20
12.3698
 10
21.7007
 20
12.3414
 10
21.7553
 20
12.3118
 10
21.8113
 20
12.2812
 10
21.8685
 20
12.2497
 10
21.9266
 20
12.2173
 10
21.9855
 20
12.1842
 10
22.0444
 20
12.1509
 10
22.1024
 20
12.1181
 10
22.1594
 20
12.0858
 10
22.215
 20
12.0542
 10
22.2692
 20
12.0233
 10
22.3217
 20
11.9934
 10
22.3723
 20
11.9644
 10
22.4208
 20
11.9365
 10
22.4671
 20
11.9099
 10
22.5108
 20
11.8846
 10
22.5518
 20
11.8608
 10
22.5899
 20
11.8386
 10
22.6249
 20
11.8181
 10
22.6565
 20
11.7994
 10
22.6847
 20
11.7827
 10
22.7091
 20
11.7679
 10
22.7295
 20
11.7554
 10
22.7458
 20
11.7451
 10
22.7578
 20
11.7373
 10
22.7652
 20
11.7319
 10
22.7731
 20
11.7257
 10
22.7793
 20
11.7188
 10
22.7836
 20
11.7109
 10
22.7858
 20
11.7015
 10
22.7855
 20
11.6903
 10
22.7826
 20
11.6767
 10
22.7766
 20
11.6604
 10
22.7674
 20
11.641
 10
22.7547
 20
11.618
 10
22.7382
 20
11.591
 10
22.7176
 20
11.5596
 10
22.6928
 20
11.5234
 10
22.6633
 20
11.482
 10
22.629
 20
11.4348
 10
22.5896
 20
11.3816
 10
22.5448
 20
11.3219
 10
22.4943
 20
11.2553
 10
22.4379
 20
11.1813
 10
22.3752
 20
11.0996
 10
22.3062
 20
11.0096
 10
22.2635
 20
10.954
 10
22.2215
 20
10.8996
 10
22.1804
 20
10.8466
 10
22.1404
 20
10.7952
 10
22.1015
 20
10.7455
 10
22.0639
 20
10.6978
 10
22.0278
 20
10.6522
 10
21.9932
 20
10.6088
 10
21.9604
 20
10.5679
 10
21.9294
 20
10.5295
 10
21.9005
 20
10.494
 10
21.8736
 20
10.4614
 10
21.8491
 20
10.432
 10
21.8269
 20
10.4058
 10
21.8073
 20
10.3831
 10
21.7905
 20
10.3641
 10
21.7764
 20
10.3489
 10
21.7653
 20
10.3377
 10
21.7574
 20
10.3306
 10
21.7527
 20
10.3279
  0
LWPOLYLINE
100
AcDbEntity
  8
0
100
AcDbPolyline
 90
140
 70
1
 10
11.6526
 20
7.24747
 10
11.5702
 20
7.31822
 10
11.4431
 20
7.4299
 10
11.277
 20
7.57742
 10
11.0774
 20
7.75566
 10
10.8501
 20
7.95953
 10
10.6006
 20
8.18393
 10
10.3346
 20
8.42376
 10
10.0577
 20
8.67392
 10
9.77561
 20
8.9293
 10
9.49387
 20
9.18481
 10
9.21813
 20
9.43535
 10
8.95404
 20
9.67581
 10
8.70722
 20
9.9011
 10
8.48331
 20
10.1061
 10
8.28795
 20
10.2857
 10
8.12675
 20
10.4349
 10
8.00536
 20
10.5485
 10
7.92941
 20
10.6214
 10
7.90453
 20
10.6485
 10
7.92975
 20
10.6629
 10
7.99154
 20
10.6938
 10
8.08584
 20
10.7393
 10
8.20856
 20
10.7975
 10
8.35564
 20
10.8666
 10
8.52299
 20
10.9446
 10
8.70654
 20
11.0298
 10
8.90222
 20
11.1203
 10
9.10594
 20
11.2142
 10
9.31365
 20
11.3096
 10
9.52124
 20
11.4047
 10
9.72467
 20
11.4976
 10
9.91984
 20
11.5864
 10
10.1027
 20
11.6693
 10
10.2691
 20
11.7444
 10
10.4151
 20
11.8099
 10
10.5365
 20
11.8638
 10
10.6293
 20
11.9043
 10
10.6893
 20
11.9296
 10
10.7126
 20
11.9378
 10
10.7165
 20
11.9347
 10
10.7229
 20
11.9277
 10
10.7318
 20
11.9168
 10
10.743
 20
11.9023
 10
10.7564
 20
11.8842
 10
10.7719
 20
11.8628
 10
10.7894
 20
11.8383
 10
10.8088
 20
11.8107
 10
10.8299
 20
11.7802
 10
10.8527
 20
11.7471
 10
10.877
 20
11.7114
 10
10.9027
 20
11.6734
 10
10.9296
 20
11.6332
 10
10.9578
 20
11.5909
 10
10.987
 20
11.5467
 10
11.0171
 20
11.5008
 10
11.048
 20
11.4534
 10
11.0797
 20
11.4045
 10
11.1119
 20
11.3544
 10
11.1446
 20
11.3033
 10
11.1773
 20
11.2524
 10
11.2093
 20
11.2022
 10
11.2406
 20
11.1528
 10
11.2711
 20
11.1043
 10
11.3006
 20
11.0571
 10
11.3292
 20
11.0112
 10
11.3565
 20
10.9669
 10
11.3826
 20
10.9243
 10
11.4074
 20
10.8837
 10
11.4307
 20
10.8451
 10
11.4524
 20
10.8088
 10
11.4725
 20
10.775
 10
11.4907
 20
10.7438
 10
11.5071
 20
10.7154
 10
11.5215
 20
10.6901
 10
11.5338
 20
10.6679
 10
11.5439
 20
10.6491
 10
11.5516
 20
10.6339
 10
11.557
 20
10.6223
 10
11.5598
 20
10.6148
 10
11.561
 20
10.6045
 10
11.5625
 20
10.5852
 10
11.5643
 20
10.5572
 10
11.5665
 20
10.5209
 10
11.5689
 20
10.4767
 10
11.5715
 20
10.425
 10
11.5744
 20
10.3661
 10
11.5775
 20
10.3005
 10
11.5808
 20
10.2286
 10
11.5843
 20
10.1507
 10
11.5879
 20
10.0672
 10
11.5916
 20
9.97856
 10
11.5955
 20
9.88512
 10
11.5994
 20
9.78728
 10
11.6035
 20
9.68544
 10
11.6075
 20
9.57997
 10
11.6116
 20
9.47127
 10
11.6157
 20
9.35974
 10
11.6198
 20
9.24575
 10
11.6239
 20
9.1297
 10
11.6285
 20
9.01305
 10
11.6331
 20
8.8973
 10
11.6377
 20
8.78289
 10
11.6423
 20
8.67025
 10
11.6469
 20
8.55983
 10
11.6514
 20
8.45207
 10
11.6559
 20
8.34741
 10
11.6603
 20
8.24628
 10
11.6645
 20
8.14914
 10
11.6686
 20
8.05641
 10
11.6726
 20
7.96855
 10
11.6764
 20
7.88598
 10
11.68
 20
7.80916
 10
11.6834
 20
7.73852
 10
11.6866
 20
7.6745
 10
11.6895
 20
7.61754
 10
11.6921
 20
7.56808
 10
11.6944
 20
7.52657
 10
11.6965
 20
7.49345
 10
11.6982
 20
7.46914
 10
11.6996
 20
7.44817
 10
11.7008
 20
7.4278
 10
11.7018
 20
7.40809
 10
11.7026
 20
7.38908
 10
11.7032
 20
7.37084
 10
11.7035
 20
7.35341
 10
11.7037
 20
7.33684
 10
11.7036
 20
7.32118
 10
11.7033
 20
7.30648
 10
11.7028
 20
7.29279
 10
11.7021
 20
7.28017
 10
11.7011
 20
7.26866
 10
11.6999
 20
7.25831
 10
11.6984
 20
7.24919
 10
11.6967
 20
7.24132
 10
11.6948
 20
7.23477
 10
11.6927
 20
7.22959
 10
11.6902
 20
7.22583
 10
11.6876
 20
7.22353
 10
11.6847
 20
7.22276
  0
LWPOLYLINE
100
AcDbEntity
  8
0
100
AcDbPolyline
 90
140
 70
1
 10
20.7394
 20
5.87875
 10
20.4769
 20
5.8913
 10
20.1319
 20
5.90927
 10
19.7161
 20
5.93193
 10
19.2413
 20
5.95858
 10
18.7194
 20
5.98851
 10
18.1622
 20
6.021
 10
17.5813
 20
6.05534
 10
16.9887
 20
6.09083
 10
16.396
 20
6.12674
 10
15.8152
 20
6.16238
 10
15.2579
 20
6.19702
 10
14.736
 20
6.22996
 10
14.2613
 20
6.26048
 10
13.8455
 20
6.28788
 10
13.5004
 20
6.31144
 10
13.2379
 20
6.33045
 10
13.0698
 20
6.3442
 10
13.0077
 20
6.35198
 10
13.0055
 20
6.38414
 10
13.0058
 20
6.46866
 10
13.0083
 20
6.59972
 10
13.0129
 20
6.77149
 10
13.0193
 20
6.97817
 10
13.0272
 20
7.21393
 10
13.0364
 20
7.47296
 10
13.0468
 20
7.74944
 10
13.0579
 20
8.03755
 10
13.0697
 20
8.33149
 10
13.0819
 20
8.62542
 10
13.0942
 20
8.91353
 10
13.1065
 20
9.19001
 10
13.1184
 20
9.44904
 10
13.1297
 20
9.6848
 10
13.1402
 20
9.89148
 10
13.1497
 20
10.0633
 10
13.158
 20
10.1943
 10
13.1647
 20
10.2788
 10
13.1697
 20
10.311
 10
13.1779
 20
10.3144
 10
13.1991
 20
10.3215
 10
13.2327
 20
10.3322
 10
13.2782
 20
10.3462
 10
13.3352
 20
10.3634
 10
13.4029
 20
10.3837
 10
13.481
 20
10.4069
 10
13.5688
 20
10.4329
 10
13.6659
 20
10.4614
 10
13.7718
 20
10.4924
 10
13.8857
 20
10.5257
 10
14.0074
 20
10.561
 10
14.1361
 20
10.5984
 10
14.2714
 20
10.6375
 10
14.4128
 20
10.6784
 10
14.5596
 20
10.7207
 10
14.7114
 20
10.7643
 10
14.8677
 20
10.8091
 10
15.0279
 20
10.8549
 10
15.1914
 20
10.9016
 10
15.3554
 20
10.9483
 10
15.5157
 20
10.9939
 10
15.672
 20
11.0383
 10
15.8237
 20
11.0815
 10
15.9703
 20
11.1232
 10
16.1112
 20
11.1633
 10
16.2459
 20
11.2016
 10
16.3739
 20
11.238
 10
16.4947
 20
11.2724
 10
16.6077
 20
11.3045
 10
16.7125
 20
11.3344
 10
16.8084
 20
11.3617
 10
16.895
 20
11.3863
 10
16.9718
 20
11.4082
 10
17.0382
 20
11.4271
 10
17.0937
 20
11.4428
 10
17.1378
 20
11.4554
 10
17.1699
 20
11.4645
 10
17.1896
 20
11.4701
 10
17.1962
 20
11.472
 10
17.2034
 20
11.4698
 10
17.2245
 20
11.4621
 10
17.2591
 20
11.4493
 10
17.3065
 20
11.4315
 10
17.3662
 20
11.4089
 10
17.4375
 20
11.3818
 10
17.5201
 20
11.3505
 10
17.6132
 20
11.3151
 10
17.7164
 20
11.2758
 10
17.8291
 20
11.2328
 10
17.9506
 20
11.1865
 10
18.0805
 20
11.1369
 10
18.2182
 20
11.0844
 10
18.3632
 20
11.0291
 10
18.5148
 20
10.9713
 10
18.6724
 20
10.9112
 10
18.8357
 20
10.8489
 10
19.0039
 20
10.7848
 10
19.1765
 20
10.7191
 10
19.3529
 20
10.6519
 10
19.529
 20
10.5842
 10
19.7013
 20
10.5178
 10
19.8694
 20
10.4531
 10
20.0326
 20
10.3902
 10
20.1903
 20
10.3293
 10
20.3421
 20
10.2707
 10
20.4874
 20
10.2146
 10
20.6255
 20
10.1612
 10
20.7559
 20
10.1107
 10
20.8781
 20
10.0633
 10
20.9914
 20
10.0194
 10
21.0953
 20
9.97899
 10
21.1893
 20
9.94241
 10
21.2727
 20
9.90986
 10
21.3449
 20
9.88156
 10
21.4056
 20
9.85773
 10
21.4539
 20
9.83858
 10
21.4894
 20
9.82434
 10
21.5116
 20
9.81524
 10
21.5198
 20
9.81148
 10
21.5192
 20
9.78035
 10
21.5108
 20
9.69691
 10
21.4956
 20
9.56697
 10
21.4742
 20
9.39634
 10
21.4476
 20
9.19082
 10
21.4165
 20
8.95624
 10
21.3817
 20
8.69839
 10
21.3441
 20
8.42309
 10
21.3045
 20
8.13614
 10
21.2637
 20
7.84336
 10
21.2225
 20
7.55055
 10
21.1817
 20
7.26353
 10
21.1422
 20
6.9881
 10
21.1048
 20
6.73007
 10
21.0703
 20
6.49526
 10
21.0395
 20
6.28947
 10
21.0132
 20
6.11851
 10
20.9922
 20
5.98819
 10
20.9774
 20
5.90432
 10
20.9696
 20
5.87271
 10
20.9076
 20
5.87231
  0
LWPOLYLINE
100
AcDbEntity
  8
0
100
AcDbPolyline
 90
105
 70
1
 10
22.0395
 20
6.67261
 10
22.0398
 20
6.68831
 10
22.0404
 20
6.71384
 10
22.0415
 20
6.74876
 10
22.043
 20
6.79263
 10
22.0449
 20
6.84501
 10
22.0472
 20
6.90545
 10
22.0498
 20
6.9735
 10
22.0528
 20
7.04874
 10
22.0561
 20
7.1307
 10
22.0598
 20
7.21896
 10
22.0637
 20
7.31307
 10
22.068
 20
7.41257
 10
22.0725
 20
7.51705
 10
22.0772
 20
7.62603
 10
22.0823
 20
7.7391
 10
22.0875
 20
7.8558
 10
22.0929
 20
7.97568
 10
22.0986
 20
8.09831
 10
22.1044
 20
8.22325
 10
22.1104
 20
8.35005
 10
22.1847
 20
9.9026
 10
23.3592
 20
11.4079
 10
23.501
 20
11.3269
 10
23.5163
 20
11.3178
 10
23.5387
 20
11.3047
 10
23.5679
 20
11.2878
 10
23.6035
 20
11.2673
 10
23.6452
 20
11.2435
 10
23.6927
 20
11.2164
 10
23.7456
 20
11.1863
 10
23.8035
 20
11.1533
 10
23.8663
 20
11.1177
 10
23.9334
 20
11.0797
 10
24.0046
 20
11.0393
 10
24.0796
 20
10.9969
 10
24.1579
 20
10.9526
 10
24.2393
 20
10.9065
 10
24.3235
 20
10.8589
 10
24.41
 20
10.81
 10
24.4986
 20
10.7599
 10
24.5889
 20
10.7089
 10
24.6806
 20
10.657
 10
24.7734
 20
10.6046
 10
24.8656
 20
10.5519
 10
24.9558
 20
10.5002
 10
25.0435
 20
10.4496
 10
25.1287
 20
10.4003
 10
25.2109
 20
10.3525
 10
25.2898
 20
10.3065
 10
25.3653
 20
10.2622
 10
25.4369
 20
10.22
 10
25.5043
 20
10.1799
 10
25.5674
 20
10.1422
 10
25.6257
 20
10.1071
 10
25.6791
 20
10.0746
 10
25.7271
 20
10.045
 10
25.7696
 20
10.0185
 10
25.8062
 20
9.99521
 10
25.8366
 20
9.97529
 10
25.8605
 20
9.95894
 10
25.8777
 20
9.94632
 10
25.8878
 20
9.93761
 10
25.8905
 20
9.93298
 10
25.8843
 20
9.92641
 10
25.868
 20
9.91099
 10
25.842
 20
9.88709
 10
25.8067
 20
9.85508
 10
25.7625
 20
9.81533
 10
25.7099
 20
9.76819
 10
25.6492
 20
9.71404
 10
25.5809
 20
9.65325
 10
25.5054
 20
9.58618
 10
25.4231
 20
9.5132
 10
25.3344
 20
9.43467
 10
25.2398
 20
9.35097
 10
25.1396
 20
9.26246
 10
25.0343
 20
9.16951
 10
24.9242
 20
9.07248
 10
24.8099
 20
8.97175
 10
24.6916
 20
8.86767
 10
24.5699
 20
8.76061
 10
24.4452
 20
8.65095
 10
24.3177
 20
8.53905
 10
24.1887
 20
8.42621
 10
24.0601
 20
8.31375
 10
23.9325
 20
8.20212
 10
23.8063
 20
8.09176
 10
23.6821
 20
7.98311
 10
23.5604
 20
7.87661
 10
23.4416
 20
7.77271
 10
23.3263
 20
7.67184
 10
23.215
 20
7.57444
 10
23.1082
 20
7.48095
 10
23.0063
 20
7.39182
 10
22.91
 20
7.30749
 10
22.8196
 20
7.22839
 10
22.7358
 20
7.15496
 10
22.6589
 20
7.08765
 10
22.5896
 20
7.02689
 10
22.5282
 20
6.97313
 10
22.4754
 20
6.92681
 10
22.4316
 20
6.88837
 10
22.3973
 20
6.85824
 10
22.0395
 20
6.54436
  0
ENDSEC
  0
EOF
