999
DXF from OpenSCAD
  0
SECTION
  2
HEADER
  9
$ACADVER
  1
AC1006
  9
$INSBASE
 10
0.0
 20
0.0
 30
0.0
  9
$EXTMIN
 10
7.33933
 20
5.18074
  9
$EXTMAX
 10
35.3393
 20
40.1092
  9
$LINMIN
 10
7.33933
 20
5.18074
  9
$LINMAX
 10
35.3393
 20
40.1092
  0
ENDSEC
  0
SECTION
  2
TABLES
  0
TABLE
  2
LTYPE
 70
1
  0
LTYPE
  2
CONTINUOUS
 70
64
  3
Solid line
 72
65
 73
0
 40
0.000000
  0
ENDTAB
  0
TABLE
  2
LAYER
 70
6
  0
LAYER
  2
0
 70
64
 62
7
  6
CONTINUOUS
  0
ENDTAB
  0
TABLE
  2
STYLE
 70
0
  0
ENDTAB
  0
ENDSEC
  0
SECTION
  2
BLOCKS
  0
ENDSEC
  0
SECTION
  2
ENTITIES
  0
LWPOLYLINE
100
AcDbEntity
  8
0
100
AcDbPolyline
 90
220
 70
1
 10
21.4338
 20
5.182
 10
21.4742
 20
5.18704
 10
21.5148
 20
5.19588
 10
21.5557
 20
5.20854
 10
21.5967
 20
5.22503
 10
21.6377
 20
5.24537
 10
21.6788
 20
5.26959
 10
21.7197
 20
5.29769
 10
21.8369
 20
5.44186
 10
22.1308
 20
5.82436
 10
22.5818
 20
6.41885
 10
23.1702
 20
7.19899
 10
23.8764
 20
8.13845
 10
24.6808
 20
9.21089
 10
25.5637
 20
10.39
 10
26.5055
 20
11.6493
 10
27.4865
 20
12.9627
 10
28.4871
 20
14.3037
 10
29.4876
 20
15.6459
 10
30.4685
 20
16.9632
 10
31.41
 20
18.229
 10
32.2924
 20
19.4171
 10
33.0963
 20
20.5012
 10
33.8019
 20
21.4549
 10
34.3895
 20
22.2518
 10
34.8396
 20
22.8657
 10
35.1325
 20
23.2702
 10
35.2485
 20
23.4389
 10
35.2719
 20
23.4889
 10
35.2917
 20
23.5413
 10
35.308
 20
23.5957
 10
35.3209
 20
23.6516
 10
35.3303
 20
23.7086
 10
35.3365
 20
23.7663
 10
35.3393
 20
23.8242
 10
35.339
 20
23.8819
 10
35.3356
 20
23.9389
 10
35.3291
 20
23.9949
 10
35.3197
 20
24.0494
 10
35.3073
 20
24.1019
 10
35.2922
 20
24.1521
 10
35.2742
 20
24.1995
 10
35.2536
 20
24.2436
 10
35.2303
 20
24.2841
 10
35.2044
 20
24.3204
 10
35.1761
 20
24.3523
 10
35.1453
 20
24.3792
 10
35.1122
 20
24.4006
 10
35.0028
 20
24.5185
 10
34.7199
 20
24.84
 10
34.2827
 20
25.3428
 10
33.7106
 20
26.0042
 10
33.023
 20
26.8017
 10
32.239
 20
27.7128
 10
31.3781
 20
28.7148
 10
30.4596
 20
29.7852
 10
29.5026
 20
30.9015
 10
28.5267
 20
32.0411
 10
27.551
 20
33.1815
 10
26.5949
 20
34.3
 10
25.6777
 20
35.3742
 10
24.8187
 20
36.3815
 10
24.0372
 20
37.2993
 10
23.3525
 20
38.1051
 10
22.7839
 20
38.7763
 10
22.3508
 20
39.2903
 10
22.0725
 20
39.6246
 10
21.9682
 20
39.7567
 10
21.9434
 20
39.8017
 10
21.9151
 20
39.8441
 10
21.8835
 20
39.8838
 10
21.8488
 20
39.9206
 10
21.8115
 20
39.9544
 10
21.7718
 20
39.9852
 10
21.7301
 20
40.0129
 10
21.6866
 20
40.0372
 10
21.6416
 20
40.0583
 10
21.5955
 20
40.0758
 10
21.5486
 20
40.0898
 10
21.5011
 20
40.1001
 10
21.4533
 20
40.1066
 10
21.4057
 20
40.1092
 10
21.3584
 20
40.1078
 10
21.3119
 20
40.1023
 10
21.2663
 20
40.0926
 10
21.2221
 20
40.0786
 10
21.1794
 20
40.0602
 10
21.1387
 20
40.0372
 10
21.1288
 20
40.0304
 10
21.1183
 20
40.0231
 10
21.1074
 20
40.0154
 10
21.0961
 20
40.0074
 10
21.0844
 20
39.9991
 10
21.0724
 20
39.9904
 10
21.0602
 20
39.9816
 10
21.0479
 20
39.9726
 10
21.0354
 20
39.9634
 10
21.023
 20
39.9541
 10
21.0105
 20
39.9448
 10
20.9982
 20
39.9354
 10
20.986
 20
39.9261
 10
20.974
 20
39.9168
 10
20.9623
 20
39.9076
 10
20.9509
 20
39.8986
 10
20.94
 20
39.8898
 10
20.9295
 20
39.8812
 10
20.9196
 20
39.8729
 10
20.9103
 20
39.8649
 10
20.7978
 20
39.7214
 10
20.5073
 20
39.3385
 10
20.0587
 20
38.743
 10
19.4718
 20
37.9614
 10
18.7666
 20
37.0205
 10
17.9628
 20
35.9467
 10
17.0804
 20
34.7668
 10
16.1392
 20
33.5074
 10
15.159
 20
32.1951
 10
14.1599
 20
30.8565
 10
13.1616
 20
29.5182
 10
12.184
 20
28.207
 10
11.247
 20
26.9493
 10
10.3705
 20
25.7719
 10
9.57427
 20
24.7014
 10
8.87826
 20
23.7644
 10
8.30233
 20
22.9876
 10
7.86634
 20
22.3975
 10
7.59018
 20
22.0207
 10
7.49371
 20
21.884
 10
7.49347
 20
21.8812
 10
7.49278
 20
21.8775
 10
7.49164
 20
21.873
 10
7.49009
 20
21.8677
 10
7.48814
 20
21.8617
 10
7.48581
 20
21.855
 10
7.48313
 20
21.8477
 10
7.48012
 20
21.8398
 10
7.47679
 20
21.8314
 10
7.47317
 20
21.8224
 10
7.46928
 20
21.813
 10
7.46515
 20
21.8032
 10
7.46078
 20
21.7931
 10
7.4562
 20
21.7826
 10
7.45144
 20
21.7719
 10
7.44652
 20
21.7609
 10
7.44145
 20
21.7498
 10
7.43626
 20
21.7385
 10
7.43096
 20
21.7271
 10
7.42558
 20
21.7157
 10
7.42015
 20
21.7036
 10
7.41468
 20
21.6902
 10
7.40921
 20
21.6757
 10
7.40375
 20
21.66
 10
7.39835
 20
21.6433
 10
7.39302
 20
21.6258
 10
7.38779
 20
21.6074
 10
7.38269
 20
21.5883
 10
7.37775
 20
21.5686
 10
7.37299
 20
21.5484
 10
7.36844
 20
21.5278
 10
7.36413
 20
21.5068
 10
7.36008
 20
21.4856
 10
7.35633
 20
21.4643
 10
7.35289
 20
21.443
 10
7.3498
 20
21.4217
 10
7.34708
 20
21.4005
 10
7.34476
 20
21.3797
 10
7.34287
 20
21.3591
 10
7.34143
 20
21.339
 10
7.33941
 20
21.2958
 10
7.33933
 20
21.2528
 10
7.34114
 20
21.2102
 10
7.3448
 20
21.1679
 10
7.35026
 20
21.1261
 10
7.35748
 20
21.085
 10
7.36641
 20
21.0445
 10
7.37702
 20
21.0049
 10
7.38924
 20
20.9661
 10
7.40304
 20
20.9283
 10
7.41838
 20
20.8916
 10
7.4352
 20
20.856
 10
7.45347
 20
20.8218
 10
7.47313
 20
20.7889
 10
7.49415
 20
20.7575
 10
7.51647
 20
20.7276
 10
7.54006
 20
20.6994
 10
7.56486
 20
20.673
 10
7.59083
 20
20.6484
 10
7.61794
 20
20.6257
 10
7.73556
 20
20.5009
 10
8.02741
 20
20.1773
 10
8.4741
 20
19.6769
 10
9.05625
 20
19.0217
 10
9.75447
 20
18.2337
 10
10.5494
 20
17.335
 10
11.4216
 20
16.3475
 10
12.3517
 20
15.2934
 10
13.3204
 20
14.1945
 10
14.3082
 20
13.0729
 10
15.2957
 20
11.9507
 10
16.2637
 20
10.8498
 10
17.1926
 20
9.79235
 10
18.0631
 20
8.80025
 10
18.8559
 20
7.89557
 10
19.5514
 20
7.10032
 10
20.1305
 20
6.43651
 10
20.5736
 20
5.92618
 10
20.8613
 20
5.59133
 10
20.9744
 20
5.45398
 10
21.0033
 20
5.41127
 10
21.0337
 20
5.37213
 10
21.0653
 20
5.33657
 10
21.0981
 20
5.30462
 10
21.132
 20
5.27628
 10
21.1669
 20
5.25158
 10
21.2028
 20
5.23053
 10
21.2396
 20
5.21315
 10
21.2772
 20
5.19947
 10
21.3155
 20
5.18949
 10
21.3544
 20
5.18325
 10
21.3939
 20
5.18074
  0
LWPOLYLINE
100
AcDbEntity
  8
0
100
AcDbPolyline
 90
100
 70
1
 10
33.1132
 20
24.8335
 10
32.9358
 20
24.8599
 10
32.6573
 20
24.9026
 10
32.2902
 20
24.9597
 10
31.8473
 20
25.0292
 10
31.3412
 20
25.1089
 10
30.7845
 20
25.1969
 10
30.1899
 20
25.2912
 10
29.57
 20
25.3898
 10
28.9374
 20
25.4906
 10
28.305
 20
25.5917
 10
27.6851
 20
25.691
 10
27.0907
 20
25.7865
 10
26.5342
 20
25.8762
 10
26.0283
 20
25.9581
 10
25.5857
 20
26.0302
 10
25.2191
 20
26.0904
 10
24.941
 20
26.1368
 10
24.7642
 20
26.1673
 10
24.7012
 20
26.1799
 10
24.6843
 20
26.2591
 10
24.6395
 20
26.4815
 10
24.5697
 20
26.8311
 10
24.4782
 20
27.292
 10
24.368
 20
27.8484
 10
24.2423
 20
28.4843
 10
24.1042
 20
29.184
 10
23.9569
 20
29.9314
 10
23.8033
 20
30.7108
 10
23.6468
 20
31.5061
 10
23.4903
 20
32.3017
 10
23.337
 20
33.0815
 10
23.1901
 20
33.8297
 10
23.0526
 20
34.5304
 10
22.9278
 20
35.1677
 10
22.8186
 20
35.7257
 10
22.7282
 20
36.1886
 10
22.6598
 20
36.5404
 10
22.6165
 20
36.7653
 10
22.6013
 20
36.8474
 10
22.6006
 20
36.8562
 10
22.6015
 20
36.8625
 10
22.6082
 20
36.8613
 10
22.6254
 20
36.8476
 10
22.6573
 20
36.8164
 10
22.7084
 20
36.7627
 10
22.7831
 20
36.6815
 10
22.8858
 20
36.5679
 10
23.0209
 20
36.4168
 10
23.1929
 20
36.2233
 10
23.4062
 20
35.9823
 10
23.6652
 20
35.689
 10
23.9742
 20
35.3382
 10
24.3378
 20
34.9251
 10
24.7602
 20
34.4445
 10
25.2461
 20
33.8916
 10
25.7996
 20
33.2613
 10
26.4254
 20
32.5487
 10
27.1277
 20
31.7487
 10
27.9111
 20
30.8565
 10
28.3298
 20
30.3799
 10
28.7401
 20
29.913
 10
29.1405
 20
29.4573
 10
29.5296
 20
29.0145
 10
29.9061
 20
28.5859
 10
30.2686
 20
28.1733
 10
30.6158
 20
27.7781
 10
30.9463
 20
27.4019
 10
31.2587
 20
27.0463
 10
31.5517
 20
26.7129
 10
31.8239
 20
26.4031
 10
32.0739
 20
26.1185
 10
32.3004
 20
25.8608
 10
32.5021
 20
25.6314
 10
32.6774
 20
25.4319
 10
32.8251
 20
25.2639
 10
32.9439
 20
25.1289
 10
33.0323
 20
25.0285
 10
33.089
 20
24.9642
 10
33.1126
 20
24.9376
 10
33.1191
 20
24.9298
 10
33.1253
 20
24.9221
 10
33.1313
 20
24.9146
 10
33.1369
 20
24.9071
 10
33.1423
 20
24.8998
 10
33.1474
 20
24.8927
 10
33.1521
 20
24.8858
 10
33.1565
 20
24.8791
 10
33.1605
 20
24.8727
 10
33.1642
 20
24.8665
 10
33.1674
 20
24.8606
 10
33.1703
 20
24.8551
 10
33.1727
 20
24.8499
 10
33.1747
 20
24.8451
 10
33.1763
 20
24.8407
 10
33.1773
 20
24.8367
 10
33.1779
 20
24.8332
 10
33.178
 20
24.8301
 10
33.1776
 20
24.8275
 10
33.1767
 20
24.8254
  0
LWPOLYLINE
100
AcDbEntity
  8
0
100
AcDbPolyline
 90
140
 70
1
 10
23.0167
 20
26.4571
 10
22.9914
 20
26.4605
 10
22.9508
 20
26.4663
 10
22.8955
 20
26.4745
 10
22.8262
 20
26.4851
 10
22.7435
 20
26.4978
 10
22.6482
 20
26.5126
 10
22.5408
 20
26.5294
 10
22.4219
 20
26.5481
 10
22.2923
 20
26.5686
 10
22.1525
 20
26.5908
 10
22.0033
 20
26.6145
 10
21.8452
 20
26.6397
 10
21.679
 20
26.6663
 10
21.5052
 20
26.6942
 10
21.3245
 20
26.7233
 10
21.1375
 20
26.7534
 10
20.9449
 20
26.7845
 10
20.7474
 20
26.8164
 10
20.5456
 20
26.8491
 10
20.3436
 20
26.8819
 10
20.1458
 20
26.9139
 10
19.9526
 20
26.9451
 10
19.7649
 20
26.9754
 10
19.5833
 20
27.0047
 10
19.4083
 20
27.0329
 10
19.2407
 20
27.0598
 10
19.0812
 20
27.0854
 10
18.9304
 20
27.1095
 10
18.7889
 20
27.1321
 10
18.6574
 20
27.1531
 10
18.5366
 20
27.1723
 10
18.4271
 20
27.1896
 10
18.3296
 20
27.205
 10
18.2447
 20
27.2182
 10
18.1731
 20
27.2293
 10
18.1155
 20
27.2382
 10
18.0725
 20
27.2446
 10
18.0448
 20
27.2485
 10
18.033
 20
27.2499
 10
18.03
 20
27.25
 10
18.027
 20
27.2506
 10
18.024
 20
27.2514
 10
18.0211
 20
27.2526
 10
18.0183
 20
27.254
 10
18.0155
 20
27.2558
 10
18.0128
 20
27.2578
 10
18.0102
 20
27.2601
 10
18.0078
 20
27.2626
 10
18.0054
 20
27.2654
 10
18.0033
 20
27.2683
 10
18.0013
 20
27.2715
 10
17.9994
 20
27.2748
 10
17.9978
 20
27.2783
 10
17.9964
 20
27.282
 10
17.9952
 20
27.2858
 10
17.9942
 20
27.2897
 10
17.9935
 20
27.2937
 10
17.9931
 20
27.2978
 10
17.9929
 20
27.3019
 10
18.0123
 20
27.3656
 10
18.068
 20
27.5347
 10
18.1563
 20
27.7986
 10
18.2735
 20
28.1463
 10
18.4159
 20
28.567
 10
18.5797
 20
29.0497
 10
18.7612
 20
29.5836
 10
18.9567
 20
30.1579
 10
19.1626
 20
30.7616
 10
19.3749
 20
31.3839
 10
19.5902
 20
32.014
 10
19.8046
 20
32.6409
 10
20.0144
 20
33.2538
 10
20.2159
 20
33.8417
 10
20.4054
 20
34.394
 10
20.5792
 20
34.8996
 10
20.7335
 20
35.3477
 10
20.8646
 20
35.7274
 10
20.9689
 20
36.0279
 10
21.0425
 20
36.2383
 10
21.0533
 20
36.2668
 10
21.0639
 20
36.2946
 10
21.0743
 20
36.3215
 10
21.0845
 20
36.3475
 10
21.0944
 20
36.3725
 10
21.1041
 20
36.3964
 10
21.1134
 20
36.4191
 10
21.1224
 20
36.4405
 10
21.131
 20
36.4606
 10
21.1392
 20
36.4792
 10
21.1469
 20
36.4963
 10
21.1542
 20
36.5118
 10
21.1609
 20
36.5256
 10
21.1671
 20
36.5376
 10
21.1727
 20
36.5477
 10
21.1777
 20
36.5558
 10
21.182
 20
36.5619
 10
21.1856
 20
36.5658
 10
21.1886
 20
36.5675
 10
21.1908
 20
36.5669
 10
21.1956
 20
36.5483
 10
21.2063
 20
36.4971
 10
21.2227
 20
36.4146
 10
21.2444
 20
36.3022
 10
21.2713
 20
36.161
 10
21.3031
 20
35.9926
 10
21.3395
 20
35.7981
 10
21.3804
 20
35.579
 10
21.4254
 20
35.3366
 10
21.4743
 20
35.0722
 10
21.5269
 20
34.787
 10
21.5829
 20
34.4826
 10
21.6421
 20
34.1601
 10
21.7042
 20
33.8209
 10
21.769
 20
33.4664
 10
21.8362
 20
33.0978
 10
21.9056
 20
32.7165
 10
21.9769
 20
32.3238
 10
22.05
 20
31.9211
 10
22.1245
 20
31.5096
 10
22.1989
 20
31.0977
 10
22.2716
 20
30.6945
 10
22.3423
 20
30.3015
 10
22.411
 20
29.92
 10
22.4772
 20
29.5513
 10
22.5409
 20
29.1967
 10
22.6017
 20
28.8576
 10
22.6594
 20
28.5352
 10
22.7138
 20
28.231
 10
22.7646
 20
27.9461
 10
22.8117
 20
27.682
 10
22.8547
 20
27.44
 10
22.8935
 20
27.2213
 10
22.9278
 20
27.0273
 10
22.9574
 20
26.8594
 10
22.982
 20
26.7188
 10
23.0014
 20
26.6069
 10
23.0154
 20
26.525
 10
23.0237
 20
26.4744
 10
23.0261
 20
26.4564
  0
LWPOLYLINE
100
AcDbEntity
  8
0
100
AcDbPolyline
 90
82
 70
1
 10
10.9487
 20
23.9123
 10
10.9896
 20
23.9708
 10
11.0575
 20
24.0656
 10
11.1514
 20
24.1951
 10
11.2701
 20
24.3579
 10
11.4125
 20
24.5523
 10
11.5775
 20
24.7769
 10
11.7638
 20
25.0302
 10
11.9705
 20
25.3105
 10
12.1963
 20
25.6164
 10
12.4402
 20
25.9462
 10
12.7009
 20
26.2986
 10
12.9775
 20
26.6719
 10
13.2686
 20
27.0646
 10
13.5733
 20
27.4752
 10
13.8904
 20
27.9021
 10
14.2187
 20
28.3438
 10
14.5572
 20
28.7988
 10
14.9046
 20
29.2655
 10
15.2599
 20
29.7424
 10
15.6159
 20
30.2198
 10
15.9643
 20
30.6867
 10
16.3039
 20
31.1418
 10
16.6336
 20
31.5833
 10
16.9523
 20
32.0098
 10
17.2587
 20
32.4198
 10
17.5518
 20
32.8117
 10
17.8304
 20
33.1841
 10
18.0934
 20
33.5353
 10
18.3396
 20
33.864
 10
18.5678
 20
34.1684
 10
18.7771
 20
34.4471
 10
18.9661
 20
34.6987
 10
19.1338
 20
34.9215
 10
19.279
 20
35.114
 10
19.4006
 20
35.2747
 10
19.4974
 20
35.4021
 10
19.5684
 20
35.4946
 10
19.6122
 20
35.5508
 10
19.6279
 20
35.5691
 10
19.625
 20
35.5541
 10
19.614
 20
35.5122
 10
19.5954
 20
35.4446
 10
19.5693
 20
35.3523
 10
19.5362
 20
35.2365
 10
19.4963
 20
35.0981
 10
19.45
 20
34.9384
 10
19.3976
 20
34.7584
 10
19.3394
 20
34.5592
 10
19.2758
 20
34.3418
 10
19.207
 20
34.1075
 10
19.1334
 20
33.8572
 10
19.0553
 20
33.5922
 10
18.973
 20
33.3134
 10
18.8869
 20
33.0219
 10
18.7972
 20
32.7189
 10
18.7043
 20
32.4055
 10
18.6086
 20
32.0827
 10
18.5103
 20
31.7517
 10
18.4097
 20
31.4135
 10
17.1834
 20
27.2699
 10
14.0737
 20
25.5748
 10
13.8195
 20
25.4367
 10
13.5705
 20
25.3016
 10
13.3277
 20
25.17
 10
13.0919
 20
25.0424
 10
12.8638
 20
24.919
 10
12.6444
 20
24.8005
 10
12.4344
 20
24.6872
 10
12.2347
 20
24.5796
 10
12.046
 20
24.4781
 10
11.8692
 20
24.3831
 10
11.7051
 20
24.2952
 10
11.5546
 20
24.2147
 10
11.4184
 20
24.1421
 10
11.2974
 20
24.0778
 10
11.1924
 20
24.0223
 10
11.1042
 20
23.976
 10
11.0337
 20
23.9393
 10
10.9816
 20
23.9128
 10
10.9487
 20
23.8967
 10
10.936
 20
23.8917
  0
LWPOLYLINE
100
AcDbEntity
  8
0
100
AcDbPolyline
 90
120
 70
1
 10
24.2291
 20
19.5708
 10
24.1221
 20
19.5851
 10
23.9549
 20
19.6094
 10
23.7351
 20
19.6425
 10
23.4701
 20
19.6832
 10
23.1673
 20
19.7303
 10
22.8343
 20
19.7827
 10
22.4786
 20
19.8391
 10
22.1076
 20
19.8982
 10
21.7288
 20
19.959
 10
21.3497
 20
20.0202
 10
20.9777
 20
20.0805
 10
20.6205
 20
20.1388
 10
20.2854
 20
20.1939
 10
19.9799
 20
20.2446
 10
19.7116
 20
20.2896
 10
19.4878
 20
20.3278
 10
19.3162
 20
20.358
 10
19.2041
 20
20.3789
 10
19.1591
 20
20.3893
 10
19.1481
 20
20.4153
 10
19.129
 20
20.4842
 10
19.1021
 20
20.5936
 10
19.068
 20
20.7408
 10
19.0273
 20
20.9232
 10
18.9805
 20
21.1384
 10
18.928
 20
21.3836
 10
18.8705
 20
21.6564
 10
18.8084
 20
21.9541
 10
18.7423
 20
22.2743
 10
18.6727
 20
22.6142
 10
18.6002
 20
22.9713
 10
18.5252
 20
23.3432
 10
18.4483
 20
23.727
 10
18.3701
 20
24.1204
 10
18.291
 20
24.5208
 10
18.2116
 20
24.9254
 10
18.1325
 20
25.3319
 10
18.054
 20
25.7375
 10
17.9769
 20
26.1398
 10
17.9752
 20
26.1487
 10
17.9739
 20
26.1575
 10
17.9728
 20
26.1659
 10
17.972
 20
26.1742
 10
17.9715
 20
26.1821
 10
17.9713
 20
26.1897
 10
17.9713
 20
26.197
 10
17.9716
 20
26.2039
 10
17.9721
 20
26.2104
 10
17.9729
 20
26.2165
 10
17.9739
 20
26.2221
 10
17.9752
 20
26.2272
 10
17.9766
 20
26.2319
 10
17.9783
 20
26.236
 10
17.9803
 20
26.2396
 10
17.9824
 20
26.2425
 10
17.9847
 20
26.2449
 10
17.9873
 20
26.2466
 10
17.99
 20
26.2477
 10
17.9929
 20
26.248
 10
18.0046
 20
26.2464
 10
18.033
 20
26.2417
 10
18.0775
 20
26.234
 10
18.1374
 20
26.2234
 10
18.2121
 20
26.2101
 10
18.3007
 20
26.1941
 10
18.4026
 20
26.1757
 10
18.5172
 20
26.1549
 10
18.6437
 20
26.1319
 10
18.7814
 20
26.1068
 10
18.9296
 20
26.0796
 10
19.0876
 20
26.0507
 10
19.2547
 20
26.02
 10
19.4303
 20
25.9876
 10
19.6136
 20
25.9539
 10
19.804
 20
25.9187
 10
20.0007
 20
25.8823
 10
20.203
 20
25.8449
 10
20.4102
 20
25.8064
 10
20.6217
 20
25.7671
 10
20.8337
 20
25.7278
 10
21.0412
 20
25.6892
 10
21.2436
 20
25.6514
 10
21.4401
 20
25.6146
 10
21.6301
 20
25.579
 10
21.813
 20
25.5446
 10
21.9879
 20
25.5115
 10
22.1543
 20
25.48
 10
22.3114
 20
25.4501
 10
22.4586
 20
25.422
 10
22.5952
 20
25.3958
 10
22.7205
 20
25.3716
 10
22.8338
 20
25.3495
 10
22.9345
 20
25.3297
 10
23.0218
 20
25.3124
 10
23.0951
 20
25.2975
 10
23.1537
 20
25.2854
 10
23.1969
 20
25.276
 10
23.2241
 20
25.2696
 10
23.2345
 20
25.2662
 10
23.2454
 20
25.2218
 10
23.2697
 20
25.1013
 10
23.3061
 20
24.9131
 10
23.3528
 20
24.6659
 10
23.4085
 20
24.368
 10
23.4715
 20
24.0278
 10
23.5403
 20
23.6539
 10
23.6134
 20
23.2546
 10
23.6893
 20
22.8385
 10
23.7665
 20
22.414
 10
23.8433
 20
21.9896
 10
23.9183
 20
21.5736
 10
23.99
 20
21.1747
 10
24.0567
 20
20.8012
 10
24.117
 20
20.4616
 10
24.1693
 20
20.1643
 10
24.2122
 20
19.9178
 10
24.244
 20
19.7306
 10
24.2632
 20
19.6111
 10
24.2684
 20
19.5678
  0
LWPOLYLINE
100
AcDbEntity
  8
0
100
AcDbPolyline
 90
100
 70
1
 10
18.0595
 20
20.5716
 10
17.8928
 20
20.5943
 10
17.6363
 20
20.632
 10
17.3013
 20
20.6828
 10
16.899
 20
20.745
 10
16.4407
 20
20.8166
 10
15.9377
 20
20.8959
 10
15.4011
 20
20.981
 10
14.8424
 20
21.0703
 10
14.2726
 20
21.1617
 10
13.7031
 20
21.2536
 10
13.1452
 20
21.3441
 10
12.61
 20
21.4313
 10
12.1089
 20
21.5136
 10
11.653
 20
21.589
 10
11.2537
 20
21.6557
 10
10.9222
 20
21.712
 10
10.6698
 20
21.756
 10
10.5077
 20
21.7859
 10
10.4471
 20
21.7999
 10
10.4906
 20
21.8347
 10
10.6242
 20
21.9264
 10
10.8379
 20
22.0688
 10
11.1219
 20
22.2554
 10
11.4662
 20
22.4799
 10
11.861
 20
22.736
 10
12.2962
 20
23.0174
 10
12.7621
 20
23.3176
 10
13.2487
 20
23.6304
 10
13.7461
 20
23.9493
 10
14.2445
 20
24.2681
 10
14.7338
 20
24.5804
 10
15.2042
 20
24.8799
 10
15.6458
 20
25.1602
 10
16.0486
 20
25.4149
 10
16.4028
 20
25.6378
 10
16.6985
 20
25.8225
 10
16.9258
 20
25.9626
 10
17.0747
 20
26.0518
 10
17.1353
 20
26.0837
 10
17.1397
 20
26.0831
 10
17.1443
 20
26.0801
 10
17.1492
 20
26.0748
 10
17.1544
 20
26.0672
 10
17.1597
 20
26.0574
 10
17.1652
 20
26.0456
 10
17.171
 20
26.0317
 10
17.1768
 20
26.0158
 10
17.1828
 20
25.9981
 10
17.1889
 20
25.9785
 10
17.1951
 20
25.9572
 10
17.2014
 20
25.9343
 10
17.2077
 20
25.9097
 10
17.2141
 20
25.8836
 10
17.2204
 20
25.8561
 10
17.2268
 20
25.8271
 10
17.2331
 20
25.7969
 10
17.2393
 20
25.7654
 10
17.2455
 20
25.7328
 10
17.2516
 20
25.699
 10
17.2589
 20
25.659
 10
17.2689
 20
25.6044
 10
17.2814
 20
25.5359
 10
17.2963
 20
25.4542
 10
17.3134
 20
25.3601
 10
17.3326
 20
25.2542
 10
17.3538
 20
25.1373
 10
17.3768
 20
25.0101
 10
17.4016
 20
24.8734
 10
17.4279
 20
24.7277
 10
17.4556
 20
24.574
 10
17.4847
 20
24.4128
 10
17.5149
 20
24.2448
 10
17.5462
 20
24.0709
 10
17.5784
 20
23.8918
 10
17.6114
 20
23.708
 10
17.645
 20
23.5205
 10
17.6792
 20
23.3298
 10
17.7137
 20
23.1367
 10
17.7485
 20
22.942
 10
17.7971
 20
22.6753
 10
17.8419
 20
22.4277
 10
17.8831
 20
22.1987
 10
17.9208
 20
21.9877
 10
17.955
 20
21.7941
 10
17.9859
 20
21.6173
 10
18.0135
 20
21.4566
 10
18.038
 20
21.3115
 10
18.0595
 20
21.1813
 10
18.0781
 20
21.0655
 10
18.0938
 20
20.9635
 10
18.1068
 20
20.8747
 10
18.1172
 20
20.7984
 10
18.1251
 20
20.7341
 10
18.1305
 20
20.6811
 10
18.1337
 20
20.6389
 10
18.1346
 20
20.6068
 10
18.1334
 20
20.5843
 10
18.1303
 20
20.5708
 10
18.1252
 20
20.5656
  0
LWPOLYLINE
100
AcDbEntity
  8
0
100
AcDbPolyline
 90
100
 70
1
 10
25.9599
 20
19.9009
 10
25.9356
 20
20.007
 10
25.9
 20
20.1714
 10
25.8546
 20
20.3869
 10
25.8008
 20
20.6463
 10
25.7401
 20
20.9424
 10
25.6739
 20
21.268
 10
25.6036
 20
21.6158
 10
25.5307
 20
21.9787
 10
25.4566
 20
22.3494
 10
25.3827
 20
22.7207
 10
25.3105
 20
23.0855
 10
25.2414
 20
23.4365
 10
25.1769
 20
23.7665
 10
25.1183
 20
24.0682
 10
25.0672
 20
24.3346
 10
25.0249
 20
24.5583
 10
24.993
 20
24.7322
 10
24.9727
 20
24.849
 10
24.9657
 20
24.9016
 10
24.9659
 20
24.9085
 10
24.9664
 20
24.9149
 10
24.9674
 20
24.9208
 10
24.9687
 20
24.9261
 10
24.9705
 20
24.931
 10
24.9727
 20
24.9353
 10
24.9754
 20
24.9391
 10
24.9785
 20
24.9425
 10
24.9821
 20
24.9453
 10
24.9862
 20
24.9476
 10
24.9908
 20
24.9495
 10
24.996
 20
24.9509
 10
25.0017
 20
24.9518
 10
25.0079
 20
24.9523
 10
25.0147
 20
24.9523
 10
25.0221
 20
24.9518
 10
25.0301
 20
24.9509
 10
25.0387
 20
24.9496
 10
25.048
 20
24.9478
 10
25.0578
 20
24.9456
 10
25.0769
 20
24.9422
 10
25.1192
 20
24.9345
 10
25.1836
 20
24.9226
 10
25.2692
 20
24.9067
 10
25.375
 20
24.8871
 10
25.5002
 20
24.8639
 10
25.6436
 20
24.8373
 10
25.8043
 20
24.8074
 10
25.9814
 20
24.7745
 10
26.1739
 20
24.7388
 10
26.3808
 20
24.7003
 10
26.6012
 20
24.6594
 10
26.834
 20
24.6162
 10
27.0784
 20
24.5708
 10
27.3334
 20
24.5236
 10
27.5979
 20
24.4745
 10
27.8711
 20
24.4239
 10
28.1519
 20
24.3719
 10
28.4394
 20
24.3186
 10
28.7326
 20
24.2644
 10
29.3368
 20
24.1527
 10
29.8774
 20
24.0527
 10
30.3579
 20
23.9639
 10
30.7818
 20
23.8854
 10
31.1526
 20
23.8166
 10
31.4738
 20
23.7568
 10
31.7488
 20
23.7054
 10
31.9813
 20
23.6616
 10
32.1745
 20
23.6247
 10
32.3322
 20
23.5942
 10
32.4576
 20
23.5692
 10
32.5544
 20
23.5491
 10
32.626
 20
23.5333
 10
32.676
 20
23.521
 10
32.7077
 20
23.5115
 10
32.7248
 20
23.5042
 10
32.7306
 20
23.4984
 10
32.7287
 20
23.4934
 10
32.7227
 20
23.4885
 10
32.7159
 20
23.483
 10
32.6519
 20
23.4429
 10
32.5004
 20
23.3564
 10
32.271
 20
23.2287
 10
31.9737
 20
23.065
 10
31.6181
 20
22.8707
 10
31.2141
 20
22.651
 10
30.7716
 20
22.4111
 10
30.3003
 20
22.1564
 10
29.81
 20
21.8922
 10
29.3106
 20
21.6236
 10
28.8119
 20
21.3559
 10
28.3236
 20
21.0945
 10
27.8556
 20
20.8446
 10
27.4177
 20
20.6115
 10
27.0197
 20
20.4004
 10
26.6714
 20
20.2167
 10
26.3826
 20
20.0655
 10
26.1632
 20
19.9522
 10
26.0229
 20
19.8821
 10
25.9715
 20
19.8603
  0
LWPOLYLINE
100
AcDbEntity
  8
0
100
AcDbPolyline
 90
100
 70
1
 10
23.1957
 20
9.3686
 10
23.2496
 20
9.53465
 10
23.3363
 20
9.79545
 10
23.4516
 20
10.1393
 10
23.5915
 20
10.5543
 10
23.7521
 20
11.0289
 10
23.9294
 20
11.5512
 10
24.1193
 20
12.1095
 10
24.3178
 20
12.6922
 10
24.5209
 20
13.2873
 10
24.7246
 20
13.8832
 10
24.9249
 20
14.4682
 10
25.1177
 20
15.0304
 10
25.2992
 20
15.5582
 10
25.4652
 20
16.0398
 10
25.6118
 20
16.4635
 10
25.7349
 20
16.8175
 10
25.8306
 20
17.09
 10
25.8947
 20
17.2693
 10
25.9234
 20
17.3437
 10
25.9726
 20
17.3802
 10
26.1044
 20
17.4688
 10
26.3096
 20
17.6036
 10
26.579
 20
17.779
 10
26.9034
 20
17.9888
 10
27.2737
 20
18.2275
 10
27.6807
 20
18.4889
 10
28.1151
 20
18.7674
 10
28.5678
 20
19.057
 10
29.0296
 20
19.3519
 10
29.4913
 20
19.6462
 10
29.9438
 20
19.9341
 10
30.3778
 20
20.2097
 10
30.7841
 20
20.4672
 10
31.1536
 20
20.7007
 10
31.477
 20
20.9043
 10
31.7452
 20
21.0722
 10
31.9491
 20
21.1985
 10
32.0793
 20
21.2774
 10
32.1268
 20
21.303
 10
32.115
 20
21.2844
 10
32.0779
 20
21.232
 10
32.0165
 20
21.147
 10
31.9319
 20
21.031
 10
31.825
 20
20.8853
 10
31.6969
 20
20.7112
 10
31.5486
 20
20.5101
 10
31.3811
 20
20.2834
 10
31.1955
 20
20.0324
 10
30.9927
 20
19.7586
 10
30.7738
 20
19.4634
 10
30.5399
 20
19.148
 10
30.2918
 20
18.8138
 10
30.0308
 20
18.4623
 10
29.7577
 20
18.0948
 10
29.4736
 20
17.7127
 10
29.1795
 20
17.3173
 10
28.8765
 20
16.91
 10
28.5656
 20
16.4923
 10
28.2477
 20
16.0654
 10
27.9273
 20
15.636
 10
27.61
 20
15.2107
 10
27.2971
 20
14.7911
 10
26.9897
 20
14.3789
 10
26.689
 20
13.9756
 10
26.3961
 20
13.5827
 10
26.1122
 20
13.2018
 10
25.8385
 20
12.8346
 10
25.5761
 20
12.4825
 10
25.3263
 20
12.1472
 10
25.0902
 20
11.8303
 10
24.869
 20
11.5332
 10
24.6638
 20
11.2576
 10
24.4759
 20
11.0051
 10
24.3063
 20
10.7772
 10
24.1564
 20
10.5755
 10
24.0271
 20
10.4016
 10
23.9198
 20
10.2571
 10
23.8355
 20
10.1435
 10
23.7755
 20
10.0624
 10
23.7279
 20
9.99936
 10
23.6812
 20
9.93777
 10
23.6357
 20
9.87785
 10
23.5914
 20
9.81979
 10
23.5486
 20
9.7638
 10
23.5074
 20
9.71008
 10
23.4679
 20
9.65883
 10
23.4303
 20
9.61025
 10
23.3947
 20
9.56455
 10
23.3612
 20
9.52192
 10
23.3301
 20
9.48257
 10
23.3014
 20
9.44669
 10
23.2754
 20
9.41449
 10
23.2521
 20
9.38618
 10
23.2317
 20
9.36194
 10
23.2143
 20
9.34199
 10
23.2002
 20
9.32652
 10
23.1894
 20
9.31573
 10
23.1821
 20
9.30984
 10
23.1784
 20
9.30903
  0
LWPOLYLINE
100
AcDbEntity
  8
0
100
AcDbPolyline
 90
140
 70
1
 10
20.4349
 20
7.85286
 10
20.4333
 20
7.85308
 10
20.4318
 20
7.85344
 10
20.4304
 20
7.85393
 10
20.4291
 20
7.85456
 10
20.4279
 20
7.85532
 10
20.4269
 20
7.85622
 10
20.4261
 20
7.85724
 10
20.4254
 20
7.85838
 10
20.407
 20
7.8796
 10
20.3553
 20
7.93982
 10
20.2715
 20
8.03744
 10
20.1571
 20
8.17088
 10
20.0134
 20
8.33857
 10
19.8417
 20
8.53891
 10
19.6434
 20
8.77031
 10
19.4199
 20
9.03121
 10
19.1725
 20
9.32001
 10
18.9026
 20
9.63513
 10
18.6115
 20
9.97498
 10
18.3006
 20
10.338
 10
17.9713
 20
10.7226
 10
17.6249
 20
11.1271
 10
17.2628
 20
11.5501
 10
16.8863
 20
11.9898
 10
16.4969
 20
12.4448
 10
16.0957
 20
12.9135
 10
15.6843
 20
13.3942
 10
15.2639
 20
13.8854
 10
14.8434
 20
14.3773
 10
14.4315
 20
14.8591
 10
14.0297
 20
15.3291
 10
13.6392
 20
15.7857
 10
13.2615
 20
16.2273
 10
12.8979
 20
16.6524
 10
12.5498
 20
17.0593
 10
12.2186
 20
17.4465
 10
11.9056
 20
17.8123
 10
11.6122
 20
18.1552
 10
11.3398
 20
18.4736
 10
11.0898
 20
18.7659
 10
10.8635
 20
19.0304
 10
10.6622
 20
19.2656
 10
10.4874
 20
19.47
 10
10.3405
 20
19.6419
 10
10.2227
 20
19.7796
 10
10.1356
 20
19.8817
 10
10.0803
 20
19.9466
 10
10.0584
 20
19.9725
 10
10.0504
 20
19.9829
 10
10.0434
 20
19.9922
 10
10.0374
 20
20.0005
 10
10.0323
 20
20.008
 10
10.0283
 20
20.0145
 10
10.0254
 20
20.0201
 10
10.0236
 20
20.025
 10
10.023
 20
20.029
 10
10.0236
 20
20.0322
 10
10.0253
 20
20.0347
 10
10.0284
 20
20.0364
 10
10.0327
 20
20.0375
 10
10.0384
 20
20.0379
 10
10.0454
 20
20.0376
 10
10.0539
 20
20.0368
 10
10.0638
 20
20.0354
 10
10.0752
 20
20.0334
 10
10.088
 20
20.031
 10
10.1025
 20
20.028
 10
10.1185
 20
20.0246
 10
10.1425
 20
20.0203
 10
10.1931
 20
20.011
 10
10.2694
 20
19.9969
 10
10.3701
 20
19.9783
 10
10.4942
 20
19.9553
 10
10.6405
 20
19.9282
 10
10.808
 20
19.8972
 10
10.9954
 20
19.8625
 10
11.2018
 20
19.8242
 10
11.4259
 20
19.7827
 10
11.6667
 20
19.738
 10
11.923
 20
19.6905
 10
12.1937
 20
19.6403
 10
12.4777
 20
19.5876
 10
12.7739
 20
19.5327
 10
13.0811
 20
19.4757
 10
13.3983
 20
19.4168
 10
13.7243
 20
19.3563
 10
14.058
 20
19.2944
 10
14.3983
 20
19.2312
 10
14.9466
 20
19.1289
 10
15.4448
 20
19.0359
 10
15.8953
 20
18.9515
 10
16.3006
 20
18.8754
 10
16.663
 20
18.807
 10
16.985
 20
18.7458
 10
17.2688
 20
18.6913
 10
17.5168
 20
18.6431
 10
17.7315
 20
18.6006
 10
17.9153
 20
18.5635
 10
18.0704
 20
18.5311
 10
18.1994
 20
18.5029
 10
18.3046
 20
18.4786
 10
18.3883
 20
18.4576
 10
18.4529
 20
18.4394
 10
18.501
 20
18.4236
 10
18.5347
 20
18.4095
 10
18.5565
 20
18.3969
 10
18.5688
 20
18.3851
 10
18.574
 20
18.3736
 10
18.5991
 20
18.2509
 10
18.6476
 20
17.996
 10
18.7167
 20
17.6239
 10
18.8037
 20
17.1496
 10
18.906
 20
16.5881
 10
19.0209
 20
15.9542
 10
19.1458
 20
15.263
 10
19.2779
 20
14.5294
 10
19.4146
 20
13.7683
 10
19.5533
 20
12.9948
 10
19.6912
 20
12.2237
 10
19.8256
 20
11.47
 10
19.954
 20
10.7487
 10
20.0736
 20
10.0747
 10
20.1817
 20
9.46306
 10
20.2758
 20
8.92862
 10
20.353
 20
8.48638
 10
20.4109
 20
8.15129
 10
20.4465
 20
7.9383
 10
20.4574
 20
7.86238
 10
20.4556
 20
7.86067
 10
20.4537
 20
7.85913
 10
20.4518
 20
7.85777
 10
20.4499
 20
7.85658
 10
20.4479
 20
7.85556
 10
20.446
 20
7.8547
 10
20.444
 20
7.85401
 10
20.4421
 20
7.85347
 10
20.4402
 20
7.85309
 10
20.4384
 20
7.85287
 10
20.4366
 20
7.85279
  0
LWPOLYLINE
100
AcDbEntity
  8
0
100
AcDbPolyline
 90
120
 70
1
 10
21.5479
 20
8.18297
 10
21.5453
 20
8.18429
 10
21.5426
 20
8.18646
 10
21.5398
 20
8.18949
 10
21.5368
 20
8.19337
 10
21.5337
 20
8.19812
 10
21.5304
 20
8.20374
 10
21.527
 20
8.21024
 10
21.5233
 20
8.21763
 10
21.5195
 20
8.2259
 10
21.5154
 20
8.23507
 10
21.4963
 20
8.31963
 10
21.4517
 20
8.53479
 10
21.3846
 20
8.86605
 10
21.2977
 20
9.2989
 10
21.194
 20
9.81884
 10
21.0762
 20
10.4114
 10
20.9472
 20
11.062
 10
20.81
 20
11.7561
 10
20.6673
 20
12.4794
 10
20.522
 20
13.2172
 10
20.377
 20
13.955
 10
20.2352
 20
14.6785
 10
20.0993
 20
15.3729
 10
19.9722
 20
16.024
 10
19.8569
 20
16.617
 10
19.7561
 20
17.1376
 10
19.6728
 20
17.5713
 10
19.6097
 20
17.9034
 10
19.5697
 20
18.1196
 10
19.5558
 20
18.2053
 10
19.556
 20
18.2128
 10
19.5565
 20
18.2197
 10
19.5575
 20
18.2261
 10
19.5588
 20
18.2319
 10
19.5606
 20
18.2371
 10
19.5628
 20
18.2417
 10
19.5655
 20
18.2458
 10
19.5686
 20
18.2494
 10
19.5722
 20
18.2524
 10
19.5763
 20
18.2549
 10
19.5809
 20
18.2569
 10
19.5861
 20
18.2584
 10
19.5918
 20
18.2594
 10
19.598
 20
18.2599
 10
19.6048
 20
18.26
 10
19.6122
 20
18.2595
 10
19.6202
 20
18.2587
 10
19.6288
 20
18.2573
 10
19.6381
 20
18.2556
 10
19.6479
 20
18.2534
 10
19.6626
 20
18.2502
 10
19.6918
 20
18.2444
 10
19.735
 20
18.2361
 10
19.7914
 20
18.2253
 10
19.8605
 20
18.2122
 10
19.9416
 20
18.1969
 10
20.0342
 20
18.1796
 10
20.1375
 20
18.1602
 10
20.2511
 20
18.1391
 10
20.3743
 20
18.1161
 10
20.5064
 20
18.0916
 10
20.6468
 20
18.0656
 10
20.795
 20
18.0381
 10
20.9503
 20
18.0094
 10
21.112
 20
17.9795
 10
21.2796
 20
17.9486
 10
21.4524
 20
17.9167
 10
21.6299
 20
17.884
 10
21.8114
 20
17.8506
 10
21.9962
 20
17.8166
 10
22.1808
 20
17.782
 10
22.3615
 20
17.7481
 10
22.5377
 20
17.715
 10
22.7088
 20
17.6827
 10
22.8742
 20
17.6514
 10
23.0334
 20
17.6213
 10
23.1856
 20
17.5923
 10
23.3304
 20
17.5647
 10
23.4671
 20
17.5386
 10
23.5952
 20
17.514
 10
23.714
 20
17.4912
 10
23.8229
 20
17.4701
 10
23.9214
 20
17.4509
 10
24.0089
 20
17.4338
 10
24.0847
 20
17.4187
 10
24.1483
 20
17.406
 10
24.199
 20
17.3956
 10
24.2364
 20
17.3877
 10
24.2597
 20
17.3824
 10
24.2684
 20
17.3798
 10
24.251
 20
17.3131
 10
24.1979
 20
17.1256
 10
24.1128
 20
16.8304
 10
23.9998
 20
16.4409
 10
23.8628
 20
15.9703
 10
23.7056
 20
15.432
 10
23.5321
 20
14.8392
 10
23.3462
 20
14.2052
 10
23.1519
 20
13.5432
 10
22.953
 20
12.8665
 10
22.7534
 20
12.1885
 10
22.5571
 20
11.5224
 10
22.368
 20
10.8814
 10
22.1899
 20
10.2789
 10
22.0267
 20
9.72817
 10
21.8823
 20
9.24241
 10
21.7607
 20
8.83494
 10
21.6658
 20
8.51903
 10
21.6014
 20
8.30797
 10
21.5715
 20
8.21503
 10
21.5691
 20
8.20821
 10
21.5668
 20
8.20217
 10
21.5645
 20
8.19693
 10
21.5622
 20
8.19249
 10
21.5599
 20
8.18886
 10
21.5576
 20
8.18603
 10
21.5552
 20
8.18403
 10
21.5529
 20
8.18284
 10
21.5504
 20
8.18249
  0
ENDSEC
  0
EOF
