<?xml version="1.0" standalone="no"?>
<!DOCTYPE svg PUBLIC "-//W3C//DTD SVG 20010904//EN"
 "http://www.w3.org/TR/2001/REC-SVG-20010904/DTD/svg10.dtd">
<svg version="1.0" xmlns="http://www.w3.org/2000/svg"
 width="1080.000000pt" height="1080.000000pt" viewBox="0 0 1080.000000 1080.000000"
 preserveAspectRatio="xMidYMid meet">
<metadata>
Created by potrace 1.16, written by Peter Selinger 2001-2019
</metadata>
<g transform="translate(0.000000,1080.000000) scale(0.100000,-0.100000)"
fill="#000000" stroke="none">
<path d="M5275 9991 c-16 -11 -42 -30 -57 -43 -28 -25 -3348 -4474 -3348
-4487 0 -4 -8 -23 -17 -42 -9 -19 -19 -61 -21 -94 -5 -72 23 -142 69 -178 40
-30 3301 -3734 3333 -3786 47 -74 118 -89 186 -39 37 27 3341 4457 3376 4527
42 81 23 209 -34 240 -27 14 -3262 3793 -3280 3832 -38 77 -141 112 -207 70z
m1690 -2291 c703 -800 1287 -1465 1298 -1477 11 -13 18 -25 16 -28 -4 -3
-2112 333 -2115 338 -3 4 -524 2653 -524 2662 0 14 -48 69 1325 -1495z m-1444
163 c125 -692 226 -1259 225 -1261 -2 -1 -280 43 -619 98 -339 55 -621 100
-627 100 -5 0 -10 6 -10 13 0 12 666 1961 761 2230 18 48 34 85 37 82 3 -3
108 -571 233 -1262z m-927 -24 l-306 -1034 -776 -423 c-427 -232 -779 -421
-783 -420 -3 2 482 659 1079 1460 598 802 1088 1456 1090 1454 2 -2 -135 -469
-304 -1037z m552 -1409 c356 -66 649 -122 652 -125 6 -6 262 -1418 258 -1422
-5 -5 -1260 197 -1275 205 -11 6 -168 770 -295 1435 -3 15 -1 27 4 27 5 0 301
-54 656 -120z m-841 -17 c10 -54 66 -363 124 -688 84 -460 104 -591 94 -593
-19 -5 -1906 299 -1916 308 -8 7 1647 1067 1669 1069 7 1 19 -39 29 -96z
m2865 -358 c1060 -196 1004 -185 994 -195 -28 -25 -1677 -911 -1683 -904 -8 9
-251 1228 -251 1258 0 12 6 15 23 11 12 -2 425 -79 917 -170z m-121 -2046
c-535 -717 -1037 -1391 -1116 -1498 -80 -106 -146 -191 -149 -188 -4 4 669
1975 685 2005 8 14 1543 993 1548 988 2 -2 -434 -590 -968 -1307z m-3456 790
c955 -178 1038 -195 1042 -214 21 -86 474 -2619 470 -2623 -3 -3 -7 -3 -8 -1
-2 2 -582 679 -1288 1504 -706 826 -1291 1509 -1299 1519 -14 18 -13 19 15 13
17 -3 497 -92 1068 -198z m1896 -353 c310 -58 565 -107 567 -109 3 -3 -654
-2238 -673 -2287 -4 -12 -7 -11 -14 5 -9 24 -489 2462 -489 2488 0 13 6 16 23
12 12 -3 276 -52 586 -109z"/>
</g>
</svg>
